<svg viewBox="0 0 46 41" fill="none" xmlns="http://www.w3.org/2000/svg">
<path d="M13.5863 9.04552C16.3397 9.20383 18.2375 14.8283 17.8251 21.6081C17.4125 28.3878 14.846 33.7558 12.0925 33.5974C9.33914 33.4391 7.44124 27.8148 7.85366 21.035C8.26608 14.2551 10.8328 8.88732 13.5863 9.04552Z" fill="white"/>
<path d="M13.5088 10.3201C15.9764 10.4621 17.6771 15.5025 17.3074 21.5786C16.9377 27.6546 14.6376 32.4653 12.17 32.3233C9.70241 32.1815 8.0016 27.141 8.37127 21.0649C8.74094 14.9889 11.0411 10.1782 13.5088 10.3201Z" fill="#332612"/>
<path d="M37.2496 23.4395C36.694 23.7596 36.2658 24.2614 36.037 24.8603C35.8506 25.3736 35.7752 25.9206 35.816 26.4652C35.8521 26.884 35.7917 27.3055 35.6396 27.6974C35.4874 28.0893 35.2474 28.441 34.9381 28.7257C33.8683 29.8806 32.6211 30.8573 31.2435 31.6191L30.473 32.0102L29.2224 32.6487L28.8498 32.8385L27.3467 33.6036L28.4204 33.8049L28.7046 33.8567L30.1635 34.127L30.6624 34.2248C30.3087 34.3801 30.0119 34.4951 29.7909 34.5757C29.3995 34.6659 28.9987 34.7084 28.5972 34.7022L21.3974 34.6274L19.3574 33.684L15.0628 34.8L7.75558 32.7637L7.66087 32.5912L5.40618 28.3116L2.82939 26.028L1.66734 24.9926L1.2947 24.659L0 23.5143L0.296817 21.9037L1.0547 18.9241L4.01042 15.7777L3.8336 14.5007L3.65042 13.1662L4.61041 12.1424L6.29667 11.6764L7.56612 11.3313L16.3133 6.06812L23.4058 7.16102L25.5341 6.17743H25.6794L27.8646 6.20618L27.1067 6.21766L27.2646 6.43049L28.8183 8.52427C28.8751 8.60481 30.2709 10.4685 33.5045 11.13C33.8659 11.1967 34.2179 11.3067 34.5529 11.4579C34.4771 11.5327 34.3887 11.6189 34.3255 11.6765C34.2939 11.7052 34.2624 11.734 34.2308 11.7685L34.1929 11.803C34.1361 11.8548 34.0729 11.918 34.0097 11.9813C33.8897 12.1021 33.7571 12.2402 33.6308 12.3955C33.4547 12.5921 33.2962 12.8038 33.1571 13.0282C33.11 13.0928 33.0698 13.1622 33.0371 13.2353C32.9877 13.3117 32.9454 13.3926 32.9108 13.4768C32.8557 13.5742 32.8092 13.6762 32.7719 13.7817C32.7245 13.896 32.6844 14.0132 32.6519 14.1326C32.6029 14.2747 32.567 14.4211 32.5445 14.5697C32.5331 14.6054 32.5247 14.642 32.5192 14.679C32.5003 14.7883 32.4877 14.9034 32.475 15.0184C32.4539 15.2864 32.4517 15.5555 32.4687 15.8237C32.4768 15.9741 32.4937 16.1239 32.5192 16.2724C32.5417 16.4583 32.5754 16.6427 32.6203 16.8246C33.2967 19.5241 34.945 21.8794 37.2496 23.4395Z" fill="url(#paint0_linear_7_35909)"/>
<path d="M27.7055 23.3042C28.7857 23.8022 29.8343 24.3661 30.8454 24.9927C31.357 25.0387 30.8454 29.3298 30.4728 32.0103L31.2433 31.6191C32.6209 30.8574 33.8682 29.8806 34.938 28.7258C35.2473 28.4411 35.4872 28.0893 35.6394 27.6974C35.7916 27.3056 35.8519 26.884 35.8158 26.4652C35.7751 25.9206 35.8504 25.3736 36.0369 24.8604C36.2656 24.2614 36.6939 23.7596 37.2495 23.4396C34.9448 21.8795 33.2965 19.5242 32.6201 16.8246C32.5752 16.6428 32.5415 16.4584 32.5191 16.2725C32.4935 16.124 32.4766 15.9742 32.4685 15.8238C32.4515 15.5555 32.4537 15.2864 32.4748 15.0185C32.4875 14.9035 32.5001 14.7884 32.5191 14.6791C32.5245 14.642 32.5329 14.6055 32.5443 14.5698C32.5668 14.4211 32.6027 14.2748 32.6517 14.1326C32.6842 14.0133 32.7243 13.8961 32.7717 13.7818C32.809 13.6763 32.8555 13.5743 32.9106 13.4769C32.9452 13.3927 32.9875 13.3118 33.037 13.2353C33.0696 13.1623 33.1098 13.0929 33.1569 13.0283C33.296 12.8039 33.4545 12.5922 33.6306 12.3955C33.7569 12.2402 33.8895 12.1022 34.0095 11.9814C34.0727 11.9181 34.1359 11.8548 34.1927 11.8031L34.2306 11.7685C34.2622 11.734 34.2938 11.7053 34.3253 11.6765C34.3885 11.619 34.4769 11.5327 34.5527 11.4579C34.2177 11.3068 33.8657 11.1967 33.5043 11.1301C30.2707 10.4686 28.8749 8.60488 28.8181 8.52433L27.2644 6.43055L27.1066 6.21772L27.8644 6.20624L25.6792 6.17749L27.1048 9.44841L25.1904 10.9838L25.9517 14.946L28.4019 16.8775L29.3154 17.722L28.1813 19.7501L28.8511 20.8893L27.7055 23.3042Z" fill="url(#paint1_radial_7_35909)"/>
<path d="M34.471 24.5442L33.4028 23.6831L32.5365 24.0248L31.0259 24.1526L29.8243 24.6266L29.3154 25.2956L29.7048 26.2282C29.7048 26.2282 30.3918 25.7777 30.8082 25.989C31.0985 26.1164 31.4194 26.1572 31.7324 26.1066L32.6008 26.6146L33.7028 26.8178L34.4167 26.111C34.5604 26.0394 34.6822 25.9304 34.769 25.7953C34.8559 25.6603 34.9047 25.5043 34.9103 25.3438C34.9159 25.1833 34.878 25.0243 34.8007 24.8836C34.7234 24.7428 34.6095 24.6256 34.471 24.5442Z" fill="url(#paint2_linear_7_35909)"/>
<path d="M21.0632 7.99224L19.3563 7.11621L17.7169 7.76295L14.9729 8.27974L12.699 9.17682L11.6211 10.1677L12.0915 11.2942C12.0915 11.2942 13.4356 10.5471 14.1317 10.7266C14.6735 10.8204 15.2289 10.7996 15.7622 10.6658L17.1971 11.1274L19.1259 11.1371L20.5811 10.0492C20.5811 10.0492 22.77 8.86828 21.0632 7.99224Z" fill="url(#paint3_linear_7_35909)"/>
<path d="M21.3128 27.7498L19.2689 27.2491L18.3117 28.2685L16.3272 29.4045L14.9995 30.8185L14.7524 32.059L15.9141 33.0895C15.9141 33.0895 16.5523 32.0351 17.2656 32.06C17.746 32.0511 18.2136 31.9028 18.6113 31.6332L20.1436 31.7769L21.7908 31.3546L22.2932 29.9317C22.2932 29.9317 23.3567 28.2504 21.3128 27.7498Z" fill="url(#paint4_linear_7_35909)"/>
<path d="M22.475 22.5027L24.7033 24.4792L26.8639 26.3957L27.492 28.1682C27.492 28.1682 27.3121 30.5796 27.5235 30.7983C27.6358 31.0304 27.6985 31.2834 27.7078 31.541C27.717 31.7987 27.6724 32.0555 27.577 32.295C27.3794 32.7276 26.149 32.4842 26.149 32.4842L25.3531 31.7781L24.1022 30.6686L24.3832 29.2595L23.9985 27.6716L22.4065 26.2595C22.4065 26.2595 21.7105 25.0029 21.042 25.049C20.3735 25.0951 20.0186 24.1413 20.0186 24.1413L22.475 22.5027Z" fill="url(#paint5_linear_7_35909)"/>
<path d="M23.372 14.2252L24.7133 15.415L26.0138 16.5686L26.4004 17.6264C26.3505 18.1472 26.363 18.6721 26.4379 19.1899C26.5063 19.3272 26.5455 19.4772 26.5528 19.6304C26.5601 19.7836 26.5355 19.9367 26.4805 20.0799C26.3658 20.3357 25.6312 20.1827 25.6312 20.1827L25.152 19.7577L24.3991 19.0898L24.5564 18.2542L24.316 17.3078L23.3577 16.4578C23.3577 16.4578 22.9343 15.7063 22.5365 15.7292C22.1386 15.7521 21.9204 15.1828 21.9204 15.1828L23.372 14.2252Z" fill="url(#paint6_linear_7_35909)"/>
<path d="M32.6878 21.8114C32.3584 21.386 32.1259 20.8937 32.0064 20.369C31.887 19.8443 31.8835 19.2999 31.9962 18.7737C32.0189 18.6185 31.9814 18.4605 31.8915 18.332C31.8015 18.2034 31.6659 18.1141 31.5124 18.0821C31.3588 18.0502 31.1988 18.078 31.0651 18.1601C30.9314 18.2421 30.834 18.372 30.7928 18.5234C30.6462 19.2007 30.6465 19.9016 30.7938 20.5787C30.9411 21.2559 31.2319 21.8936 31.6465 22.4488C32.1098 23.0697 33.1532 22.435 32.6878 21.8114Z" fill="#FFDC6C"/>
<path d="M34.6644 28.7445C34.122 28.5355 33.6159 28.2423 33.1648 27.8756C32.561 27.3811 31.7285 28.2619 32.3355 28.759C32.8673 29.1997 33.4648 29.5545 34.1063 29.8105C34.8334 30.0985 35.4001 29.0358 34.6644 28.7445Z" fill="#FFDC6C"/>
<path d="M28.899 14.39C28.5642 14.6848 28.2294 14.9797 27.8946 15.2745C27.3081 15.7909 28.2209 16.5938 28.8033 16.0807C29.1381 15.7858 29.4729 15.4909 29.8078 15.196C30.3943 14.6796 29.4816 13.8769 28.899 14.39Z" fill="#FFDC6C"/>
<path d="M28.3896 11.6922L28.1965 10.6992C28.0495 9.94284 26.8763 10.3071 27.0217 11.055L27.2148 12.0481C27.3618 12.8044 28.535 12.4402 28.3896 11.6922Z" fill="#FFDC6C"/>
<path d="M15.0185 20.3962L13.8059 21.6847L11.8544 23.767C11.4879 23.494 11.1456 23.1899 10.8313 22.8582C10.5408 22.5015 10.6544 20.983 10.6544 20.983L9.32186 19.8038L8.06501 18.4808L8.80397 16.4733C8.80397 16.4733 8.60819 15.461 7.83766 15.6163C7.16914 15.6944 6.4929 15.677 5.82929 15.5645L4.19985 15.0525L3.83357 14.5003L3.65039 13.1658L4.61038 12.1419L6.29664 11.676L10.6608 13.4937L12.9975 16.7782L15.0185 20.3962Z" fill="url(#paint7_linear_7_35909)"/>
<path d="M34.1898 11.8053C34.133 11.8571 34.0698 11.9204 34.0066 11.9836C33.262 12.674 32.7501 13.5784 32.5414 14.5721L32.5098 14.4571L31.5562 13.6057C31.5562 13.6057 31.133 12.8522 30.7351 12.8752C30.3372 12.8983 30.1162 12.3288 30.1162 12.3288L31.5688 11.3739L34.1898 11.8053Z" fill="url(#paint8_linear_7_35909)"/>
<path style="mix-blend-mode:multiply" opacity="0.34" d="M39.3017 22.6378C39.2759 22.6327 39.2484 22.626 39.2227 22.6193C39.3206 22.6179 39.3412 22.6246 39.3017 22.6378Z" fill="url(#paint9_linear_7_35909)"/>
<path d="M43.772 21.6259C43.7306 21.9686 43.6161 22.2985 43.4363 22.5932C43.2566 22.8879 43.0157 23.1406 42.7299 23.3343C42.32 23.6143 41.8584 23.8099 41.3721 23.9095C41.2521 23.9382 41.1383 23.9612 41.031 23.99H41.0246C40.9741 24.0015 40.9173 24.013 40.8604 24.0245C40.6773 24.0648 40.5005 24.0993 40.3299 24.1338C40.2857 24.1453 40.2415 24.1511 40.1973 24.1626C40.1215 24.1741 40.0521 24.1913 39.9826 24.2028C39.8942 24.2201 39.8057 24.2373 39.7236 24.2546C39.5594 24.2891 39.4078 24.3179 39.2626 24.3524C39.1995 24.3696 39.1363 24.3811 39.0731 24.3984C39.0668 24.3984 39.0668 24.3984 39.0542 24.4042C38.9595 24.4272 38.8647 24.4502 38.7763 24.4789C38.6942 24.5019 38.6311 24.5249 38.5616 24.548H38.5553C38.5426 24.548 38.5363 24.5537 38.53 24.5537C38.5058 24.5658 38.4804 24.5754 38.4542 24.5825L38.3784 24.617C38.3114 24.646 38.2461 24.6786 38.1826 24.7148C38.1623 24.7276 38.1413 24.7391 38.1195 24.7493C38.0643 24.7881 38.0115 24.8304 37.9616 24.8758L37.9047 24.9276C37.8858 24.9448 37.8668 24.9678 37.8479 24.9851C37.829 25.0024 37.8164 25.0254 37.7974 25.0426C37.7805 25.0642 37.7657 25.0873 37.7532 25.1117C37.7351 25.1302 37.7202 25.1516 37.709 25.1749C37.663 25.2504 37.6229 25.3292 37.589 25.4108C37.4643 25.8773 37.4257 26.3627 37.4753 26.843C37.4761 26.8681 37.474 26.8933 37.469 26.9179C37.4637 27.1066 37.4468 27.2949 37.4185 27.4816L37.3995 27.5679C37.3869 27.6254 37.3743 27.6829 37.3616 27.7462C37.3553 27.7577 37.3553 27.7749 37.349 27.7922C37.3427 27.8209 37.33 27.8497 37.3237 27.8784C37.3048 27.9533 37.2732 28.0338 37.2479 28.1085C37.21 28.2006 37.1722 28.2983 37.1279 28.3904C37.1153 28.4249 37.0964 28.4652 37.0774 28.5054C37.0736 28.508 37.0705 28.5114 37.0684 28.5154C37.0662 28.5194 37.065 28.5239 37.0648 28.5284C37.0395 28.5687 37.0143 28.6205 36.989 28.6665C36.9385 28.7585 36.8816 28.8506 36.8185 28.9483C36.7174 29.0979 36.6037 29.2532 36.4774 29.4143C36.4395 29.4603 36.4016 29.5121 36.3574 29.5581C36.3132 29.6156 36.2627 29.6674 36.2185 29.7191C36.0732 29.8802 35.928 30.0355 35.7827 30.1793C35.7827 30.1851 35.7764 30.1851 35.7701 30.1908C35.7701 30.1966 35.7638 30.1966 35.7638 30.2023C34.3961 31.9216 32.6497 33.3015 30.6607 34.2345C30.3071 34.3899 30.0102 34.5049 29.7892 34.5855L29.6186 34.5222L27.345 33.6133L28.8482 32.8483L29.2208 32.6585L31.2417 31.6288C32.6194 30.8671 33.8666 29.8904 34.9364 28.7355C35.2457 28.4508 35.4857 28.099 35.6379 27.7072C35.79 27.3153 35.8504 26.8938 35.8143 26.4749C35.7735 25.9304 35.8489 25.3834 36.0353 24.8701C36.2641 24.2711 36.6923 23.7693 37.2479 23.4493C34.9433 21.8892 33.295 19.5339 32.6185 16.8343C32.5737 16.6525 32.5399 16.4681 32.5175 16.2822C32.4919 16.1337 32.4751 15.9839 32.467 15.8335C32.45 15.5652 32.4521 15.2961 32.4733 15.0282C32.4859 14.9132 32.4985 14.7981 32.5175 14.6888C32.5229 14.6518 32.5314 14.6152 32.5428 14.5795C32.5743 14.43 32.6059 14.2804 32.6501 14.1424C32.6827 14.023 32.7228 13.9058 32.7701 13.7915C32.8074 13.686 32.8539 13.584 32.9091 13.4866C32.9436 13.4024 32.9859 13.3215 33.0354 13.245C33.068 13.172 33.1083 13.1026 33.1554 13.038C33.2945 12.8136 33.453 12.6019 33.6291 12.4052C33.7553 12.2499 33.888 12.1119 34.008 11.9911C34.0711 11.9278 34.1343 11.8645 34.1911 11.8128L34.229 11.7783C34.2606 11.7437 34.2922 11.715 34.3238 11.6862C34.3869 11.6287 34.4753 11.5424 34.5511 11.4677C34.2161 11.3165 33.8641 11.2064 33.5027 11.1398C30.2691 10.4782 28.8734 8.61455 28.8165 8.53402L27.2629 6.44023L27.105 6.22741L27.8629 6.21593L28.0523 6.21017L28.2761 6.20562C28.5205 6.19541 28.7636 6.24682 28.9829 6.35512C29.2022 6.46342 29.3908 6.62512 29.5313 6.82536C29.7277 7.12218 29.9447 7.40481 30.1807 7.67117H30.1934C30.1934 7.67692 30.1997 7.67692 30.1997 7.68268C30.2961 7.80744 30.4039 7.92297 30.5217 8.02779C31.1335 8.5732 31.8398 9.00209 32.6059 9.29327C32.8841 9.40306 33.1688 9.49527 33.4585 9.56936C33.6101 9.60963 33.7743 9.64417 33.9385 9.67866C34.3237 9.75404 34.7019 9.8618 35.069 10.0008C35.1295 10.024 35.1886 10.0509 35.2459 10.0813C35.3033 10.1022 35.3584 10.1292 35.4101 10.1619C35.4604 10.1851 35.5089 10.212 35.5553 10.2424C35.5861 10.2595 35.6156 10.2787 35.6438 10.2999H35.65C35.6627 10.3057 35.6754 10.3172 35.688 10.3229C35.7301 10.3486 35.7701 10.3775 35.8079 10.4092C35.8459 10.4379 35.8838 10.4725 35.9153 10.5012C35.9727 10.5501 36.0255 10.604 36.0732 10.6623C36.1036 10.6905 36.1292 10.7235 36.149 10.7601C36.1917 10.8263 36.2297 10.8955 36.2627 10.9672C36.278 10.9986 36.2907 11.0313 36.3006 11.0649C36.312 11.0967 36.3204 11.1294 36.3258 11.1627C36.3432 11.2284 36.3517 11.2961 36.3511 11.3641C36.3447 11.6114 36.2704 11.8522 36.1364 12.0601C36.1048 12.1176 36.0669 12.1694 36.029 12.2269C35.4164 13.0322 33.6354 13.8778 34.2417 16.5065C34.2986 16.7423 34.3617 16.9781 34.4438 17.214C34.4628 17.2657 34.4754 17.3118 34.4943 17.3636C34.5133 17.4153 34.5322 17.4613 34.5511 17.5131C35.2609 19.4102 36.5349 21.0443 38.2016 22.1953C38.2647 22.2356 38.3279 22.2701 38.3911 22.3046C38.3911 22.3046 38.3974 22.3046 38.3974 22.3104C38.5635 22.3948 38.7343 22.4697 38.9089 22.5347C39.0163 22.5692 39.1174 22.598 39.2247 22.6267C39.25 22.6325 39.2815 22.6382 39.3069 22.644C41.05 23.0409 43.2351 22.3449 43.772 21.6259Z" fill="#412A0D"/>
<path d="M10.4904 31.5098L9.0315 32.597L7.66101 32.5913L5.40633 28.3117L2.82953 26.0281L1.66748 24.9927L6.5747 27.2475L9.6883 27.1095L10.9704 29.4506C12.6756 30.3249 10.4904 31.5098 10.4904 31.5098Z" fill="url(#paint10_linear_7_35909)"/>
<path style="mix-blend-mode:color-dodge" opacity="0.52" d="M33.0467 40.2786C40.0399 39.9534 45.2957 30.8049 44.786 19.8448C44.2763 8.88482 38.194 0.263621 31.2008 0.588852C24.2077 0.914083 18.9518 10.0626 19.4615 21.0226C19.9712 31.9826 26.0535 40.6038 33.0467 40.2786Z" fill="url(#paint11_radial_7_35909)"/>
<defs>
<linearGradient id="paint0_linear_7_35909" x1="0" y1="20.434" x2="37.2496" y2="20.434" gradientUnits="userSpaceOnUse">
<stop stop-color="#423232"/>
<stop offset="1" stop-color="#752727"/>
</linearGradient>
<radialGradient id="paint1_radial_7_35909" cx="0" cy="0" r="1" gradientUnits="userSpaceOnUse" gradientTransform="translate(28.4058 17.0417) scale(16.4737 15.0038)">
<stop stop-color="#F0EC1A"/>
<stop offset="0.18379" stop-color="#E7B51A"/>
<stop offset="0.39038" stop-color="#DF7E19"/>
<stop offset="0.58267" stop-color="#D85219"/>
<stop offset="0.7544" stop-color="#D33319"/>
<stop offset="0.89932" stop-color="#D02019"/>
<stop offset="1" stop-color="#CF1919"/>
</radialGradient>
<linearGradient id="paint2_linear_7_35909" x1="30.6819" y1="24.3669" x2="34.0971" y2="26.6407" gradientUnits="userSpaceOnUse">
<stop stop-color="#423232"/>
<stop offset="1" stop-color="#757575"/>
</linearGradient>
<linearGradient id="paint3_linear_7_35909" x1="14.2462" y1="8.63326" x2="18.1891" y2="12.496" gradientUnits="userSpaceOnUse">
<stop stop-color="#423232"/>
<stop offset="1" stop-color="#757575"/>
</linearGradient>
<linearGradient id="paint4_linear_7_35909" x1="15.9631" y1="29.9323" x2="22.1513" y2="30.8161" gradientUnits="userSpaceOnUse">
<stop stop-color="#423232"/>
<stop offset="1" stop-color="#757575"/>
</linearGradient>
<linearGradient id="paint5_linear_7_35909" x1="20.6914" y1="26.9737" x2="28.0327" y2="28.0221" gradientUnits="userSpaceOnUse">
<stop stop-color="#423232"/>
<stop offset="1" stop-color="#757575"/>
</linearGradient>
<linearGradient id="paint6_linear_7_35909" x1="22.1586" y1="17.1466" x2="26.8088" y2="18.2914" gradientUnits="userSpaceOnUse">
<stop stop-color="#423232"/>
<stop offset="1" stop-color="#757575"/>
</linearGradient>
<linearGradient id="paint7_linear_7_35909" x1="7.47191" y1="18.4724" x2="11.9185" y2="15.4441" gradientUnits="userSpaceOnUse">
<stop stop-color="#423232"/>
<stop offset="1" stop-color="#757575"/>
</linearGradient>
<linearGradient id="paint8_linear_7_35909" x1="30.0966" y1="12.9066" x2="34.1477" y2="13.044" gradientUnits="userSpaceOnUse">
<stop stop-color="#423232"/>
<stop offset="1" stop-color="#757575"/>
</linearGradient>
<linearGradient id="paint9_linear_7_35909" x1="39.2714" y1="22.6377" x2="39.2715" y2="22.6191" gradientUnits="userSpaceOnUse">
<stop stop-color="#B35124"/>
<stop offset="0.25253" stop-color="#BA612D"/>
<stop offset="0.74017" stop-color="#CB8943"/>
<stop offset="1" stop-color="#D6A150"/>
</linearGradient>
<linearGradient id="paint10_linear_7_35909" x1="5.15913" y1="28.9245" x2="8.99713" y2="26.3107" gradientUnits="userSpaceOnUse">
<stop stop-color="#423232"/>
<stop offset="1" stop-color="#757575"/>
</linearGradient>
<radialGradient id="paint11_radial_7_35909" cx="0" cy="0" r="1" gradientUnits="userSpaceOnUse" gradientTransform="translate(32.1365 20.4305) rotate(87.2992) scale(19.8662 12.6761)">
<stop stop-color="#FFDC6C"/>
<stop offset="0.08724" stop-color="#F8D669" stop-opacity="0.97149"/>
<stop offset="0.21676" stop-color="#E4C460" stop-opacity="0.89248"/>
<stop offset="0.37267" stop-color="#C3A852" stop-opacity="0.763"/>
<stop offset="0.54914" stop-color="#95803F" stop-opacity="0.58283"/>
<stop offset="0.74274" stop-color="#5A4D26" stop-opacity="0.35194"/>
<stop offset="0.94788" stop-color="#131108" stop-opacity="0.0751"/>
<stop offset="1" stop-opacity="0"/>
</radialGradient>
</defs>
</svg>
