<svg width="261" height="180" viewBox="0 0 261 180" fill="none" xmlns="http://www.w3.org/2000/svg">
<path d="M255.08 131.523C251.574 137.389 245.882 141.622 239.255 143.292C232.628 144.962 225.609 143.931 219.742 140.427C218.529 139.667 217.369 138.827 216.268 137.913C215.982 139.304 215.585 140.67 215.081 141.998C215.081 142.016 215.063 142.033 215.063 142.068C213.527 148.423 207.992 154.43 200.135 157.398C194.42 159.685 188.056 159.753 182.292 157.589C173.737 169.602 154.811 177.947 132.847 177.947C113.24 177.947 96.0428 171.278 86.4923 161.291C80.7442 164.754 73.9976 166.181 67.3395 165.342C54.437 163.892 44.5724 155.163 43.5249 145.036C43.2979 144.39 43.0884 143.727 42.8964 143.064C38.9528 144.837 34.6682 145.723 30.3448 145.661C26.0214 145.598 21.7644 144.588 17.8737 142.702C13.9829 140.816 10.5534 138.099 7.82651 134.743C5.09967 131.388 3.14203 127.475 2.09151 123.281C1.041 119.086 0.923145 114.713 1.74638 110.468C2.56961 106.223 4.31391 102.211 6.85618 98.7131C9.39845 95.2156 12.6768 92.3183 16.4604 90.2254C20.2439 88.1324 24.4405 86.8948 28.7543 86.5997C25.4007 78.0872 24.7774 68.7425 26.9707 59.8601C29.1639 50.9776 34.0651 42.997 40.9954 37.0239C47.9258 31.0507 56.5421 27.3806 65.6509 26.5219C74.7598 25.6632 83.9102 27.6585 91.8347 32.2313C92.872 28.977 94.2718 25.8495 96.0078 22.9079C100.703 15.0893 107.697 8.91013 116.035 5.21368C124.372 1.51724 133.648 0.483614 142.594 2.25388C151.541 4.02415 159.724 8.51203 166.025 15.1051C172.327 21.6981 176.441 30.0751 177.805 39.0927C182.833 36.5595 188.438 35.3902 194.059 35.7018C199.68 36.0134 205.122 37.7949 209.839 40.8683C214.556 43.9418 218.384 48.1995 220.94 53.2159C223.496 58.2323 224.69 63.8317 224.404 69.4545C228.216 69.7871 231.904 70.9748 235.194 72.9293C239.354 75.405 242.731 79.0033 244.939 83.3111C247.147 87.619 248.096 92.462 247.677 97.2846C253.002 101.006 256.723 106.602 258.096 112.951C259.468 119.3 258.391 125.934 255.08 131.523Z" fill="#E6EFFF"/>
<path d="M243.358 96.0715C243.358 96.0715 241.819 78.0227 220.695 79.7499C221.272 68.2443 217.095 55.76 206.49 49.4429C196.678 43.5985 187.189 40.0143 177.713 44.795C175.78 32.146 125.006 1.05476 104.179 46.0433C102.592 49.0558 101.199 52.166 100.007 55.3553C79.088 43.3866 53.5208 46.8057 41.1764 67.5295C36.8998 74.4234 34.6319 82.3741 34.6281 90.4868C29.4148 91.705 24.5779 94.1779 20.5376 97.6904C16.4973 101.203 13.3757 105.649 11.4443 110.642C4.36411 128.102 9.58976 136.027 9.58976 136.027C9.58976 136.027 7.43177 133.476 6.5332 132.091C3.72681 127.784 2.09614 122.817 1.80324 117.684C1.51034 112.551 2.56535 107.431 4.86348 102.832C7.16162 98.2327 10.623 94.3149 14.9037 91.4674C19.1844 88.62 24.1355 86.9419 29.2654 86.5999C25.9151 78.0874 25.2942 68.7439 27.4885 59.8629C29.6828 50.9819 34.5838 43.0028 41.5131 37.0302C48.4423 31.0575 57.057 27.3868 66.1644 26.5262C75.2719 25.6656 84.4215 27.6577 92.3469 32.2267C95.3867 22.7074 101.558 14.4964 109.856 8.92908C118.154 3.36179 128.092 0.76563 138.053 1.56277C148.014 2.35991 157.413 6.5035 164.72 13.3197C172.027 20.1358 176.814 29.2235 178.301 39.1051C183.328 36.5684 188.933 35.3959 194.555 35.7048C200.177 36.0138 205.619 37.7934 210.338 40.8657C215.056 43.9381 218.885 48.1954 221.442 53.2119C223.999 58.2285 225.194 63.8284 224.907 69.4517C231.68 70.0788 237.929 73.3589 242.292 78.5762C246.655 83.7936 248.777 90.5247 248.196 97.301C256.554 103.159 243.358 96.0715 243.358 96.0715Z" fill="white"/>
<path d="M255.708 131.529C252.202 137.395 246.51 141.628 239.883 143.298C233.257 144.968 226.238 143.938 220.371 140.433C219.158 139.674 217.997 138.834 216.896 137.919C216.61 139.31 216.214 140.677 215.709 142.005C215.709 142.022 215.691 142.04 215.691 142.075C214.155 148.43 208.621 154.435 200.764 157.403C195.048 159.691 188.684 159.759 182.92 157.596C178.207 163.755 171.966 168.576 164.815 171.581C164.7 171.648 164.576 171.701 164.448 171.738C162.964 172.401 161.446 173.013 159.857 173.588C159.665 173.658 159.455 173.728 159.245 173.798C157.692 174.339 156.103 174.828 154.462 175.264C154.252 175.334 154.025 175.387 153.815 175.439C152.366 175.823 150.865 176.155 149.363 176.452C149.154 176.487 148.944 176.522 148.752 176.557C147.198 176.854 145.627 177.098 144.021 177.29C143.794 177.325 143.566 177.36 143.322 177.377C141.908 177.552 140.476 177.674 139.027 177.779H138.818C137.054 177.901 135.274 177.953 133.476 177.953C113.869 177.953 96.6709 171.284 87.1207 161.297C81.3727 164.761 74.6257 166.187 67.9677 165.348C55.0649 163.899 45.2008 155.169 44.153 145.043C43.9263 144.396 43.7164 143.733 43.5246 143.07C37.7854 145.609 31.3879 146.26 25.2547 144.929C19.1214 143.598 13.5694 140.353 9.39941 135.663C5.22945 130.972 2.65704 125.079 2.05305 118.832C1.44906 112.585 2.84481 106.308 6.03893 100.905C6.26612 100.521 6.51044 100.137 6.77259 99.7705C6.25953 105.283 7.28901 110.829 9.74628 115.79C12.2036 120.751 15.9918 124.93 20.6876 127.863C24.5929 130.289 29.039 131.709 33.6278 131.995C38.2165 132.282 42.8049 131.426 46.9816 129.504C47.1559 130.167 47.3655 130.831 47.5922 131.477C48.605 141.603 58.1554 150.333 70.6565 151.782C77.1251 152.617 83.683 151.185 89.2156 147.731C98.4517 157.718 115.125 164.387 134.104 164.387C134.593 164.387 135.082 164.387 135.57 164.37H136.094C137.875 164.318 139.621 164.213 141.349 164.056C141.559 164.038 141.768 164.021 141.978 164.004C143.462 163.847 144.946 163.654 146.378 163.427C146.56 163.408 146.74 163.379 146.919 163.34C148.647 163.061 150.341 162.711 151.982 162.31C152.159 162.279 152.334 162.239 152.506 162.188H152.523C154.164 161.786 155.771 161.332 157.325 160.826C157.455 160.787 157.584 160.74 157.709 160.686C158.948 160.285 160.171 159.848 161.358 159.359H161.375C161.462 159.324 161.532 159.289 161.62 159.254C169.742 156.251 176.824 150.964 182.012 144.03C187.584 146.194 193.775 146.125 199.297 143.838C206.909 140.87 212.269 134.864 213.754 128.509C213.754 128.474 213.771 128.456 213.771 128.439C214.256 127.107 214.641 125.742 214.923 124.353C215.985 125.263 217.105 126.103 218.275 126.868C221.09 128.596 224.226 129.739 227.493 130.227C230.761 130.714 234.093 130.537 237.29 129.706C240.488 128.874 243.484 127.405 246.1 125.388C248.716 123.37 250.897 120.844 252.513 117.963C254.661 114.251 255.849 110.063 255.97 105.777C258.207 109.709 259.361 114.164 259.315 118.688C259.269 123.212 258.024 127.643 255.708 131.529Z" fill="#CAD7FF"/>
<path d="M255.816 132.171C252.31 138.037 246.618 142.271 239.991 143.941C233.364 145.61 226.346 144.58 220.479 141.076C219.266 140.316 218.105 139.476 217.004 138.561C216.719 139.953 216.322 141.319 215.817 142.647C215.817 142.664 215.8 142.682 215.8 142.717C214.263 149.072 208.729 155.078 200.872 158.046C195.156 160.333 188.792 160.402 183.028 158.238C174.473 170.25 155.547 178.596 133.584 178.596C113.976 178.596 96.7791 171.926 87.2287 161.939C81.4805 165.403 74.7339 166.83 68.0758 165.99C55.1733 164.541 45.3087 155.811 44.2612 145.685C44.0342 145.039 43.8248 144.375 43.6327 143.712C39.6891 145.485 35.4045 146.372 31.0811 146.309C26.7577 146.247 22.5007 145.237 18.61 143.35C14.7193 141.464 11.2897 138.748 8.56284 135.392C5.836 132.036 3.87836 128.123 2.82784 123.929C1.77732 119.735 1.65947 115.361 2.48271 111.116C3.30594 106.872 5.05024 102.859 7.59251 99.3617C10.1348 95.8642 13.4131 92.9668 17.1967 90.8738C20.9802 88.7809 25.1768 87.5432 29.4906 87.2481C26.137 78.7357 25.5137 69.3911 27.707 60.5086C29.9002 51.6262 34.8014 43.6456 41.7318 37.6724C48.6621 31.6992 57.2784 28.0292 66.3872 27.1705C75.4961 26.3118 84.6465 28.307 92.571 32.8798C93.6083 29.6254 95.0081 26.4979 96.7441 23.5563C101.44 15.7377 108.434 9.55857 116.771 5.86212C125.109 2.16567 134.384 1.13205 143.331 2.90232C152.277 4.67259 160.46 9.16046 166.762 15.7535C173.063 22.3466 177.177 30.7236 178.541 39.7413C183.569 37.208 189.174 36.0386 194.795 36.3502C200.417 36.6618 205.858 38.4434 210.575 41.5169C215.292 44.5903 219.12 48.848 221.676 53.8643C224.232 58.8807 225.427 64.4802 225.14 70.1029C228.953 70.4356 232.641 71.6233 235.93 73.5777C240.09 76.0535 243.468 79.6517 245.676 83.9596C247.884 88.2674 248.833 93.1105 248.414 97.9331C253.738 101.655 257.459 107.251 258.832 113.6C260.205 119.949 259.128 126.582 255.816 132.171Z" stroke="#573811" stroke-width="2.66565" stroke-linecap="round" stroke-linejoin="round"/>
<path d="M161.02 158.761C162.738 161.88 164.676 164.872 166.82 167.715C165.448 165.707 161.8 159.484 161.204 158.571C161.102 158.399 160.931 158.555 161.02 158.761Z" fill="#573811"/>
<path d="M164.816 171.581C164.701 171.648 164.577 171.7 164.449 171.738C163.751 170.673 163.053 169.59 162.354 168.525C160.556 165.784 158.793 163.096 157.326 160.826C156.436 159.446 155.65 158.224 155.039 157.264C154.637 156.67 154.236 156.112 153.887 155.483C153.764 155.326 153.921 155.117 154.043 155.326C154.445 155.972 154.899 156.565 155.353 157.194C155.964 158.137 156.785 159.324 157.71 160.686C158.845 162.362 160.172 164.318 161.534 166.378C161.918 167.006 162.337 167.617 162.721 168.246C163.437 169.363 164.135 170.481 164.816 171.581Z" fill="#573811"/>
<path d="M159.856 173.59C159.665 173.66 159.455 173.73 159.245 173.8C159.208 173.713 159.161 173.631 159.106 173.555C158.564 172.717 158.04 171.879 157.517 171.041C155.666 168.125 153.815 165.227 151.982 162.311C151.197 161.107 150.428 159.902 149.677 158.698C149.503 158.453 149.328 158.174 149.154 157.929C148.141 156.34 147.181 154.717 146.203 153.11C146.046 152.831 146.273 152.639 146.378 152.849C147.39 154.333 148.403 155.851 149.381 157.388C149.66 157.825 149.887 158.226 150.149 158.61C150.778 159.553 151.581 160.775 152.506 162.189H152.523C154.095 164.616 156.05 167.602 158.093 170.814C158.494 171.426 158.878 172.036 159.28 172.682C159.472 172.979 159.665 173.276 159.856 173.59Z" fill="#573811"/>
<path d="M154.462 175.261C154.252 175.331 154.026 175.383 153.816 175.436C153.153 174.353 152.489 173.288 151.825 172.205H151.808C151.302 171.367 150.778 170.529 150.272 169.709C149.067 167.754 147.845 165.798 146.641 163.843C146.553 163.703 146.466 163.563 146.378 163.424C145.593 162.219 144.86 161.049 144.143 159.844L144.109 159.827C141.891 156.283 139.691 152.756 137.561 149.16C137.439 149.02 137.579 148.862 137.683 149.002C140.04 152.529 142.363 156.09 144.65 159.74C145.383 160.927 146.151 162.079 146.867 163.266C146.885 163.284 146.902 163.319 146.92 163.336C147.688 164.576 148.491 165.798 149.224 167.037C150.01 168.33 151.145 170.111 152.436 172.153C153.083 173.131 153.746 174.178 154.462 175.261Z" fill="#573811"/>
<path d="M149.364 176.446C149.155 176.481 148.945 176.516 148.753 176.551C148.299 175.765 147.915 175.101 147.635 174.578C147.077 173.635 146.536 172.692 145.977 171.749C145.453 170.876 144.947 170.003 144.405 169.13C143.358 167.454 142.345 165.76 141.35 164.049C140.687 162.915 140.04 161.762 139.395 160.61C138.539 159.213 137.789 157.747 136.968 156.315C136.95 156.123 137.02 156.018 137.142 156.141C138.068 157.59 138.993 159.074 139.901 160.575C140.617 161.693 141.315 162.845 141.979 163.997C142.886 165.481 143.76 167 144.65 168.519C145.331 169.619 145.977 170.737 146.641 171.871C146.686 171.968 146.738 172.062 146.797 172.151C147.461 173.233 148.369 174.752 149.364 176.446Z" fill="#573811"/>
<path d="M144.022 177.287C143.795 177.322 143.568 177.357 143.323 177.375C142.939 176.816 142.59 176.292 142.31 175.82C139.692 171.333 137.073 166.916 135.571 164.367C135.292 163.896 135.048 163.476 134.838 163.145C134.698 162.883 134.943 162.621 135.1 162.848C135.431 163.355 135.763 163.861 136.095 164.367C138.19 167.58 140.198 170.915 142.241 174.249C142.555 174.825 142.922 175.419 143.271 176.048C143.463 176.327 143.655 176.641 143.83 176.956C143.882 177.042 143.952 177.147 144.022 177.287Z" fill="#573811"/>
<path d="M139.516 178.632C139.568 178.737 139.708 179.016 139.917 179.435C139.603 178.911 139.201 178.352 138.817 177.777H139.027C139.184 178.073 139.341 178.352 139.516 178.632Z" fill="#573811"/>
<path d="M139.028 177.774H138.819C138.037 176.751 137.331 175.671 136.706 174.544C136.431 174.072 136.186 173.582 135.973 173.078C135.798 172.886 135.991 172.607 136.112 172.816C136.514 173.427 136.864 174.09 137.248 174.667C137.841 175.696 138.435 176.744 139.028 177.774Z" fill="#573811"/>
<path d="M127.048 73.4015H121.2V144.775H92.0358V73.4015H86.2266L106.628 52.981L127.048 73.4015Z" fill="#FFDD1D"/>
<g style="mix-blend-mode:multiply" opacity="0.79">
<path d="M127.049 73.4048H121.2V144.778H92.0361V116.189H92.0561C92.2577 116.168 92.4569 116.129 92.6509 116.07C93.5884 115.933 94.5066 115.687 95.3868 115.336C107.837 110.776 117.195 90.6532 117.195 66.4856C117.195 65.4744 117.175 64.4832 117.136 63.4919L127.049 73.4048Z" fill="#FFDD1D"/>
</g>
<path opacity="0.91" d="M108.669 55.0245L92.7888 71.1623H95.3655L95.3851 115.334L95.4065 144.775H92.6502V73.4229H86.8408L86.8603 73.4015L106.945 53.299L107.242 53.0022L108.966 54.726L108.669 55.0245Z" fill="white"/>
<path d="M127.048 73.4015H121.219V144.775H92.0555V73.4015H86.2266L106.628 52.981L127.048 73.4015Z" stroke="#573811" stroke-width="2.31023" stroke-linecap="round" stroke-linejoin="round"/>
<path d="M179.536 85.8113H173.708V144.535H144.524V85.8113H138.695L150.333 74.1535L150.353 74.1339L159.116 65.3906L179.536 85.8113Z" fill="#FFDD1D"/>
<path d="M179.536 85.8113H173.708V144.535H144.524V85.8113H138.695L150.333 74.1535L150.353 74.1339L159.116 65.3906L179.536 85.8113Z" stroke="#573811" stroke-width="2.31023" stroke-linecap="round" stroke-linejoin="round"/>
<path d="M156.182 54.9513H150.334V144.842H121.17V54.9513H115.36L135.762 34.5308L156.182 54.9513Z" fill="#F16468"/>
<g style="mix-blend-mode:multiply" opacity="0.36">
<path d="M156.182 54.9541H150.333V144.844H121.169V97.7383C135.246 95.8548 146.328 74.324 146.328 48.035C146.328 47.0238 146.309 46.0326 146.269 45.0413L156.182 54.9541Z" fill="#ED3D42"/>
</g>
<path opacity="0.91" d="M124.502 52.7299L124.561 144.879H121.785V54.9885H115.976L136.377 34.5679L138.102 36.2934L121.923 52.7299H124.502Z" fill="#FFD4D5"/>
<path d="M156.182 54.9513H150.353V144.842H121.189V54.9513H115.36L135.762 34.5308L156.182 54.9513Z" stroke="#573811" stroke-width="2.31023" stroke-linecap="round" stroke-linejoin="round"/>
<path d="M179.536 86.4124H173.688V144.879H144.505V86.4124H138.695L159.116 65.9917L179.536 86.4124Z" fill="#FFDD1D"/>
<g style="mix-blend-mode:multiply" opacity="0.81">
<path d="M179.538 86.4173H173.689V144.884H144.505V129.201H144.525C144.724 129.162 144.942 129.142 145.14 129.082C146.075 128.936 146.993 128.69 147.876 128.349C160.326 123.789 169.664 103.666 169.664 79.4981C169.664 78.487 169.664 77.4957 169.625 76.5044L179.538 86.4173Z" fill="#FFDD1D"/>
</g>
<path opacity="0.91" d="M161.179 68.0568L145.277 84.1963H147.856L147.875 128.348L147.895 144.882H145.139V86.455H139.329L139.37 86.4159L159.453 66.3329L159.73 66.0344L161.456 67.76L161.179 68.0568Z" fill="white"/>
<path d="M179.536 86.4124H173.708V144.879H144.524V86.4124H138.695L159.116 65.9917L179.536 86.4124Z" stroke="#573811" stroke-width="2.31023" stroke-linecap="round" stroke-linejoin="round"/>
<path d="M95.5499 144.809C111.872 144.809 125.104 131.56 125.104 115.216C125.104 98.8718 111.872 85.6223 95.5499 85.6223C79.2277 85.6223 65.9961 98.8718 65.9961 115.216C65.9961 131.56 79.2277 144.809 95.5499 144.809Z" fill="#F7BF00"/>
<g style="mix-blend-mode:screen" opacity="0.29">
<path d="M121.958 104.317C121.931 104.25 121.904 104.186 121.875 104.119C119.296 98.1496 114.774 93.2275 109.044 90.1529C103.314 87.0783 96.7129 86.0319 90.3129 87.1839C89.9426 87.2502 89.5756 87.3233 89.2122 87.4032C88.3018 87.6056 87.408 87.8488 86.5305 88.1328C86.4184 88.1702 86.3078 88.2077 86.1957 88.2451C85.9732 88.3199 85.7525 88.3981 85.5317 88.4781C85.4213 88.5189 85.3109 88.5613 85.2005 88.6022C84.9814 88.6855 84.7641 88.7706 84.5484 88.859L84.5464 88.8607C84.222 88.9934 83.8994 89.1312 83.5817 89.2757C83.3694 89.3727 83.1572 89.4713 82.9466 89.5734C82.6324 89.7247 82.321 89.8817 82.0124 90.0444C81.7034 90.206 81.3988 90.3738 81.0987 90.5478L81.097 90.5497C80.6962 90.7809 80.3004 91.0223 79.9115 91.2707L79.9097 91.2725C79.7875 91.3507 79.6668 91.4306 79.5462 91.5088C79.305 91.6687 79.0673 91.832 78.8329 91.9986C78.7157 92.082 78.5985 92.1654 78.4813 92.2504C78.3878 92.3201 78.2944 92.3881 78.201 92.4579C77.094 93.2886 76.0475 94.1967 75.0691 95.1756C73.5673 96.6784 72.2356 98.342 71.0982 100.136C70.9997 100.293 70.9011 100.453 70.8043 100.613C70.5411 101.043 70.2903 101.481 70.052 101.927C69.962 102.096 69.8736 102.266 69.7854 102.438C69.5731 102.853 69.3692 103.273 69.1773 103.699C69.0958 103.88 69.016 104.062 68.9396 104.245C68.8784 104.385 68.819 104.526 68.7612 104.667C68.6746 104.883 68.588 105.101 68.5048 105.32C68.4216 105.54 68.34 105.761 68.2619 105.984C68.1939 106.177 68.1277 106.373 68.0632 106.569C68.041 106.633 68.0207 106.696 68.002 106.761C67.6944 107.72 67.4381 108.695 67.2343 109.681C67.2241 109.729 67.2139 109.776 67.2054 109.825C67.1324 110.189 67.0644 110.555 67.0067 110.924C66.4667 114.274 66.5151 117.692 67.1494 121.025C67.1715 121.142 67.1953 121.259 67.2191 121.377C67.4093 122.3 67.6414 123.209 67.9154 124.099C67.9545 124.225 67.9953 124.353 68.036 124.479C68.2891 125.263 68.576 126.034 68.897 126.79V126.792C69.1263 127.331 69.3698 127.861 69.6274 128.382C69.7837 128.695 69.9446 129.005 70.1099 129.312C70.2203 129.516 70.3339 129.719 70.4494 129.921C70.5071 130.021 70.5668 130.122 70.6262 130.222C70.8028 130.521 70.9845 130.816 71.1713 131.108C71.2325 131.207 71.2953 131.304 71.3598 131.401C71.5518 131.69 71.7471 131.977 71.9475 132.259C72.2804 132.731 72.6302 133.191 72.992 133.64C73.1364 133.821 73.2842 133.999 73.432 134.174C73.5441 134.307 73.6562 134.438 73.7717 134.567C73.86 134.671 73.9516 134.773 74.0433 134.875C74.1435 134.987 74.2454 135.1 74.3489 135.21C74.8194 135.717 75.3081 136.206 75.8147 136.678C75.9251 136.782 76.0372 136.884 76.1492 136.984C76.2512 137.076 76.3532 137.168 76.4569 137.258C76.5859 137.372 76.7166 137.484 76.8491 137.596C77.024 137.744 77.2025 137.892 77.3825 138.037C77.8309 138.399 78.2911 138.749 78.7615 139.083C79.0434 139.283 79.3305 139.479 79.6193 139.671C79.7161 139.736 79.813 139.799 79.9115 139.86C80.2036 140.047 80.4974 140.229 80.7963 140.406C80.8965 140.465 80.9968 140.525 81.097 140.583C81.2991 140.698 81.501 140.812 81.7048 140.923C82.0122 141.088 82.322 141.249 82.634 141.406C83.1537 141.664 83.6831 141.908 84.2221 142.137C84.4225 142.222 84.6246 142.304 84.8267 142.385C85.005 142.457 85.1851 142.527 85.3668 142.593C85.7489 142.737 86.1396 142.872 86.5302 142.999H86.5322C86.6579 143.04 86.7853 143.081 86.911 143.12C87.7992 143.394 88.7051 143.626 89.6285 143.817C89.7456 143.841 89.8644 143.865 89.9816 143.887C93.3099 144.522 96.7237 144.571 100.069 144.03C100.437 143.972 100.802 143.904 101.166 143.831C101.215 143.822 101.263 143.812 101.31 143.802C102.295 143.598 103.269 143.341 104.227 143.033C104.291 143.014 104.354 142.994 104.418 142.972C104.614 142.907 104.809 142.841 105.003 142.773C105.225 142.695 105.446 142.613 105.665 142.53C105.884 142.446 106.101 142.36 106.317 142.273C106.458 142.215 106.599 142.156 106.738 142.094C106.922 142.018 107.104 141.938 107.284 141.856C107.71 141.664 108.13 141.46 108.544 141.247C108.715 141.159 108.885 141.071 109.053 140.98C109.396 140.795 109.734 140.605 110.069 140.406C110.164 140.349 110.258 140.293 110.351 140.235L110.366 140.227C110.526 140.13 110.686 140.031 110.842 139.933C113.807 138.046 116.406 135.636 118.51 132.82C118.636 132.652 118.76 132.48 118.884 132.309C119.164 131.917 119.434 131.517 119.694 131.11L119.696 131.108C119.944 130.718 120.185 130.322 120.416 129.921L120.418 129.919C120.591 129.618 120.759 129.313 120.921 129.004C121.084 128.695 121.24 128.383 121.391 128.069C121.493 127.858 121.591 127.645 121.688 127.433C121.833 127.115 121.97 126.791 122.103 126.467L122.105 126.465C122.193 126.249 122.278 126.031 122.361 125.812C122.402 125.701 122.444 125.591 122.485 125.48C122.565 125.259 122.643 125.038 122.718 124.815C122.755 124.703 122.792 124.592 122.83 124.48C123.113 123.603 123.356 122.707 123.558 121.795C123.638 121.431 123.711 121.063 123.777 120.693C124.767 115.173 124.135 109.485 121.958 104.317ZM112.06 124.859L113.355 126.273C111.349 129.631 108.445 132.362 104.969 134.157L104.276 133.375L112.06 124.859Z" fill="#FFC500"/>
</g>
<g style="mix-blend-mode:multiply" opacity="0.99">
<path d="M125.1 115.08C125.101 116.849 124.944 118.616 124.632 120.358C124.564 120.74 124.488 121.118 124.406 121.492C124.198 122.431 123.948 123.352 123.656 124.257C123.618 124.372 123.579 124.486 123.541 124.602C123.464 124.831 123.383 125.059 123.301 125.286C123.259 125.4 123.216 125.514 123.174 125.628C123.088 125.853 123 126.078 122.91 126.3L122.908 126.302C122.771 126.636 122.63 126.969 122.481 127.296C122.382 127.515 122.28 127.734 122.175 127.951C122.02 128.275 121.858 128.596 121.691 128.914C121.525 129.232 121.352 129.546 121.173 129.856L121.172 129.857C120.934 130.27 120.686 130.678 120.43 131.079L120.429 131.081C120.161 131.5 119.883 131.91 119.595 132.314C119.467 132.49 119.339 132.669 119.21 132.842C117.044 135.74 114.369 138.221 111.316 140.164C111.155 140.265 110.991 140.367 110.827 140.467L110.812 140.475C110.716 140.535 110.618 140.593 110.52 140.65C110.176 140.855 109.828 141.051 109.475 141.242C109.302 141.335 109.127 141.426 108.95 141.517C108.524 141.736 108.092 141.946 107.653 142.144C107.468 142.228 107.281 142.31 107.092 142.389C106.948 142.452 106.804 142.513 106.658 142.573C106.436 142.662 106.213 142.751 105.987 142.837C105.761 142.923 105.534 143.007 105.305 143.087C105.106 143.158 104.905 143.226 104.704 143.292C104.637 143.315 104.572 143.336 104.506 143.355C103.52 143.672 102.518 143.937 101.504 144.147C101.455 144.157 101.406 144.168 101.356 144.176C100.981 144.252 100.605 144.322 100.226 144.381C96.7827 144.938 93.2685 144.888 89.8424 144.234C89.7217 144.211 89.6012 144.187 89.4805 144.162C88.5312 143.966 87.597 143.727 86.6815 143.445C86.5521 143.404 86.4208 143.362 86.2914 143.32C85.8893 143.189 85.4872 143.051 85.0938 142.902C85.1785 142.908 103.39 145.996 114.544 134.218C118.311 130.27 121.051 125.458 122.524 120.203C123.996 114.949 124.156 109.413 122.989 104.083C122.989 104.083 123.756 106.158 124.026 107.134C124.741 109.722 125.102 112.395 125.1 115.08Z" fill="#FFC500"/>
</g>
<g style="mix-blend-mode:screen" opacity="0.92">
<path d="M116.014 95.0706L75.2896 135.849C78.0417 138.589 81.3191 140.745 84.9252 142.186L117.313 109.755L122.424 104.58C120.954 101.009 118.773 97.7735 116.014 95.0706Z" fill="#FFC500"/>
</g>
<g style="mix-blend-mode:screen">
<path d="M112.06 92.0237L71.9268 132.21C72.3946 132.871 72.8882 133.512 73.4075 134.131L76.6311 130.904L113.979 93.5064C113.681 93.2556 113.366 93.0012 112.06 92.0237Z" fill="#FFEB85"/>
</g>
<g style="mix-blend-mode:multiply" opacity="0.39">
<path d="M76.7045 137.076C76.3249 137.385 70.1749 132.066 67.6225 123.915C64.4135 113.667 68.6997 103.597 69.1796 103.701C69.6257 103.797 66.6989 112.642 69.6862 123.06C72.1189 131.543 77.0644 136.784 76.7045 137.076Z" fill="#FFC500"/>
</g>
<g style="mix-blend-mode:screen" opacity="0.41">
<path d="M123.507 121.985C121.618 126.917 118.714 131.396 114.982 135.133C111.25 138.87 106.774 141.78 101.845 143.676C107.129 142.461 111.964 139.782 115.796 135.946C119.627 132.109 122.3 127.271 123.507 121.985Z" fill="#FFC500"/>
</g>
<g style="mix-blend-mode:screen" opacity="0.65">
<path d="M81.2919 90.4511C78.3975 92.1733 75.799 94.35 73.596 96.8977C70.2004 100.457 67.9715 104.968 67.207 109.828C66.8098 111.997 66.6221 114.2 66.6467 116.405C67.0711 113.508 67.9072 110.687 69.1294 108.026C71.2344 103.702 73.7423 101.356 77.9759 97.419C90.1175 86.127 97.5257 88.8249 97.5465 87.3613C97.5673 85.8977 90.2329 87.085 88.1517 87.6637C85.7665 88.329 83.4651 89.2642 81.2919 90.4511Z" fill="#FFDC66"/>
</g>
<g style="mix-blend-mode:soft-light">
<path d="M96.0005 136.993C107.525 136.993 116.868 127.638 116.868 116.098C116.868 104.558 107.525 95.2034 96.0005 95.2034C84.4759 95.2034 75.1333 104.558 75.1333 116.098C75.1333 127.638 84.4759 136.993 96.0005 136.993Z" fill="white"/>
</g>
<g style="mix-blend-mode:lighten" opacity="0.57">
<path d="M94.5511 136.903C106.076 136.903 115.418 127.548 115.418 116.008C115.418 104.468 106.076 95.1128 94.5511 95.1128C83.0265 95.1128 73.6841 104.468 73.6841 116.008C73.6841 127.548 83.0265 136.903 94.5511 136.903Z" fill="white"/>
</g>
<g style="mix-blend-mode:multiply" opacity="0.85">
<path d="M96.2859 135.855C107.811 135.855 117.153 126.5 117.153 114.96C117.153 103.42 107.811 94.0654 96.2859 94.0654C84.7613 94.0654 75.4189 103.42 75.4189 114.96C75.4189 126.5 84.7613 135.855 96.2859 135.855Z" fill="#FFC500"/>
</g>
<g style="mix-blend-mode:multiply">
<path d="M94.8182 135.888C106.343 135.888 115.685 126.533 115.685 114.993C115.685 103.453 106.343 94.0977 94.8182 94.0977C83.2936 94.0977 73.9512 103.453 73.9512 114.993C73.9512 126.533 83.2936 135.888 94.8182 135.888Z" fill="#F7BF00"/>
</g>
<path d="M95.4341 136.456C106.959 136.456 116.301 127.101 116.301 115.561C116.301 104.021 106.959 94.6665 95.4341 94.6665C83.9095 94.6665 74.5669 104.021 74.5669 115.561C74.5669 127.101 83.9095 136.456 95.4341 136.456Z" fill="#FEB724"/>
<g style="mix-blend-mode:screen" opacity="0.29">
<path d="M116.3 115.564C116.302 120.503 114.556 125.282 111.369 129.055C108.182 132.828 103.762 135.349 98.8925 136.172C98.8076 136.187 98.7227 136.201 98.6361 136.214C95.0443 136.769 91.3699 136.377 87.9761 135.077C84.5824 133.776 81.5867 131.612 79.2856 128.799C79.8266 127.647 80.4925 126.558 81.2712 125.551C83.7475 122.389 88.8191 119.94 98.9639 115.042C106.33 111.486 109.012 110.694 109.892 107.921C111.074 104.194 107.95 100.178 106.036 97.5642C108.89 99.2511 111.302 101.593 113.072 104.397C114.842 107.2 115.919 110.385 116.215 113.687C116.244 113.984 116.264 114.285 116.278 114.588C116.293 114.911 116.3 115.238 116.3 115.564Z" fill="#FFC500"/>
</g>
<g style="mix-blend-mode:multiply">
<path d="M116.301 115.572C116.303 120.51 114.557 125.289 111.37 129.062C108.183 132.835 103.763 135.356 98.8935 136.179C98.8086 136.194 98.7237 136.208 98.6371 136.221C95.7937 136.659 92.8905 136.504 90.1096 135.767C87.3286 135.031 84.7297 133.727 82.4758 131.939C80.2219 130.152 78.3616 127.918 77.0113 125.377C75.661 122.837 74.8499 120.045 74.6287 117.177C74.4076 114.308 74.7811 111.425 75.726 108.708C76.6709 105.991 78.167 103.498 80.1201 101.385C82.0733 99.2732 84.4415 97.587 87.0767 96.4326C89.7118 95.2782 92.5568 94.6805 95.4337 94.6768C100.648 94.676 105.673 96.6278 109.519 100.148C113.366 103.668 115.755 108.5 116.216 113.694C116.245 113.992 116.265 114.293 116.279 114.595C116.294 114.918 116.301 115.245 116.301 115.572Z" fill="#F09C00"/>
</g>
<mask id="mask0_142_3" style="mask-type:luminance" maskUnits="userSpaceOnUse" x="74" y="94" width="43" height="43">
<path d="M95.4346 136.463C106.959 136.463 116.302 127.108 116.302 115.568C116.302 104.028 106.959 94.6729 95.4346 94.6729C83.91 94.6729 74.5674 104.028 74.5674 115.568C74.5674 127.108 83.91 136.463 95.4346 136.463Z" fill="white"/>
</mask>
<g mask="url(#mask0_142_3)">
<g style="mix-blend-mode:screen" opacity="0.29">
<path d="M115.685 127.21C116.824 124.98 116.3 116.15 116.3 115.562C116.3 115.236 116.293 114.909 116.277 114.586C116.264 114.284 116.244 113.982 116.215 113.685C116.095 112.315 115.838 110.961 115.449 109.642C114.012 110.593 112.797 111.842 111.886 113.304C109.263 117.579 105.72 124.472 99.8317 124.506C96.8068 124.525 89.6072 124.66 84.7394 129.197C83.846 129.985 83.0547 130.882 82.3838 131.867C84.6434 133.679 87.255 135 90.0529 135.749C92.8509 136.497 95.7738 136.655 98.636 136.212C98.7226 136.199 98.8075 136.185 98.8924 136.17C102.957 135.492 114.402 129.722 115.685 127.21Z" fill="#FFC500"/>
</g>
</g>
<g style="mix-blend-mode:multiply" opacity="0.6">
<path d="M75.6998 116.703C75.6925 112.641 76.8715 108.666 79.0918 105.265C81.312 101.863 84.4771 99.1842 88.1985 97.5563C91.9199 95.9285 96.0357 95.4227 100.041 96.1011C104.045 96.7794 107.765 98.6124 110.743 101.375C108.832 99.3173 106.526 97.6663 103.963 96.5206C101.399 95.3749 98.631 94.7581 95.8236 94.7071C93.0163 94.656 90.2277 95.1718 87.6243 96.2235C85.0209 97.2753 82.6564 98.8414 80.6723 100.828C78.6882 102.815 77.1253 105.181 76.0771 107.786C75.0288 110.391 74.5166 113.18 74.5714 115.988C74.6261 118.795 75.2466 121.562 76.3957 124.124C77.5448 126.686 79.199 128.99 81.2591 130.898C77.6792 127.039 75.6929 121.967 75.6998 116.703Z" fill="#FFC500"/>
</g>
<g style="mix-blend-mode:multiply" opacity="0.35">
<path d="M115.153 114.417C115.161 118.479 113.982 122.455 111.762 125.856C109.541 129.257 106.376 131.936 102.655 133.564C98.9335 135.192 94.8177 135.698 90.8129 135.019C86.8081 134.341 83.0886 132.508 80.1108 129.746C82.0214 131.803 84.3274 133.454 86.8908 134.6C89.4542 135.745 92.2225 136.362 95.0298 136.413C97.8372 136.464 100.626 135.949 103.229 134.897C105.833 133.845 108.197 132.279 110.181 130.292C112.165 128.306 113.728 125.939 114.776 123.334C115.825 120.729 116.337 117.94 116.282 115.133C116.227 112.325 115.607 109.558 114.458 106.996C113.309 104.434 111.654 102.13 109.594 100.223C113.174 104.082 115.16 109.153 115.153 114.417Z" fill="#FFC500"/>
</g>
<g style="mix-blend-mode:soft-light">
<path d="M95.5467 87.2937C103.291 87.2996 110.723 90.3435 116.247 95.7711C121.771 101.199 124.944 108.577 125.086 116.32C125.09 116.13 125.1 115.943 125.1 115.753C125.106 111.868 124.345 108.021 122.862 104.43C121.379 100.84 119.203 97.5777 116.458 94.8291C113.714 92.0806 110.454 89.9 106.865 88.4123C103.277 86.9246 99.4309 86.1589 95.5465 86.1589C91.6621 86.1589 87.8157 86.9246 84.2275 88.4123C80.6392 89.9 77.3796 92.0806 74.6348 94.8291C71.8899 97.5777 69.7137 100.84 68.2308 104.43C66.7479 108.021 65.9875 111.868 65.9927 115.753C65.9927 115.943 66.0032 116.13 66.0068 116.32C66.1485 108.577 69.3224 101.199 74.8461 95.7711C80.3698 90.3435 87.8026 87.2996 95.5467 87.2937Z" fill="white"/>
</g>
<path d="M76.1974 94.3746C82.2168 88.6475 88.2572 88.3779 88.4984 88.8746C88.7391 89.3701 82.1373 92.0554 77.8586 96.2418C73.58 100.428 70.6901 104.919 70.083 104.553C69.4759 104.188 70.178 100.102 76.1974 94.3746Z" fill="white"/>
<g style="mix-blend-mode:screen">
<path d="M108.005 134.523C116.932 127.945 116.909 120.492 116.503 120.486C116.118 120.48 114.766 127.851 107.474 133.126C107.126 133.377 105.324 134.137 105.725 134.903C106.126 135.67 107.75 134.711 108.005 134.523Z" fill="white"/>
</g>
<path d="M104.729 135.536C104.905 136.055 103.75 136.916 102.15 137.46C100.551 138.003 99.111 138.022 98.9351 137.503C98.7593 136.984 100.04 136.73 101.64 136.186C103.239 135.643 104.553 135.016 104.729 135.536Z" fill="white"/>
<g style="mix-blend-mode:screen" opacity="0.29">
<path d="M95.4335 86.728C93.717 86.7276 92.0041 86.8795 90.3146 87.1821C89.9443 87.2484 89.5773 87.3216 89.2139 87.4015C88.3035 87.6039 87.4097 87.8471 86.5322 88.1311C86.4201 88.1685 86.3095 88.2059 86.1974 88.2433C85.9749 88.3181 85.7542 88.3963 85.5334 88.4763C85.423 88.5171 85.3126 88.5596 85.2022 88.6005C84.9831 88.6838 84.7658 88.7706 84.5501 88.8573L84.5481 88.859C84.2237 88.9917 83.9027 89.1312 83.5834 89.274C83.3711 89.371 83.1588 89.4696 82.9482 89.5717C82.6341 89.723 82.3227 89.88 82.0141 90.0427C81.7067 90.206 81.4028 90.3727 81.1004 90.5461L81.0987 90.548C80.6979 90.7793 80.3021 91.0207 79.9132 91.269L79.9114 91.2708C79.7891 91.349 79.6685 91.4289 79.5479 91.5071C79.3067 91.6687 79.0707 91.832 78.8346 91.997C78.7174 92.0803 78.6001 92.1636 78.4829 92.2486C78.3895 92.3183 78.2961 92.3864 78.2027 92.4562C77.0957 93.2869 76.0492 94.1949 75.0708 95.1738C73.569 96.6765 72.2373 98.3403 71.0999 100.135C71.0014 100.291 70.9028 100.451 70.806 100.611C70.5427 101.041 70.292 101.48 70.0537 101.926C69.9637 102.094 69.8753 102.264 69.7871 102.436C69.5747 102.851 69.3709 103.271 69.179 103.698C69.0975 103.878 69.0177 104.06 68.9412 104.244C68.8801 104.383 68.8207 104.524 68.7629 104.665C68.6763 104.881 68.5897 105.099 68.5065 105.319C68.4233 105.538 68.3417 105.759 68.2635 105.982C68.1956 106.176 68.1294 106.371 68.0648 106.567C68.0427 106.631 68.0224 106.694 68.0037 106.759C67.6961 107.718 67.4398 108.693 67.2359 109.679C67.2258 109.727 67.2156 109.774 67.2071 109.824C67.1341 110.188 67.0661 110.553 67.0084 110.922C66.4661 114.272 66.5145 117.69 67.1511 121.023C67.1732 121.14 67.197 121.257 67.2208 121.375V121.377C67.4093 122.3 67.6414 123.207 67.9171 124.098C67.9562 124.224 67.997 124.351 68.0377 124.477C68.2908 125.261 68.5777 126.033 68.8987 126.788C69.1263 127.327 69.3698 127.859 69.6291 128.38C69.7837 128.695 69.9445 129.005 70.1116 129.31C70.222 129.514 70.3356 129.717 70.4511 129.919C70.5088 130.02 70.5685 130.12 70.6279 130.22C70.8028 130.52 70.9845 130.815 71.173 131.106C71.2342 131.205 71.297 131.302 71.3615 131.399C71.5518 131.69 71.7477 131.976 71.9492 132.258C72.2821 132.729 72.6319 133.19 72.9937 133.639C73.1381 133.819 73.2859 133.997 73.4337 134.173C73.5458 134.305 73.6579 134.436 73.7734 134.565C73.8617 134.669 73.9533 134.771 74.045 134.873C74.1452 134.986 74.2471 135.098 74.3506 135.208C74.8211 135.715 75.3097 136.204 75.8164 136.676C75.9268 136.78 76.0389 136.882 76.1509 136.982C76.2529 137.074 76.3549 137.166 76.4585 137.256C76.5876 137.37 76.7183 137.482 76.8508 137.594C77.0257 137.742 77.2042 137.89 77.3842 138.035C77.8326 138.397 78.2927 138.748 78.7632 139.081C79.0452 139.283 79.3311 139.479 79.621 139.669C79.7177 139.734 79.8146 139.797 79.9132 139.858C80.2036 140.047 80.4985 140.229 80.798 140.404C80.8982 140.464 80.9985 140.523 81.0987 140.581C81.3008 140.697 81.5027 140.81 81.7065 140.921C82.0122 141.088 82.3219 141.249 82.6356 141.404C83.1554 141.664 83.6848 141.908 84.2238 142.135C84.9779 142.455 85.7484 142.742 86.5319 142.998C86.6576 143.038 86.7868 143.079 86.9124 143.118C87.8007 143.394 88.7065 143.626 89.6299 143.816C89.7471 143.839 89.8661 143.863 89.9833 143.885C93.3114 144.523 96.7256 144.571 100.07 144.028C100.439 143.97 100.804 143.902 101.168 143.829C101.217 143.821 101.264 143.81 101.312 143.8C102.297 143.596 103.27 143.34 104.228 143.032C104.293 143.013 104.356 142.992 104.42 142.97C104.615 142.906 104.811 142.839 105.004 142.771C105.227 142.693 105.448 142.611 105.667 142.528C105.886 142.445 106.103 142.358 106.319 142.271C106.46 142.213 106.601 142.154 106.74 142.093C106.924 142.016 107.105 141.936 107.285 141.855C107.712 141.662 108.131 141.458 108.545 141.246C108.717 141.157 108.887 141.069 109.055 140.979C109.398 140.793 109.736 140.603 110.071 140.404C110.166 140.348 110.259 140.292 110.353 140.234L110.368 140.225C110.528 140.128 110.687 140.03 110.844 139.931C113.809 138.044 116.408 135.634 118.512 132.819C118.638 132.65 118.762 132.479 118.886 132.307C119.166 131.916 119.436 131.515 119.696 131.108L119.698 131.106C119.946 130.717 120.187 130.32 120.418 129.919L120.42 129.917C120.593 129.615 120.759 129.31 120.922 129.002C121.085 128.693 121.242 128.381 121.393 128.067C121.495 127.856 121.593 127.644 121.69 127.431C121.833 127.111 121.972 126.79 122.104 126.465L122.106 126.463C122.193 126.247 122.279 126.03 122.363 125.81C122.403 125.7 122.446 125.589 122.486 125.478C122.566 125.257 122.645 125.036 122.719 124.813C122.757 124.701 122.794 124.591 122.831 124.478C123.115 123.601 123.358 122.706 123.56 121.793C123.64 121.429 123.713 121.062 123.779 120.691C124.081 118.999 124.233 117.284 124.233 115.565C124.235 111.781 123.492 108.033 122.047 104.535C120.601 101.038 118.48 97.8595 115.806 95.1817C113.131 92.5039 109.956 90.3792 106.461 88.9287C102.965 87.4782 99.218 86.7304 95.4335 86.728ZM104.97 134.155C100.491 136.462 95.3288 137.072 90.435 135.874C85.5411 134.675 81.2452 131.749 78.3382 127.634C75.4313 123.518 74.1089 118.491 74.6151 113.479C75.1212 108.466 77.4217 103.804 81.0926 100.353C84.7636 96.9023 89.5578 94.8939 94.5924 94.698C99.627 94.502 104.563 96.1318 108.491 99.2871C112.419 102.442 115.075 106.911 115.969 111.869C116.863 116.828 115.936 121.942 113.357 126.271C111.351 129.629 108.446 132.36 104.97 134.155Z" fill="#FFC500"/>
</g>
<g style="mix-blend-mode:screen" opacity="0.65">
<path d="M93.8847 136.409C97.5646 136.724 101.26 136.016 104.562 134.362C114.96 128.841 117.153 115.573 117.153 115.573C117.153 115.573 120.684 129.86 106.006 138.268C101.292 140.95 96.0884 142.659 90.7023 143.294C89.6698 143.398 87.8853 143.407 87.8853 143.407L93.8847 136.409Z" fill="#FFDC66"/>
</g>
<path d="M125.216 115.09V115.753C125.216 115.911 125.2 116.053 125.2 116.21V116.321C125.203 116.358 125.197 116.396 125.184 116.431C125.169 116.794 125.153 117.157 125.121 117.504C125.103 117.646 125.092 117.788 125.09 117.931C125.042 118.325 124.995 118.704 124.948 119.083C124.885 119.509 124.821 119.951 124.742 120.377C124.679 120.755 124.6 121.134 124.521 121.513L124.515 121.535C122.882 129.163 118.298 135.834 111.763 140.093C105.228 144.353 97.2734 145.854 89.6357 144.269C89.5753 144.257 89.5185 144.245 89.4561 144.237C89.422 144.23 89.3889 144.219 89.3548 144.211C88.5603 144.041 87.7786 143.839 87.0095 143.605C86.8904 143.57 86.7652 143.548 86.647 143.512C86.5208 143.48 86.3947 143.433 86.2527 143.385C85.8739 143.259 85.4636 143.117 85.0691 142.975H85.0533C79.5373 140.886 74.7696 137.2 71.3597 132.387C67.9498 127.575 66.0527 121.854 65.9108 115.958C65.8977 116.078 65.8926 116.2 65.8952 116.321C65.8952 116.132 65.8794 115.942 65.8794 115.753C65.8794 115.579 65.8795 115.39 65.8952 115.216C65.8952 114.853 65.9108 114.506 65.9108 114.143C66.1593 107.326 68.7501 100.803 73.2464 95.6735C77.7427 90.5437 83.8697 87.1205 90.5952 85.9807C97.3207 84.841 104.234 86.0543 110.169 89.4163C116.104 92.7783 120.7 98.0833 123.18 104.438C123.15 104.345 123.129 104.25 123.117 104.154C123.275 104.564 123.89 106.268 124.127 107.121C124.502 108.471 124.779 109.847 124.957 111.237L124.958 111.243C125.061 112.032 125.144 112.828 125.184 113.638C125.2 114.112 125.216 114.601 125.216 115.09Z" stroke="#573811" stroke-width="2.31023" stroke-linecap="round" stroke-linejoin="round"/>
<path d="M116.484 115.125V115.592C116.484 115.704 116.473 115.804 116.473 115.915V115.993C116.474 116.02 116.471 116.046 116.461 116.071C116.45 116.327 116.439 116.584 116.417 116.829C116.404 116.928 116.397 117.029 116.395 117.129C116.361 117.408 116.328 117.675 116.295 117.942C116.25 118.243 116.206 118.555 116.15 118.855C116.105 119.123 116.05 119.39 115.994 119.657L115.99 119.673C114.837 125.055 111.602 129.764 106.99 132.769C102.379 135.775 96.7653 136.834 91.3755 135.715C91.3329 135.707 91.2929 135.699 91.2488 135.693C91.2248 135.688 91.2015 135.68 91.1775 135.675C90.6168 135.555 90.0652 135.412 89.5225 135.247C89.4384 135.223 89.3503 135.207 89.2667 135.181C89.1776 135.159 89.0884 135.126 88.9882 135.092C88.7209 135.003 88.4314 134.903 88.153 134.803H88.1419C84.2495 133.329 80.8848 130.727 78.4786 127.331C76.0723 123.935 74.7335 119.898 74.6335 115.737C74.6242 115.822 74.6205 115.908 74.6224 115.993C74.6224 115.86 74.6113 115.726 74.6113 115.592C74.6113 115.47 74.6113 115.336 74.6224 115.214C74.6224 114.958 74.6335 114.713 74.6335 114.457C74.8088 109.646 76.6369 105.043 79.8099 101.423C82.9828 97.8029 87.3067 95.3872 92.0528 94.5828C96.7989 93.7785 101.677 94.6348 105.866 97.0073C110.054 99.3797 113.297 103.124 115.047 107.608C115.026 107.542 115.011 107.475 115.003 107.407C115.114 107.697 115.548 108.9 115.715 109.501C115.98 110.454 116.175 111.425 116.301 112.406L116.302 112.41C116.375 112.967 116.434 113.528 116.462 114.1C116.473 114.434 116.484 114.78 116.484 115.125Z" stroke="#573811" stroke-width="2.31023" stroke-linecap="round" stroke-linejoin="round"/>
<g style="mix-blend-mode:multiply" opacity="0.32">
<path d="M104.329 116.636C103.839 115.859 103.168 115.214 102.374 114.754C101.582 114.303 100.742 113.941 99.8701 113.675C99.3766 113.529 98.8651 113.383 98.3533 113.255V108.723C98.6822 108.777 99.0293 108.851 99.3766 108.942C100.304 109.208 101.194 109.588 102.027 110.075L102.703 110.495L104.421 106.292L103.946 105.981C102.915 105.329 101.785 104.848 100.601 104.556C99.8623 104.369 99.1112 104.234 98.3533 104.154V100.882H94.6067V104.209C93.675 104.333 92.7649 104.585 91.902 104.958C90.6921 105.476 89.6578 106.333 88.9231 107.425C88.2573 108.433 87.9072 109.616 87.9179 110.824C87.8767 111.888 88.1432 112.942 88.6856 113.858C89.1645 114.648 89.8376 115.303 90.641 115.759C91.4325 116.216 92.2723 116.583 93.1448 116.855C93.62 117.001 94.1132 117.148 94.6067 117.276V121.735C93.9686 121.622 93.3397 121.463 92.7244 121.26C91.7079 120.911 90.7522 120.405 89.8917 119.761L89.2155 119.213L87.333 123.434L87.7352 123.763C88.8344 124.621 90.0875 125.26 91.4269 125.646C92.4635 125.962 93.5286 126.176 94.6069 126.285V129.557H98.3533V126.212C99.3002 126.105 100.225 125.852 101.095 125.463C102.311 124.957 103.353 124.105 104.092 123.014C104.745 122.007 105.094 120.833 105.097 119.633C105.134 118.581 104.867 117.541 104.329 116.636ZM94.6067 112.268C94.1853 112.131 93.7943 111.914 93.4552 111.628C93.3131 111.512 93.2008 111.363 93.1277 111.195C93.0546 111.026 93.0229 110.843 93.035 110.66C93.0349 110.304 93.1502 109.958 93.3639 109.673C93.6526 109.318 94.0408 109.057 94.4787 108.924C94.5153 108.905 94.5701 108.887 94.6067 108.869V112.268ZM99.6872 120.821C99.3766 121.16 98.9782 121.407 98.536 121.534C98.4799 121.569 98.4182 121.594 98.3533 121.607V118.244C98.799 118.394 99.2138 118.623 99.5777 118.92C99.7199 119.037 99.8321 119.185 99.9052 119.354C99.9784 119.522 100.01 119.706 99.9981 119.889C100.007 120.227 99.8973 120.557 99.6872 120.821Z" fill="#B06A00"/>
</g>
<path d="M102.995 116.636C102.921 116.526 102.848 116.416 102.775 116.325C102.316 115.683 101.724 115.147 101.039 114.753C100.247 114.302 99.407 113.941 98.5351 113.675C98.0416 113.529 97.5301 113.382 97.0183 113.254V108.722C97.3473 108.777 97.6944 108.85 98.0416 108.941C98.6695 109.128 99.2809 109.366 99.8693 109.654H99.8875C100.162 109.782 100.417 109.928 100.692 110.074L101.368 110.495L103.086 106.291L102.611 105.981C102.104 105.647 101.566 105.365 101.002 105.14C100.438 104.904 99.858 104.709 99.2662 104.555C98.7128 104.417 98.1512 104.313 97.5848 104.245C97.3989 104.198 97.2095 104.167 97.0183 104.153V100.882H93.2717V104.208C92.34 104.332 91.4299 104.585 90.567 104.957C89.3572 105.476 88.3228 106.332 87.5881 107.424C86.9223 108.432 86.5723 109.616 86.5829 110.824C86.5417 111.888 86.8083 112.941 87.3506 113.858C87.4989 114.099 87.6701 114.325 87.8621 114.534C88.1096 114.864 88.4126 115.148 88.7576 115.374C88.9271 115.52 89.1108 115.649 89.306 115.758C89.5801 115.904 89.8543 116.069 90.1466 116.197C90.6841 116.457 91.24 116.677 91.8098 116.855C92.285 117.001 92.7782 117.147 93.2717 117.275V121.734C92.6337 121.621 92.0047 121.463 91.3894 121.259C90.373 120.91 89.4172 120.404 88.5567 119.761L87.8804 119.212L85.998 123.434L86.4 123.763C87.4992 124.62 88.7523 125.259 90.0917 125.645C90.9794 125.924 91.891 126.12 92.8149 126.23C92.9611 126.249 93.1255 126.267 93.2717 126.285V129.557H97.0183V126.212C97.9652 126.105 98.8899 125.852 99.7597 125.463C100.976 124.956 102.018 124.105 102.757 123.014C103.41 122.007 103.759 120.833 103.762 119.633C103.799 118.581 103.532 117.54 102.995 116.636ZM98.2427 118.92C98.3849 119.036 98.4971 119.185 98.5703 119.353C98.6434 119.522 98.6753 119.705 98.6631 119.889C98.6725 120.226 98.5625 120.556 98.3525 120.821C98.0419 121.16 97.6432 121.407 97.201 121.533C97.145 121.569 97.0832 121.593 97.0183 121.606V118.244C97.464 118.393 97.8788 118.622 98.2427 118.92ZM91.7001 110.659C91.6999 110.303 91.8152 109.957 92.0289 109.673C92.3176 109.317 92.7058 109.056 93.1437 108.923C93.1803 108.905 93.2351 108.887 93.2717 108.868V112.268C92.8504 112.13 92.4596 111.913 92.1205 111.628C92.0667 111.578 92.0176 111.523 91.9741 111.464C91.8777 111.354 91.8039 111.227 91.7569 111.089C91.7099 110.951 91.6906 110.805 91.7001 110.659Z" fill="#FEF30A"/>
<g style="mix-blend-mode:screen">
<path d="M94.278 126.288V129.56H93.2727V126.288C92.1944 126.179 91.1293 125.965 90.0927 125.649C88.7533 125.262 87.5002 124.623 86.401 123.766L85.999 123.437L87.8813 119.216L88.5575 119.764C88.5662 119.775 88.5774 119.784 88.59 119.79C88.6027 119.797 88.6167 119.8 88.6308 119.8L87.0043 123.437L87.4063 123.766C88.5054 124.623 89.7586 125.262 91.098 125.649C92.1346 125.965 93.1997 126.179 94.278 126.288Z" fill="#FFE899"/>
<path d="M88.595 107.425C87.9292 108.433 87.5791 109.616 87.5897 110.824C87.5485 111.888 87.8151 112.941 88.3574 113.858C88.8364 114.648 89.5095 115.302 90.3129 115.759C91.1044 116.215 91.9441 116.583 92.8167 116.855C93.2919 117.001 93.7853 117.147 94.2788 117.275V121.978C93.9393 121.917 93.6036 121.835 93.2735 121.735V117.275C92.78 117.147 92.2866 117.001 91.8114 116.855C90.9389 116.583 90.0993 116.216 89.3078 115.759C88.5044 115.302 87.8311 114.648 87.3522 113.858C86.8098 112.942 86.5433 111.888 86.5845 110.824C86.5739 109.616 86.9239 108.433 87.5897 107.425C88.3244 106.333 89.359 105.476 90.5688 104.958C91.4317 104.585 92.3418 104.333 93.2735 104.208V100.882H94.2786V104.574C93.1889 104.646 92.1248 104.935 91.1487 105.425C90.1726 105.915 89.3043 106.594 88.595 107.425Z" fill="#FFE899"/>
</g>
<path d="M70.0356 144.88H186.55" stroke="#573811" stroke-width="2.31023" stroke-linecap="round" stroke-linejoin="round"/>
</svg>
