<svg width="49" height="49" viewBox="0 0 49 49" fill="none" xmlns="http://www.w3.org/2000/svg">
<path d="M24.5498 42.9954C14.4798 43.0854 6.00981 34.7154 5.96981 24.4454C5.93981 14.1754 14.3798 5.73537 24.6098 5.74537C34.8398 5.75537 43.2498 14.1854 43.2298 24.4154C43.2098 34.6954 34.6098 43.1654 24.5498 42.9954ZM8.59981 24.2754C8.49981 28.3554 9.65983 31.8254 12.2398 34.8054C13.9498 36.7754 15.9499 38.3554 18.3899 39.3454C20.6499 40.2654 22.9999 40.4754 25.3999 40.4154C25.9199 40.4054 26.0098 40.2054 25.9198 39.7654C25.5998 38.2654 25.3699 36.7354 24.9599 35.2554C24.4399 33.4054 23.4698 31.9954 21.3798 31.4754C18.7198 30.8154 17.9899 29.2554 18.5299 26.5254C18.6399 25.9754 18.8398 25.4454 18.9798 24.8954C19.1398 24.3254 19.0798 24.2254 18.4898 24.2054C16.9398 24.1654 15.4898 23.7754 14.1298 23.0354C12.4598 22.1254 11.3998 20.7854 11.1198 18.8754C11.0698 18.5354 11.1699 18.3754 11.5199 18.3754C12.6099 18.3554 13.6999 18.2354 14.7799 18.3354C17.2699 18.5654 19.6799 19.1254 21.6399 20.8454C21.7399 20.9354 21.9098 20.9954 22.0398 20.9854C22.6198 20.9254 23.1798 20.3054 23.1998 19.6954C23.2898 17.2254 24.1999 15.0654 25.6399 13.0954C26.0198 12.5754 26.4499 12.4854 26.8399 12.9954C27.3899 13.7154 27.9398 14.4854 28.2498 15.3254C28.7498 16.6654 28.6499 18.0954 28.3999 19.4954C28.3099 19.9854 28.3998 20.2754 28.9398 20.3954C29.5198 20.5254 29.9398 20.8854 30.1898 21.4454C30.2298 21.5454 30.3099 21.6754 30.3899 21.7054C31.2799 21.9854 31.4298 22.7454 31.6098 23.5054C31.6598 23.7254 31.8598 24.0454 32.0398 24.0954C33.6598 24.5254 35.1798 25.3554 36.9298 25.1954C37.8998 25.1054 38.4798 25.6754 38.2598 26.5154C37.9498 27.7054 37.5298 28.8254 36.4298 29.5754C35.5998 30.1354 34.8498 30.7854 34.2398 31.6254C33.7398 32.3254 33.0099 32.9254 32.0899 33.0754C31.3899 33.1954 30.6699 33.2054 29.9599 33.2354C29.3299 33.2554 29.2698 33.2654 29.4398 33.8654C29.8798 35.4554 30.3498 37.0354 30.7898 38.6254C30.9198 39.0954 31.1198 39.1654 31.5498 38.9554C33.7098 37.9254 35.5098 36.4254 36.9898 34.5854C39.5898 31.3654 40.7598 27.6554 40.5698 23.4954C40.4398 20.7854 39.6998 18.2754 38.2498 16.0054C35.0798 11.0554 30.5098 8.47537 24.6298 8.35537C22.3898 8.30537 20.1998 8.74537 18.1098 9.64537C15.3698 10.8354 13.1498 12.6654 11.4198 15.0754C9.41982 17.8654 8.46986 20.9954 8.58986 24.2754H8.59981Z" fill="#E8BB4A"/>
<path d="M38.3698 44.2254C37.9598 43.5154 37.5598 42.8754 37.2198 42.2154C37.1498 42.0854 37.1998 41.7754 37.3098 41.6754C37.9898 41.0554 38.7298 40.5054 39.3898 39.8754C41.5598 37.8254 43.1598 35.3754 44.2998 32.6254C44.4698 32.2154 44.6698 32.1354 45.0698 32.2554C45.7298 32.4654 46.3999 32.6354 47.1499 32.8354C45.4299 37.5954 42.4298 41.2854 38.3698 44.2254Z" fill="#E8BB4A"/>
<path d="M33.6801 46.9254C32.0701 47.3554 30.5701 47.8254 29.0401 48.1554C27.0901 48.5754 25.1101 48.7854 23.1201 48.6454C22.0801 48.5754 21.0501 48.3454 20.0201 48.1554C19.9101 48.1354 19.7401 47.8654 19.7701 47.7454C19.9101 47.0854 20.0701 46.4254 20.2901 45.7954C20.3401 45.6554 20.6501 45.5054 20.8401 45.5154C22.3001 45.5954 23.7501 45.7754 25.2101 45.7954C27.3801 45.8154 29.4901 45.3654 31.5401 44.6554C32.0401 44.4754 32.3501 44.4854 32.6001 45.0254C32.8801 45.6354 33.2501 46.1954 33.6801 46.9354V46.9254Z" fill="#E8BB4A"/>
<path d="M48.4798 27.5754C47.6498 27.3554 46.8698 27.1654 46.1098 26.9254C45.9898 26.8854 45.8598 26.6254 45.8598 26.4654C45.8598 25.8454 45.9398 25.2354 45.9498 24.6154C45.9698 21.3454 45.3398 18.2154 43.9098 15.2554C43.8898 15.2054 43.8798 15.1454 43.8398 15.0254C44.5998 14.5854 45.3598 14.1354 46.1698 13.6654C48.3298 18.1054 49.1298 22.6854 48.4898 27.5754H48.4798Z" fill="#E8BB4A"/>
<path d="M43.22 9.09538C42.45 9.53538 41.78 9.95538 41.08 10.2954C40.94 10.3654 40.6 10.2354 40.48 10.0854C38.17 7.47538 35.37 5.60538 32.13 4.36538C31.4 4.08538 31.41 4.08538 31.65 3.30538C31.83 2.71538 31.97 2.12538 32.16 1.45538C36.56 2.96538 40.21 5.43538 43.23 9.09538H43.22Z" fill="#E8BB4A"/>
<path d="M4.48999 37.7954C5.20999 37.3554 5.85002 36.9454 6.52002 36.5754C6.63002 36.5154 6.94998 36.6354 7.03998 36.7554C8.33998 38.5954 9.89001 40.1954 11.7 41.5254C12.65 42.2254 13.66 42.8454 14.69 43.4054C15.2 43.6754 15.31 43.9354 15.13 44.4454C14.92 45.0554 14.77 45.6854 14.57 46.3954C10.37 44.4454 7.03998 41.6254 4.47998 37.7954H4.48999Z" fill="#E8BB4A"/>
<path d="M14.3696 2.6254C16.4196 0.985395 24.3096 -0.374607 26.8596 0.455393C26.6596 1.20539 26.4896 1.97539 26.2396 2.71539C26.1896 2.87539 25.8396 3.00539 25.6296 3.01539C24.1896 3.11539 22.7396 3.10539 21.3196 3.27539C19.5496 3.47539 17.8296 3.96539 16.1896 4.70539C15.8496 4.85539 15.6596 4.85539 15.4696 4.49539C15.1296 3.85539 14.7396 3.24539 14.3696 2.63539V2.6254Z" fill="#E8BB4A"/>
<path d="M0.709859 20.3754C1.57986 20.6054 2.34981 20.7954 3.09981 21.0254C3.21981 21.0654 3.32985 21.3254 3.32985 21.4754C3.29985 22.4154 3.20983 23.3454 3.17983 24.2754C3.10983 26.5454 3.46982 28.7554 4.16982 30.9054C4.34982 31.4654 4.18982 31.7354 3.72982 31.9754C3.15982 32.2654 2.61983 32.5954 1.98983 32.9454C0.369827 28.8654 0.0998077 24.7254 0.719808 20.3654L0.709859 20.3754Z" fill="#E8BB4A"/>
<path d="M9.69995 5.36542C10.14 6.11542 10.5499 6.77542 10.9099 7.46542C10.9699 7.58542 10.8599 7.90542 10.7299 8.01542C8.39992 9.99542 6.53994 12.3454 5.24994 15.1254C5.00994 15.6388 4.6233 15.8221 4.08997 15.6754C3.47997 15.5054 2.87996 15.3354 2.20996 15.1554C3.92996 11.2454 6.33995 7.98542 9.69995 5.36542Z" fill="#E8BB4A"/>
</svg>
