<svg width="261" height="180" viewBox="0 0 261 180" fill="none" xmlns="http://www.w3.org/2000/svg">
<path d="M256.057 131.453C252.551 137.319 246.859 141.553 240.232 143.223C233.605 144.893 226.586 143.862 220.719 140.358C219.506 139.598 218.345 138.758 217.245 137.843C216.959 139.235 216.562 140.601 216.057 141.929C216.057 141.946 216.04 141.964 216.04 141.999C214.504 148.354 208.969 154.36 201.112 157.328C195.396 159.615 189.032 159.684 183.269 157.52C174.714 169.532 155.788 177.878 133.824 177.878C114.217 177.878 97.0196 171.208 87.4691 161.222C81.721 164.685 74.9741 166.112 68.3161 165.272C55.4136 163.823 45.5489 155.093 44.5014 144.967C44.2744 144.321 44.065 143.657 43.873 142.994C39.9294 144.767 35.645 145.654 31.3216 145.591C26.9982 145.529 22.7409 144.519 18.8502 142.633C14.9595 140.746 11.5299 138.03 8.80308 134.674C6.07623 131.319 4.1186 127.406 3.06808 123.211C2.01756 119.017 1.89971 114.643 2.72294 110.399C3.54618 106.154 5.29047 102.141 7.83275 98.6438C10.375 95.1463 13.6534 92.249 17.4369 90.1561C21.2205 88.0631 25.417 86.8255 29.7308 86.5304C26.3773 78.0179 25.754 68.6732 27.9472 59.7908C30.1405 50.9083 35.0419 42.9277 41.9722 36.9546C48.9026 30.9814 57.5189 27.3113 66.6277 26.4526C75.7365 25.5939 84.887 27.5892 92.8115 32.162C93.8487 28.9077 95.2486 25.7802 96.9846 22.8386C101.68 15.02 108.674 8.84071 117.012 5.14427C125.349 1.44782 134.624 0.414304 143.571 2.18457C152.518 3.95484 160.7 8.44272 167.002 15.0358C173.304 21.6288 177.417 30.0058 178.782 39.0234C183.81 36.4902 189.414 35.3209 195.036 35.6325C200.657 35.9441 206.098 37.7257 210.815 40.7991C215.532 43.8726 219.36 48.1302 221.916 53.1466C224.472 58.163 225.667 63.7624 225.381 69.3852C229.193 69.7178 232.881 70.9055 236.171 72.86C240.331 75.3357 243.708 78.934 245.916 83.2418C248.124 87.5497 249.073 92.3927 248.654 97.2153C253.978 100.937 257.7 106.533 259.072 112.882C260.445 119.231 259.368 125.865 256.057 131.453Z" fill="#E6EFFF"/>
<path d="M243.599 96.0075C243.599 96.0075 242.061 77.9587 220.937 79.686C221.514 68.1803 217.336 55.696 206.731 49.3789C196.92 43.5345 187.431 39.9503 177.954 44.731C176.022 32.082 125.247 0.990799 104.421 45.9794C102.834 48.9918 101.441 52.102 100.249 55.2913C79.3297 43.3226 53.7623 46.7417 41.4179 67.4655C37.1413 74.3595 34.8736 82.3101 34.8698 90.4228C29.6565 91.641 24.8194 94.1138 20.7791 97.6264C16.7387 101.139 13.6174 105.585 11.686 110.578C4.60581 128.038 9.83145 135.963 9.83145 135.963C9.83145 135.963 7.67325 133.412 6.77468 132.027C3.96829 127.72 2.33784 122.753 2.04494 117.62C1.75204 112.487 2.80705 107.367 5.10518 102.768C7.40332 98.1687 10.8645 94.2509 15.1452 91.4035C19.4259 88.556 24.377 86.878 29.5069 86.536C26.1566 78.0235 25.5357 68.6799 27.73 59.7989C29.9243 50.918 34.8253 42.9389 41.7546 36.9662C48.6838 30.9936 57.2984 27.3228 66.4059 26.4622C75.5134 25.6016 84.6632 27.5937 92.5886 32.1627C95.6284 22.6434 101.799 14.4324 110.098 8.86512C118.396 3.29783 128.334 0.701667 138.295 1.4988C148.256 2.29594 157.654 6.43954 164.962 13.2557C172.269 20.0718 177.056 29.1596 178.543 39.0412C183.57 36.5044 189.174 35.3319 194.796 35.6409C200.418 35.9498 205.861 37.7295 210.579 40.8018C215.298 43.8741 219.127 48.1314 221.684 53.148C224.241 58.1645 225.435 63.7645 225.149 69.3877C231.921 70.0148 238.171 73.2949 242.534 78.5123C246.896 83.7296 249.019 90.4607 248.438 97.2371C256.796 103.095 243.599 96.0075 243.599 96.0075Z" fill="white"/>
<path d="M255.949 131.46C252.444 137.326 246.751 141.559 240.125 143.229C233.498 144.899 226.479 143.869 220.612 140.364C219.399 139.604 218.238 138.764 217.137 137.85C216.852 139.241 216.455 140.608 215.95 141.936C215.95 141.953 215.933 141.97 215.933 142.005C214.396 148.36 208.862 154.366 201.005 157.334C195.289 159.622 188.925 159.69 183.161 157.527C178.448 163.686 172.207 168.507 165.056 171.512C164.941 171.579 164.818 171.632 164.689 171.669C163.205 172.332 161.687 172.943 160.098 173.519C159.906 173.589 159.696 173.659 159.486 173.729C157.932 174.27 156.344 174.759 154.703 175.195C154.493 175.265 154.266 175.318 154.057 175.37C152.607 175.754 151.106 176.086 149.604 176.383C149.395 176.418 149.186 176.453 148.994 176.488C147.44 176.785 145.868 177.029 144.262 177.221C144.035 177.256 143.808 177.291 143.563 177.308C142.149 177.483 140.718 177.605 139.269 177.71H139.059C137.296 177.832 135.514 177.884 133.717 177.884C114.11 177.884 96.9122 171.215 87.3619 161.228C81.614 164.691 74.867 166.118 68.2089 165.279C55.3062 163.83 45.4418 155.1 44.394 144.973C44.1673 144.327 43.9576 143.664 43.7658 143C38.0266 145.54 31.6291 146.191 25.4959 144.86C19.3626 143.529 13.8106 140.284 9.64062 135.594C5.47066 130.903 2.89825 125.01 2.29426 118.763C1.69027 112.516 3.08603 106.238 6.28015 100.836C6.50733 100.452 6.75143 100.068 7.01359 99.7014C6.50053 105.214 7.53022 110.76 9.98749 115.721C12.4448 120.681 16.233 124.861 20.9288 127.793C24.8341 130.22 29.2802 131.64 33.869 131.926C38.4578 132.213 43.0461 131.356 47.2228 129.434C47.3971 130.098 47.6067 130.762 47.8335 131.407C48.8462 141.534 58.3966 150.264 70.8978 151.713C77.3663 152.547 83.9242 151.116 89.4568 147.662C98.6929 157.649 115.366 164.318 134.345 164.318C134.834 164.318 135.323 164.318 135.812 164.301H136.336C138.116 164.249 139.862 164.144 141.59 163.987C141.8 163.969 142.01 163.952 142.219 163.935C143.703 163.777 145.187 163.585 146.619 163.358C146.801 163.339 146.981 163.31 147.16 163.271C148.889 162.992 150.582 162.642 152.223 162.241C152.4 162.21 152.575 162.169 152.747 162.119H152.765C154.406 161.717 156.012 161.263 157.566 160.757C157.697 160.718 157.825 160.671 157.95 160.617C159.19 160.215 160.412 159.779 161.599 159.29H161.617C161.704 159.255 161.774 159.22 161.861 159.185C169.983 156.181 177.065 150.895 182.253 143.961C187.825 146.125 194.016 146.056 199.538 143.769C207.15 140.801 212.511 134.795 213.995 128.44C213.995 128.405 214.012 128.387 214.012 128.37C214.497 127.038 214.883 125.673 215.165 124.284C216.226 125.194 217.346 126.034 218.517 126.798C221.332 128.527 224.467 129.67 227.735 130.158C231.002 130.645 234.334 130.468 237.532 129.636C240.729 128.805 243.725 127.336 246.341 125.318C248.957 123.301 251.139 120.775 252.755 117.894C254.902 114.182 256.09 109.994 256.212 105.707C258.448 109.64 259.602 114.095 259.556 118.619C259.51 123.143 258.265 127.574 255.949 131.46Z" fill="#CAD7FF"/>
<path d="M256.057 132.102C252.551 137.968 246.859 142.202 240.232 143.872C233.605 145.542 226.586 144.511 220.719 141.007C219.506 140.247 218.346 139.407 217.245 138.492C216.959 139.884 216.562 141.25 216.057 142.578C216.057 142.595 216.04 142.613 216.04 142.648C214.504 149.003 208.969 155.009 201.112 157.977C195.396 160.264 189.032 160.333 183.269 158.169C174.714 170.181 155.788 178.527 133.824 178.527C114.217 178.527 97.0196 171.857 87.4691 161.871C81.721 165.334 74.9741 166.761 68.3161 165.921C55.4136 164.472 45.5489 155.742 44.5014 145.616C44.2744 144.97 44.065 144.306 43.873 143.643C39.9294 145.416 35.645 146.303 31.3216 146.24C26.9982 146.178 22.7409 145.168 18.8502 143.282C14.9595 141.395 11.5299 138.679 8.80308 135.323C6.07623 131.967 4.1186 128.055 3.06808 123.86C2.01756 119.666 1.89971 115.292 2.72294 111.048C3.54618 106.803 5.29047 102.79 7.83275 99.2928C10.375 95.7953 13.6534 92.8979 17.4369 90.805C21.2205 88.712 25.417 87.4744 29.7308 87.1793C26.3773 78.6668 25.754 69.3221 27.9472 60.4397C30.1405 51.5572 35.0419 43.5767 41.9722 37.6036C48.9026 31.6304 57.5189 27.9602 66.6277 27.1015C75.7365 26.2428 84.887 28.2381 92.8115 32.8109C93.8487 29.5566 95.2486 26.4291 96.9846 23.4874C101.68 15.6689 108.674 9.48972 117.012 5.79327C125.349 2.09683 134.624 1.0632 143.571 2.83347C152.518 4.60374 160.7 9.09162 167.002 15.6847C173.304 22.2777 177.417 30.6547 178.782 39.6723C183.809 37.1391 189.414 35.9698 195.036 36.2814C200.657 36.593 206.098 38.3746 210.815 41.448C215.532 44.5215 219.36 48.7791 221.916 53.7955C224.472 58.8119 225.667 64.4113 225.381 70.0341C229.193 70.3667 232.881 71.5544 236.171 73.5089C240.33 75.9846 243.708 79.5829 245.916 83.8907C248.124 88.1986 249.073 93.0416 248.654 97.8642C253.978 101.586 257.7 107.182 259.072 113.531C260.445 119.88 259.368 126.514 256.057 132.102Z" stroke="#573811" stroke-width="2.66565" stroke-linecap="round" stroke-linejoin="round"/>
<path d="M161.259 158.692C162.977 161.811 164.916 164.803 167.06 167.646C165.687 165.638 162.04 159.416 161.443 158.502C161.341 158.33 161.17 158.486 161.259 158.692Z" fill="#573811"/>
<path d="M165.054 171.512C164.939 171.579 164.816 171.631 164.687 171.669C163.989 170.604 163.291 169.521 162.593 168.456C160.794 165.715 159.031 163.027 157.564 160.757C156.674 159.377 155.888 158.155 155.277 157.195C154.875 156.601 154.474 156.043 154.125 155.414C154.002 155.257 154.16 155.047 154.282 155.257C154.683 155.903 155.138 156.496 155.591 157.125C156.203 158.068 157.023 159.255 157.948 160.617C159.083 162.293 160.41 164.249 161.772 166.309C162.156 166.937 162.575 167.548 162.959 168.177C163.675 169.294 164.373 170.412 165.054 171.512Z" fill="#573811"/>
<path d="M160.097 173.516C159.905 173.586 159.695 173.656 159.486 173.726C159.448 173.639 159.402 173.557 159.346 173.481C158.805 172.643 158.281 171.805 157.758 170.967C155.907 168.051 154.056 165.153 152.223 162.237C151.437 161.033 150.669 159.828 149.918 158.623C149.744 158.379 149.569 158.099 149.395 157.855C148.382 156.266 147.421 154.643 146.444 153.036C146.287 152.757 146.513 152.565 146.618 152.774C147.631 154.259 148.643 155.777 149.621 157.314C149.901 157.75 150.128 158.152 150.389 158.536C151.018 159.478 151.821 160.701 152.747 162.115H152.764C154.335 164.542 156.291 167.527 158.333 170.74C158.735 171.351 159.119 171.962 159.521 172.608C159.713 172.905 159.905 173.202 160.097 173.516Z" fill="#573811"/>
<path d="M154.703 175.197C154.493 175.267 154.266 175.32 154.057 175.372C153.393 174.29 152.73 173.224 152.066 172.142H152.049C151.543 171.304 151.019 170.466 150.512 169.645C149.308 167.69 148.086 165.734 146.881 163.779C146.793 163.639 146.706 163.5 146.619 163.36C145.833 162.155 145.1 160.985 144.384 159.781L144.349 159.763C142.132 156.219 139.932 152.692 137.802 149.096C137.68 148.956 137.819 148.799 137.924 148.939C140.281 152.465 142.603 156.027 144.89 159.676C145.624 160.863 146.392 162.016 147.108 163.203C147.125 163.22 147.143 163.255 147.16 163.273C147.928 164.512 148.731 165.734 149.465 166.974C150.25 168.266 151.385 170.047 152.677 172.09C153.323 173.068 153.987 174.115 154.703 175.197Z" fill="#573811"/>
<path d="M149.604 176.382C149.395 176.417 149.185 176.452 148.994 176.487C148.539 175.701 148.155 175.038 147.876 174.514C147.317 173.571 146.776 172.629 146.217 171.686C145.693 170.813 145.187 169.94 144.646 169.067C143.598 167.391 142.586 165.697 141.59 163.986C140.927 162.851 140.281 161.699 139.635 160.547C138.779 159.15 138.029 157.683 137.208 156.252C137.19 156.059 137.26 155.955 137.383 156.077C138.308 157.526 139.234 159.01 140.141 160.512C140.857 161.629 141.555 162.781 142.219 163.934C143.127 165.418 144 166.937 144.89 168.456C145.571 169.555 146.217 170.673 146.881 171.808C146.926 171.905 146.979 171.998 147.038 172.087C147.701 173.17 148.609 174.689 149.604 176.382Z" fill="#573811"/>
<path d="M144.262 177.223C144.035 177.258 143.807 177.293 143.563 177.311C143.179 176.752 142.83 176.228 142.55 175.756C139.931 171.269 137.312 166.852 135.811 164.303C135.532 163.832 135.287 163.413 135.078 163.081C134.938 162.819 135.183 162.557 135.34 162.784C135.671 163.291 136.003 163.797 136.335 164.303C138.43 167.516 140.438 170.851 142.481 174.185C142.795 174.761 143.162 175.355 143.511 175.984C143.703 176.263 143.895 176.577 144.07 176.892C144.122 176.978 144.192 177.083 144.262 177.223Z" fill="#573811"/>
<path d="M139.757 178.568C139.809 178.673 139.949 178.952 140.159 179.371C139.844 178.848 139.443 178.289 139.059 177.713H139.268C139.426 178.01 139.582 178.289 139.757 178.568Z" fill="#573811"/>
<path d="M139.268 177.716H139.058C138.277 176.692 137.571 175.613 136.946 174.486C136.67 174.013 136.425 173.523 136.213 173.019C136.038 172.827 136.23 172.548 136.352 172.757C136.754 173.369 137.103 174.032 137.487 174.608C138.081 175.638 138.674 176.686 139.268 177.716Z" fill="#573811"/>
<path d="M168.449 104.298H100.21L90.5713 72.6963H177.58L168.449 104.298Z" fill="#33AEF1"/>
<g opacity="0.3">
<path d="M168.448 104.302H100.209L90.5703 72.6995H177.579L168.448 104.302Z" fill="#390075"/>
</g>
<path d="M182.504 68.9907C182.506 70.4348 182.352 71.8751 182.047 73.2866H174.304C174.926 70.4089 174.913 67.43 174.266 64.5579C173.618 61.6858 172.351 58.9897 170.554 56.6577C168.757 54.3258 166.472 52.4141 163.86 51.0563C161.247 49.6985 158.37 48.9273 155.429 48.7964H163.172C168.375 49.0229 173.291 51.2496 176.893 55.012C180.495 58.7744 182.505 63.7821 182.504 68.9907Z" fill="#33AEF1"/>
<g opacity="0.55">
<path d="M182.503 68.9898C182.504 70.434 182.351 71.8742 182.046 73.2857H180.527C180.971 70.473 180.816 67.5982 180.072 64.8496C179.328 62.1009 178.013 59.5403 176.211 57.3352C174.41 55.1301 172.163 53.3303 169.617 52.0535C167.072 50.7767 164.286 50.0517 161.441 49.9259H161.279C159.396 49.2603 157.423 48.8792 155.427 48.7954H163.17C168.374 49.0219 173.289 51.2487 176.891 55.0111C180.493 58.7736 182.503 63.7812 182.503 68.9898Z" fill="white"/>
</g>
<path d="M92.9132 68.9907C92.9115 70.435 93.0658 71.8754 93.3733 73.2866H85.9627C85.338 70.4087 85.3493 67.4291 85.9961 64.5562C86.6429 61.6832 87.9094 58.9862 89.7071 56.6537C91.5048 54.3212 93.7903 52.4096 96.4038 51.0524C99.0173 49.6952 101.896 48.9253 104.838 48.7964H112.248C107.044 49.0228 102.129 51.2493 98.5265 55.0117C94.9241 58.774 92.9133 63.7818 92.9132 68.9907Z" fill="#33AEF1"/>
<g opacity="0.55">
<path d="M92.9128 68.9898C92.9111 70.4341 93.0654 71.8745 93.3729 73.2857H85.9623C85.9143 73.0649 85.869 72.8441 85.8291 72.6207H90.8461C89.7442 67.5438 90.6379 62.2375 93.3423 57.8018C96.0467 53.3662 100.354 50.1412 105.372 48.7954H112.248C107.044 49.0218 102.128 51.2484 98.5261 55.0108C94.9237 58.7732 92.9129 63.781 92.9128 68.9898Z" fill="white"/>
</g>
<path d="M174.76 68.9907C174.761 70.4348 174.608 71.8751 174.303 73.2866H93.3732C92.7485 70.4087 92.7601 67.4291 93.4069 64.5562C94.0536 61.6832 95.32 58.9862 97.1177 56.6537C98.9154 54.3212 101.201 52.4096 103.814 51.0524C106.428 49.6952 109.306 48.9253 112.248 48.7964H155.427C160.631 49.0229 165.546 51.2496 169.148 55.012C172.75 58.7744 174.76 63.7821 174.76 68.9907Z" fill="#FFA600"/>
<g opacity="0.55">
<path d="M174.673 65.5005H93.2124V67.1187H174.673V65.5005Z" fill="white"/>
</g>
<g opacity="0.55">
<path d="M171.079 56.5815H96.5117V58.1997H171.079V56.5815Z" fill="white"/>
</g>
<g opacity="0.3">
<path d="M174.76 68.9897C174.761 70.4339 174.608 71.8741 174.303 73.2856H169.808C170.43 70.4079 170.417 67.4291 169.77 64.5569C169.122 61.6848 167.855 58.9886 166.058 56.6567C164.261 54.3247 161.976 52.4131 159.364 51.0553C156.751 49.6975 153.874 48.9263 150.933 48.7954H155.428C160.632 49.022 165.547 51.2486 169.149 55.011C172.751 58.7734 174.761 63.7811 174.76 68.9897Z" fill="#390075"/>
</g>
<path d="M128.471 63.1866C128.471 66.8967 121.879 69.9045 113.748 69.9045C105.617 69.9045 99.0254 66.8967 99.0254 63.1866C99.0254 59.4765 105.617 58.9094 113.748 58.9094C121.879 58.9094 128.471 59.4765 128.471 63.1866Z" fill="#FFF1A5"/>
<path d="M174.269 65.6722H93.3537C93.1183 65.6722 92.8924 65.5786 92.7259 65.4121C92.5594 65.2456 92.4658 65.0197 92.4658 64.7843C92.4658 64.5488 92.5594 64.3231 92.7259 64.1566C92.8924 63.9901 93.1183 63.8965 93.3537 63.8965H174.269C174.505 63.8965 174.73 63.9901 174.897 64.1566C175.063 64.3231 175.157 64.5488 175.157 64.7843C175.157 65.0197 175.063 65.2456 174.897 65.4121C174.73 65.5786 174.505 65.6722 174.269 65.6722Z" fill="#573811"/>
<path d="M169.86 56.8835H97.6472C97.4117 56.8835 97.1859 56.79 97.0194 56.6235C96.8529 56.457 96.7593 56.2312 96.7593 55.9957C96.7593 55.7602 96.8529 55.5344 97.0194 55.3679C97.1859 55.2014 97.4117 55.1079 97.6472 55.1079H169.86C170.095 55.1079 170.321 55.2014 170.488 55.3679C170.654 55.5344 170.748 55.7602 170.748 55.9957C170.748 56.2312 170.654 56.457 170.488 56.6235C170.321 56.79 170.095 56.8835 169.86 56.8835Z" fill="#573811"/>
<g opacity="0.1">
<path d="M114.5 74.2808C114.369 74.2808 114.241 74.242 114.132 74.1694C112.395 72.958 110.818 71.5326 109.437 69.927C109.021 69.4654 108.611 68.9958 108.199 68.5254C106.369 66.1696 104.149 64.144 101.636 62.5359C99.5945 61.3764 97.1882 61.0369 94.9052 61.5862C94.8211 61.6103 94.7329 61.6175 94.646 61.6076C94.559 61.5976 94.4749 61.5706 94.3985 61.5281C94.322 61.4855 94.2547 61.4282 94.2004 61.3596C94.1461 61.291 94.1058 61.2122 94.082 61.128C94.0581 61.0438 94.0511 60.9558 94.0613 60.8689C94.0716 60.782 94.099 60.6979 94.1418 60.6216C94.1847 60.5453 94.2422 60.4782 94.311 60.4241C94.3799 60.37 94.4586 60.3301 94.5429 60.3065C97.1636 59.6509 99.9363 60.033 102.282 61.3731C104.933 63.0501 107.273 65.1737 109.2 67.6496C109.607 68.1152 110.014 68.5803 110.425 69.0373C111.732 70.5598 113.225 71.912 114.869 73.0622C114.988 73.1413 115.078 73.2567 115.127 73.3911C115.175 73.5255 115.179 73.6718 115.137 73.8085C115.096 73.9452 115.011 74.0649 114.897 74.15C114.782 74.235 114.643 74.2809 114.5 74.2808Z" fill="#390075"/>
<path d="M102.865 74.2787C102.704 74.2785 102.549 74.2201 102.428 74.1143C102.307 74.0085 102.229 73.8625 102.207 73.7032C102.115 72.7475 102.12 71.7847 102.223 70.8301C102.542 69.3714 102.323 67.8465 101.606 66.5366C100.256 64.8235 97.3033 65.4639 96.4306 65.7011C95.4008 65.9816 94.3995 66.3587 93.4406 66.8274C93.3606 66.8664 93.2737 66.8889 93.1849 66.8937C93.096 66.8986 93.007 66.8855 92.9232 66.8554C92.8395 66.8252 92.7628 66.7785 92.6974 66.7181C92.632 66.6578 92.5795 66.5848 92.5427 66.5037C92.506 66.4226 92.486 66.3351 92.4837 66.2461C92.4815 66.1571 92.497 66.0686 92.5295 65.9858C92.5621 65.903 92.6109 65.8275 92.6731 65.7639C92.7353 65.7002 92.8097 65.6498 92.8918 65.6154C93.9156 65.1176 94.9838 64.7165 96.0822 64.4174C97.4555 64.0442 100.847 63.4238 102.651 65.7143C103.601 67.275 103.922 69.1381 103.549 70.9265C103.454 71.7894 103.446 72.6598 103.525 73.5243C103.538 73.6184 103.53 73.7142 103.503 73.8052C103.476 73.8961 103.429 73.9801 103.367 74.0516C103.304 74.1231 103.227 74.1803 103.14 74.2195C103.054 74.2587 102.96 74.2788 102.865 74.2787Z" fill="#390075"/>
<path d="M124.782 68.1157C123.666 68.1244 122.567 67.8413 121.594 67.2946C118.893 65.7626 117.88 62.7929 116.9 59.9209C116.561 58.926 116.21 57.8971 115.797 56.9686C114.455 54.0057 112.192 51.5557 109.344 49.9834C109.268 49.9412 109.2 49.8843 109.145 49.8159C109.09 49.7475 109.05 49.6689 109.026 49.5847C109.001 49.5006 108.994 49.4125 109.004 49.3255C109.014 49.2385 109.041 49.1543 109.084 49.0778C109.126 49.0012 109.183 48.9338 109.252 48.8795C109.321 48.8251 109.399 48.7848 109.484 48.7609C109.568 48.7371 109.656 48.7301 109.743 48.7404C109.83 48.7507 109.914 48.7781 109.99 48.821C113.09 50.5338 115.553 53.2022 117.013 56.4286C117.449 57.4115 117.81 58.4689 118.159 59.4916C119.1 62.2497 119.988 64.855 122.249 66.1375C125.172 67.7911 128.99 66.1006 130.851 63.586C132.694 60.6356 133.602 57.1972 133.455 53.7218C133.477 52.8766 133.479 52.0109 133.481 51.1736C133.482 50.487 133.483 49.7999 133.495 49.1141C133.501 48.9385 133.574 48.7718 133.701 48.6498C133.827 48.5277 133.996 48.4598 134.172 48.4607C134.259 48.4622 134.345 48.4809 134.425 48.5157C134.505 48.5505 134.578 48.6007 134.638 48.6635C134.699 48.7263 134.747 48.8005 134.779 48.8818C134.811 48.963 134.827 49.0498 134.825 49.1371C134.813 49.8162 134.812 50.4964 134.811 51.1761C134.809 52.0213 134.808 52.8953 134.785 53.7554C134.933 57.505 133.934 61.2104 131.92 64.3771C131.086 65.494 130.011 66.4095 128.776 67.0564C127.54 67.7034 126.176 68.0654 124.782 68.1157Z" fill="#390075"/>
<path d="M126.184 59.4342C125.613 59.4117 125.051 59.2741 124.534 59.0297C124.017 58.7853 123.554 58.439 123.174 58.0117C122.326 56.9608 121.698 55.7511 121.325 54.4536C120.781 52.9224 120.236 51.3901 119.689 49.857L119.508 49.3489C119.449 49.1827 119.458 48.9999 119.534 48.8406C119.609 48.6813 119.745 48.5584 119.911 48.4992C120.078 48.4401 120.26 48.4493 120.42 48.525C120.579 48.6006 120.702 48.7364 120.761 48.9025L120.942 49.4108C121.488 50.9439 122.034 52.4762 122.578 54.0078C122.896 55.1364 123.432 56.1918 124.155 57.1144C124.401 57.5007 124.761 57.8012 125.185 57.9741C125.609 58.1471 126.076 58.1841 126.522 58.08C126.968 57.9759 127.37 57.7359 127.674 57.3931C127.977 57.0503 128.167 56.6217 128.216 56.1664C128.386 55.243 128.409 54.2985 128.284 53.3679L127.96 49.1776C127.953 49.0905 127.963 49.003 127.99 48.92C128.017 48.837 128.061 48.76 128.117 48.6936C128.174 48.6273 128.243 48.5728 128.321 48.5332C128.399 48.4936 128.484 48.4697 128.571 48.4629C128.658 48.4561 128.745 48.4665 128.828 48.4935C128.911 48.5205 128.988 48.5637 129.055 48.6204C129.121 48.6771 129.176 48.7464 129.215 48.8242C129.255 48.902 129.279 48.987 129.285 49.074L129.61 53.2634C129.749 54.3359 129.715 55.4239 129.508 56.4854C129.385 57.086 129.12 57.6484 128.736 58.1258C128.351 58.6031 127.858 58.9813 127.298 59.229C126.942 59.3655 126.565 59.4351 126.184 59.4342Z" fill="#390075"/>
<path d="M139.051 74.279C138.943 74.2789 138.837 74.2527 138.742 74.2026C138.646 74.1525 138.565 74.0801 138.503 73.9914C138.442 73.9028 138.404 73.8007 138.391 73.6938C138.378 73.5869 138.391 73.4784 138.429 73.3777C139.531 70.0068 141.385 66.9306 143.851 64.3813C145.841 62.4982 148.318 61.2098 151.002 60.6618C153.687 60.1138 156.471 60.3282 159.04 61.2806C161.608 62.233 163.86 63.8854 165.538 66.0509C167.216 68.2163 168.255 70.8083 168.537 73.5335C168.557 73.7082 168.508 73.884 168.399 74.0223C168.29 74.1607 168.131 74.2503 167.957 74.2716C167.782 74.2928 167.606 74.2439 167.467 74.1357C167.328 74.0275 167.238 73.8687 167.216 73.6941C166.965 71.2132 166.023 68.8523 164.498 66.8793C162.972 64.9064 160.925 63.4002 158.588 62.5314C156.25 61.6627 153.716 61.4662 151.272 61.9642C148.829 62.4623 146.574 63.6348 144.763 65.3491C142.447 67.7632 140.707 70.6691 139.672 73.8499C139.625 73.976 139.539 74.0846 139.428 74.1613C139.317 74.2379 139.185 74.2789 139.051 74.279Z" fill="#390075"/>
<path d="M147.09 74.2794C146.983 74.2794 146.878 74.2535 146.783 74.204C146.688 74.1545 146.606 74.0829 146.545 73.9951C146.484 73.9074 146.445 73.8062 146.431 73.7001C146.417 73.594 146.429 73.4861 146.466 73.3856C146.805 72.1675 147.387 71.0307 148.177 70.0441C148.968 69.0574 149.95 68.2413 151.065 67.645C152.37 67.0809 153.819 66.9395 155.208 67.2408C156.597 67.5421 157.857 68.2709 158.81 69.3249C159.823 70.5225 160.377 72.0409 160.374 73.6092C160.376 73.7856 160.307 73.9552 160.183 74.0808C160.059 74.2065 159.891 74.2779 159.714 74.2793H159.709C159.534 74.2793 159.365 74.2099 159.241 74.0862C159.116 73.9626 159.045 73.7948 159.044 73.6193C159.05 72.3669 158.61 71.1533 157.804 70.1948C157.043 69.3534 156.037 68.7716 154.928 68.531C153.819 68.2904 152.663 68.403 151.621 68.8532C150.665 69.3758 149.826 70.0877 149.154 70.9456C148.482 71.8035 147.993 72.7894 147.715 73.843C147.668 73.9709 147.583 74.0814 147.471 74.1595C147.359 74.2375 147.226 74.2794 147.09 74.2794Z" fill="#390075"/>
<path d="M154.208 55.2304C154.079 55.2304 153.952 55.1925 153.843 55.1214C153.735 55.0502 153.65 54.9489 153.598 54.8299C153.547 54.711 153.531 54.5796 153.553 54.4518C153.575 54.3241 153.634 54.2055 153.723 54.1108C155.822 51.8799 158.558 50.3501 161.558 49.7293C161.643 49.7116 161.731 49.7108 161.817 49.7273C161.903 49.7437 161.985 49.777 162.058 49.8251C162.131 49.8733 162.194 49.9354 162.243 50.0079C162.292 50.0804 162.327 50.1618 162.344 50.2476C162.362 50.3333 162.362 50.4218 162.345 50.5077C162.329 50.5936 162.295 50.6753 162.247 50.7483C162.198 50.8212 162.136 50.8839 162.063 50.9327C161.991 50.9814 161.909 51.0154 161.823 51.0326C159.094 51.5974 156.604 52.9896 154.694 55.0197C154.632 55.0863 154.557 55.1394 154.473 55.1756C154.389 55.2118 154.299 55.2305 154.208 55.2304Z" fill="#390075"/>
</g>
<path d="M174.677 68.4005C174.679 69.8446 174.525 71.2847 174.22 72.6962H93.2908C92.6661 69.8184 92.6774 66.8388 93.3242 63.9659C93.971 61.0929 95.2376 58.396 97.0353 56.0635C98.8329 53.731 101.118 51.8193 103.732 50.4621C106.345 49.1049 109.224 48.335 112.166 48.2061H155.345C160.549 48.4326 165.464 50.6593 169.066 54.4218C172.668 58.1842 174.678 63.1919 174.677 68.4005Z" stroke="#573811" stroke-width="2.13252" stroke-linecap="round" stroke-linejoin="round"/>
<path d="M182.078 68.4005C182.079 69.8446 181.926 71.2847 181.621 72.6962H173.878C174.5 69.8186 174.487 66.8397 173.84 63.9676C173.192 61.0955 171.925 58.3994 170.128 56.0674C168.331 53.7354 166.046 51.8238 163.433 50.466C160.821 49.1082 157.944 48.3369 155.002 48.2061H162.746C167.949 48.4326 172.865 50.6593 176.466 54.4218C180.068 58.1842 182.079 63.1919 182.078 68.4005Z" stroke="#573811" stroke-width="2.13252" stroke-linecap="round" stroke-linejoin="round"/>
<path d="M85.3379 68.4005C85.3367 69.8446 85.4901 71.2847 85.7954 72.6962H93.5385C92.916 69.8186 92.9291 66.8397 93.5767 63.9676C94.2243 61.0955 95.4909 58.3994 97.2882 56.0674C99.0855 53.7354 101.37 51.8238 103.983 50.466C106.595 49.1082 109.472 48.3369 112.414 48.2061H104.671C99.4669 48.4326 94.5516 50.6593 90.9497 54.4218C87.3478 58.1842 85.3374 63.1919 85.3379 68.4005Z" stroke="#573811" stroke-width="2.13252" stroke-linecap="round" stroke-linejoin="round"/>
<path d="M168.449 104.298H100.21L90.5713 72.6963H177.58L168.449 104.298Z" stroke="#573811" stroke-width="2.13252" stroke-linecap="round" stroke-linejoin="round"/>
<path d="M159.266 99.5534C166.113 99.2926 171.456 93.6441 171.201 86.9371C170.945 80.2301 165.188 75.0044 158.341 75.2653C151.494 75.5261 146.151 81.1746 146.406 87.8816C146.662 94.5886 152.419 99.8143 159.266 99.5534Z" fill="#FFDD1D"/>
<g opacity="0.55">
<path d="M167.07 78.5327C164.977 77.3998 162.607 76.8816 160.232 77.0377C157.858 77.1938 155.576 78.0181 153.649 79.4153C153.945 79.852 154.083 80.3766 154.041 80.9024C153.998 81.4282 153.777 81.9236 153.415 82.3068C153.052 82.6901 152.57 82.9382 152.047 83.01C151.524 83.0819 150.993 82.9732 150.54 82.7021C149.003 85.0791 148.36 87.925 148.727 90.7319C149.094 93.5388 150.446 96.124 152.542 98.0264C150.697 97.0309 149.142 95.5727 148.031 93.7948C146.919 92.0169 146.289 89.9805 146.203 87.8856C146.114 84.6303 147.321 81.4727 149.559 79.1069C151.796 76.7411 154.882 75.3608 158.138 75.2693C161.43 75.1326 164.641 76.306 167.07 78.5327Z" fill="white"/>
</g>
<path d="M159.047 93.7802C162.636 93.6434 165.438 90.682 165.304 87.1656C165.17 83.6493 162.151 80.9096 158.562 81.0464C154.972 81.1831 152.171 84.1445 152.305 87.6608C152.438 91.1771 155.457 93.9169 159.047 93.7802Z" fill="#EB8B00"/>
<g opacity="0.55">
<path d="M163.286 82.7871C163.96 83.2663 164.533 83.8737 164.971 84.5746C165.409 85.2755 165.705 86.0562 165.841 86.8717C165.977 87.6872 165.951 88.5215 165.764 89.3268C165.577 90.1321 165.233 90.8926 164.751 91.5646C164.929 91.8501 165 92.1892 164.953 92.5222C164.905 92.8552 164.742 93.1608 164.491 93.3852C164.241 93.6096 163.919 93.7385 163.583 93.7491C163.246 93.7597 162.917 93.6513 162.653 93.4432C161.433 94.1306 160.025 94.4112 158.635 94.2443C157.244 94.0774 155.943 93.4717 154.92 92.5152C156.114 93.3888 157.568 93.8321 159.046 93.7726C159.891 93.7488 160.724 93.5586 161.496 93.213C162.268 92.8674 162.964 92.3731 163.545 91.7584C164.126 91.1436 164.58 90.4205 164.881 89.6302C165.183 88.8399 165.326 87.998 165.302 87.1525C165.27 86.328 165.075 85.5179 164.729 84.7688C164.383 84.0196 163.893 83.3462 163.286 82.7871Z" fill="white"/>
</g>
<g opacity="0.3">
<path d="M158.56 81.042C159.476 81.003 160.39 81.1583 161.242 81.4976C162.094 81.8369 162.865 82.3525 163.503 83.0108C162.352 82.239 160.984 81.854 159.599 81.9114C157.893 81.9591 156.275 82.6826 155.102 83.9229C153.929 85.1631 153.296 86.8184 153.343 88.5249C153.405 90.0921 154.051 91.5794 155.155 92.6934C154.313 92.1414 153.615 91.3963 153.119 90.5201C152.623 89.6438 152.343 88.6617 152.304 87.6556C152.257 85.949 152.889 84.2937 154.063 83.0535C155.236 81.8133 156.853 81.0898 158.56 81.042Z" fill="#390075"/>
</g>
<path d="M159.165 99.5534C166.012 99.2926 171.355 93.6441 171.1 86.9371C170.844 80.2301 165.087 75.0044 158.24 75.2653C151.393 75.5261 146.05 81.1746 146.305 87.8816C146.561 94.5886 152.319 99.8143 159.165 99.5534Z" stroke="#573811" stroke-width="2.13252" stroke-linecap="round" stroke-linejoin="round"/>
<path d="M142.143 105.84C149.731 105.551 155.675 99.8797 155.42 93.1727C155.164 86.4657 148.806 81.2629 141.218 81.552C133.63 81.8411 127.685 87.5125 127.941 94.2195C128.196 100.927 134.555 106.129 142.143 105.84Z" fill="#FFDD1D"/>
<g opacity="0.55">
<path d="M150.876 84.7956C148.635 83.7164 146.163 83.206 143.679 83.3096C140.945 83.3993 138.289 84.2377 136 85.7335C137.677 87.7244 134.792 90.3179 132.541 89.0338C131.072 91.044 130.318 93.4885 130.401 95.977C130.48 97.5983 130.903 99.1842 131.644 100.629C132.385 102.073 133.425 103.342 134.696 104.352C132.723 103.459 131.031 102.046 129.801 100.263C128.57 98.4811 127.849 96.3974 127.713 94.236C127.458 87.5312 133.405 81.8574 140.991 81.5685C144.57 81.3947 148.088 82.5433 150.876 84.7956Z" fill="white"/>
</g>
<path d="M141.922 100.07C145.9 99.9181 149.017 96.9447 148.883 93.4284C148.749 89.912 145.415 87.1844 141.437 87.3359C137.459 87.4875 134.342 90.4609 134.476 93.9772C134.61 97.4935 137.944 100.221 141.922 100.07Z" fill="#EB8B00"/>
<g opacity="0.55">
<path d="M146.666 89.0696C147.508 89.5859 148.212 90.2986 148.717 91.1468C149.222 91.995 149.514 92.9531 149.568 93.9389C149.615 95.3559 149.148 96.7422 148.253 97.8424C149.281 99.141 147.263 100.735 145.921 99.7299C144.893 100.254 143.762 100.547 142.608 100.586C140.7 100.679 138.826 100.054 137.356 98.8335C138.712 99.7127 140.308 100.147 141.922 100.074C143.725 100.109 145.468 99.4301 146.772 98.1849C148.075 96.9397 148.834 95.2296 148.882 93.4274C148.841 92.5859 148.622 91.7627 148.24 91.0117C147.858 90.2606 147.322 89.5988 146.666 89.0696Z" fill="white"/>
</g>
<g opacity="0.3">
<path d="M141.438 87.3283C142.433 87.2773 143.428 87.4231 144.367 87.7575C145.305 88.0919 146.168 88.6083 146.907 89.277C145.603 88.5019 144.101 88.1252 142.586 88.1934C140.784 88.1581 139.042 88.8363 137.738 90.0802C136.434 91.324 135.675 93.0327 135.626 94.8339C135.664 95.6251 135.86 96.4008 136.201 97.1154C136.543 97.8301 137.024 98.4693 137.617 98.9955C136.713 98.489 135.952 97.7628 135.403 96.8842C134.854 96.0056 134.536 95.0028 134.478 93.9687C134.527 92.1675 135.286 90.4588 136.59 89.2149C137.893 87.9711 139.636 87.293 141.438 87.3283Z" fill="#390075"/>
</g>
<path d="M142.029 105.84C149.617 105.551 155.561 99.8797 155.306 93.1727C155.05 86.4657 148.692 81.2629 141.104 81.552C133.515 81.8411 127.571 87.5125 127.826 94.2195C128.082 100.927 134.441 106.129 142.029 105.84Z" stroke="#573811" stroke-width="2.13252" stroke-linecap="round" stroke-linejoin="round"/>
<path d="M105.348 100.433C112.936 100.144 118.881 94.4725 118.625 87.7655C118.37 81.0585 112.011 75.8557 104.423 76.1448C96.8346 76.4339 90.8902 82.1053 91.1457 88.8123C91.4012 95.5193 97.7599 100.722 105.348 100.433Z" fill="#FFDD1D"/>
<g opacity="0.55">
<path d="M114.083 79.3734C111.843 78.2941 109.371 77.7837 106.886 77.8873C104.153 77.977 101.497 78.8154 99.2078 80.3112C100.884 82.302 97.9993 84.8955 95.7488 83.6114C94.2795 85.6216 93.5262 88.0662 93.609 90.5547C93.6874 92.1761 94.1111 93.7619 94.8518 95.2063C95.5925 96.6506 96.6329 97.9201 97.9038 98.9299C95.9309 98.0368 94.2385 96.6234 93.0083 94.8411C91.7781 93.0588 91.0564 90.9751 90.921 88.8137C90.6656 82.1089 96.6123 76.4351 104.198 76.1461C107.777 75.9723 111.296 77.121 114.083 79.3734Z" fill="white"/>
</g>
<path d="M105.128 94.652C109.106 94.5005 112.223 91.527 112.089 88.0107C111.955 84.4943 108.621 81.7667 104.643 81.9182C100.664 82.0698 97.548 85.0431 97.682 88.5595C97.816 92.0758 101.15 94.8036 105.128 94.652Z" fill="#EB8B00"/>
<g opacity="0.55">
<path d="M109.872 83.647C110.714 84.1632 111.418 84.876 111.923 85.7242C112.428 86.5724 112.72 87.5306 112.774 88.5164C112.821 89.9335 112.354 91.3196 111.46 92.4198C112.487 93.7184 110.469 95.3123 109.127 94.3073C108.099 94.8317 106.968 95.1239 105.814 95.1632C103.906 95.2564 102.032 94.6313 100.562 93.411C101.918 94.2902 103.514 94.7239 105.128 94.6517C106.931 94.6867 108.674 94.0076 109.978 92.7624C111.282 91.5172 112.04 89.807 112.088 88.0048C112.047 87.1633 111.828 86.3401 111.446 85.589C111.064 84.838 110.528 84.1762 109.872 83.647Z" fill="white"/>
</g>
<g opacity="0.3">
<path d="M104.642 81.922C105.637 81.871 106.633 82.0169 107.571 82.3513C108.51 82.6858 109.373 83.2021 110.112 83.8708C108.808 83.0957 107.306 82.719 105.791 82.7873C103.989 82.752 102.247 83.4301 100.943 84.6739C99.6394 85.9178 98.88 87.6264 98.8306 89.4276C98.8687 90.2189 99.0645 90.9947 99.4063 91.7093C99.7482 92.4239 100.229 93.063 100.821 93.5892C99.9178 93.0828 99.1565 92.3567 98.6078 91.4781C98.0592 90.5994 97.7411 89.5967 97.6826 88.5625C97.732 86.7613 98.4912 85.0525 99.7949 83.8087C101.099 82.5648 102.841 81.8867 104.642 81.922Z" fill="#390075"/>
</g>
<path d="M105.236 100.433C112.824 100.144 118.769 94.4725 118.513 87.7655C118.258 81.0585 111.899 75.8557 104.311 76.1448C96.7226 76.4339 90.7784 82.1053 91.0339 88.8123C91.2894 95.5193 97.6479 100.722 105.236 100.433Z" stroke="#573811" stroke-width="2.13252" stroke-linecap="round" stroke-linejoin="round"/>
<path d="M116.055 110.477C123.644 110.188 129.588 104.516 129.333 97.8092C129.077 91.1022 122.718 85.8994 115.13 86.1885C107.542 86.4776 101.598 92.149 101.853 98.856C102.109 105.563 108.467 110.766 116.055 110.477Z" fill="#FFDD1D"/>
<g opacity="0.55">
<path d="M124.788 89.4247C122.548 88.3454 120.076 87.835 117.591 87.9386C114.858 88.0283 112.203 88.8667 109.913 90.3624C111.59 92.3533 108.705 94.9468 106.454 93.6627C104.985 95.6729 104.232 98.1175 104.314 100.606C104.393 102.227 104.816 103.813 105.557 105.257C106.298 106.702 107.338 107.971 108.609 108.981C106.636 108.088 104.944 106.675 103.714 104.892C102.483 103.11 101.762 101.026 101.627 98.8649C101.371 92.1601 107.318 86.4864 114.904 86.1974C118.483 86.0236 122.001 87.1723 124.788 89.4247Z" fill="white"/>
</g>
<path d="M115.834 104.701C119.813 104.55 122.929 101.576 122.796 98.0597C122.662 94.5434 119.328 91.8157 115.349 91.9673C111.371 92.1188 108.255 95.0922 108.389 98.6086C108.522 102.125 111.856 104.853 115.834 104.701Z" fill="#EB8B00"/>
<g opacity="0.55">
<path d="M120.58 93.6936C121.421 94.2099 122.125 94.9227 122.63 95.7708C123.135 96.619 123.427 97.5772 123.481 98.563C123.528 99.9801 123.061 101.366 122.167 102.466C123.194 103.765 121.176 105.359 119.834 104.354C118.806 104.878 117.675 105.171 116.521 105.21C114.613 105.303 112.739 104.678 111.269 103.458C112.625 104.337 114.221 104.771 115.835 104.698C117.638 104.733 119.381 104.054 120.685 102.809C121.989 101.564 122.747 99.8536 122.795 98.0514C122.754 97.2099 122.535 96.3867 122.153 95.6357C121.772 94.8847 121.235 94.2228 120.58 93.6936Z" fill="white"/>
</g>
<g opacity="0.3">
<path d="M115.35 91.9628C116.345 91.9118 117.341 92.0577 118.279 92.3921C119.218 92.7265 120.081 93.2428 120.82 93.9115C119.516 93.1364 118.014 92.7598 116.498 92.828C114.697 92.7927 112.954 93.4708 111.651 94.7147C110.347 95.9585 109.588 97.6672 109.538 99.4684C109.576 100.26 109.772 101.035 110.114 101.75C110.456 102.465 110.937 103.104 111.529 103.63C110.626 103.124 109.864 102.397 109.316 101.519C108.767 100.64 108.449 99.6375 108.39 98.6033C108.439 96.8021 109.199 95.0933 110.502 93.8495C111.806 92.6056 113.549 91.9275 115.35 91.9628Z" fill="#390075"/>
</g>
<path d="M115.942 110.477C123.53 110.188 129.474 104.516 129.219 97.8092C128.963 91.1022 122.605 85.8994 115.017 86.1885C107.428 86.4776 101.484 92.149 101.739 98.856C101.995 105.563 108.354 110.766 115.942 110.477Z" stroke="#573811" stroke-width="2.13252" stroke-linecap="round" stroke-linejoin="round"/>
<path d="M169.529 111.471C176.347 111.211 181.667 105.564 181.412 98.8565C181.156 92.1495 175.422 86.923 168.604 87.1828C161.786 87.4425 156.466 93.0902 156.721 99.7972C156.977 106.504 162.711 111.731 169.529 111.471Z" fill="#FFDD1D"/>
<g opacity="0.55">
<path d="M177.297 90.4547C175.214 89.3216 172.853 88.8029 170.487 88.9588C168.121 89.1146 165.848 89.9387 163.932 91.3352C164.229 91.7704 164.367 92.2935 164.326 92.8183C164.284 93.3431 164.065 93.838 163.704 94.2212C163.343 94.6044 162.862 94.8529 162.341 94.9257C161.819 94.9985 161.289 94.8912 160.837 94.6215C159.306 97.0003 158.667 99.8439 159.032 102.649C159.398 105.454 160.744 108.039 162.833 109.946C160.992 108.947 159.443 107.487 158.336 105.709C157.23 103.931 156.603 101.897 156.518 99.8043C156.472 97.3779 157.14 94.9913 158.438 92.9409C159.736 90.8905 161.608 89.2665 163.821 88.2707C166.034 87.2748 168.491 86.951 170.887 87.3393C173.283 87.7276 175.511 88.8108 177.297 90.4547Z" fill="white"/>
</g>
<path d="M169.31 105.691C172.884 105.555 175.673 102.594 175.539 99.0775C175.405 95.5612 172.399 92.8209 168.824 92.9571C165.25 93.0932 162.461 96.0542 162.595 99.5706C162.729 103.087 165.735 105.827 169.31 105.691Z" fill="#EB8B00"/>
<g opacity="0.55">
<path d="M173.531 94.7026C174.887 95.6741 175.803 97.1439 176.076 98.7895C176.35 100.435 175.96 102.122 174.991 103.48C175.17 103.765 175.242 104.103 175.195 104.435C175.148 104.768 174.986 105.073 174.736 105.298C174.487 105.522 174.166 105.651 173.831 105.662C173.495 105.673 173.167 105.566 172.903 105.358C171.688 106.046 170.285 106.326 168.9 106.159C167.514 105.992 166.218 105.386 165.202 104.429C166.389 105.303 167.838 105.746 169.31 105.687C170.154 105.662 170.984 105.47 171.754 105.124C172.524 104.778 173.217 104.283 173.796 103.668C174.374 103.054 174.826 102.331 175.125 101.542C175.424 100.753 175.565 99.9121 175.539 99.0685C175.475 97.4045 174.753 95.8341 173.531 94.7026Z" fill="white"/>
</g>
<g opacity="0.3">
<path d="M168.824 92.9471C169.737 92.9086 170.648 93.0643 171.497 93.4038C172.345 93.7433 173.112 94.259 173.747 94.9168C172.761 94.2536 171.612 93.8737 170.425 93.8183C169.238 93.763 168.059 94.0344 167.016 94.6029C165.972 95.1714 165.105 96.0152 164.508 97.0426C163.911 98.0699 163.608 99.2414 163.63 100.429C163.691 101.995 164.335 103.482 165.435 104.598C164.596 104.044 163.9 103.298 163.406 102.422C162.912 101.546 162.634 100.565 162.595 99.5597C162.545 97.8569 163.172 96.2038 164.341 94.9637C165.509 93.7237 167.121 92.9983 168.824 92.9471Z" fill="#390075"/>
</g>
<path d="M169.429 111.471C176.247 111.211 181.567 105.564 181.311 98.8565C181.056 92.1495 175.321 86.923 168.503 87.1828C161.685 87.4425 156.365 93.0902 156.621 99.7972C156.876 106.504 162.61 111.731 169.429 111.471Z" stroke="#573811" stroke-width="2.13252" stroke-linecap="round" stroke-linejoin="round"/>
<path d="M86.5851 97.1551L88.4099 93.535C88.5348 93.2872 88.7073 93.0664 88.9175 92.8852C89.1278 92.7041 89.3715 92.5662 89.6351 92.4793C89.8986 92.3924 90.1768 92.3582 90.4535 92.3788C90.7303 92.3993 91.0002 92.4743 91.2481 92.5992L109.154 101.625C109.402 101.75 109.623 101.922 109.804 102.132C109.985 102.343 110.123 102.586 110.21 102.85C110.297 103.114 110.331 103.392 110.31 103.668C110.29 103.945 110.215 104.215 110.09 104.463L108.265 108.083C108.013 108.584 107.572 108.963 107.04 109.139C106.507 109.314 105.927 109.271 105.427 109.019L87.5209 99.9935C87.0204 99.7412 86.6406 99.3005 86.4651 98.7682C86.2896 98.2359 86.3328 97.6556 86.5851 97.1551Z" fill="#F9C710"/>
<g opacity="0.55">
<path d="M105.763 100.007L102.655 98.4412L99.082 105.53L102.189 107.096L105.763 100.007Z" fill="white"/>
</g>
<path d="M95.2954 94.7387L89.5503 91.8428L85.9771 98.9316L91.7223 101.827L95.2954 94.7387Z" fill="#F89F1D"/>
<g opacity="0.55">
<path d="M108.792 101.731L106.985 100.821L103.412 107.909L105.219 108.82L108.792 101.731Z" fill="white"/>
</g>
<path d="M88.2232 93.2691L86.3985 96.8892C85.8732 97.9314 86.2921 99.2022 87.3343 99.7275L105.24 108.753C106.282 109.278 107.553 108.859 108.078 107.817L109.903 104.197C110.429 103.155 110.009 101.884 108.967 101.359L91.0614 92.3333C90.0192 91.808 88.7486 92.2269 88.2232 93.2691Z" stroke="#573811" stroke-width="2.13252" stroke-linecap="round" stroke-linejoin="round"/>
<path d="M117.914 100.871L135.152 90.6272C135.634 90.3409 136.209 90.2577 136.752 90.396C137.296 90.5342 137.762 90.8825 138.048 91.3643L140.119 94.8494C140.405 95.3312 140.488 95.9071 140.35 96.4503C140.212 96.9935 139.864 97.4594 139.382 97.7458L122.144 107.989C121.662 108.276 121.086 108.359 120.543 108.221C120 108.082 119.534 107.734 119.248 107.252L117.177 103.767C116.89 103.285 116.807 102.709 116.945 102.166C117.084 101.623 117.432 101.157 117.914 100.871Z" fill="#F9C710"/>
<g opacity="0.55">
<path d="M131.969 92.6103L128.977 94.3881L133.033 101.212L136.024 99.4347L131.969 92.6103Z" fill="white"/>
</g>
<path d="M121.892 98.611L116.361 101.898L120.416 108.722L125.947 105.435L121.892 98.611Z" fill="#F89F1D"/>
<g opacity="0.55">
<path d="M135.047 90.9828L133.308 92.0164L137.363 98.8408L139.102 97.8073L135.047 90.9828Z" fill="white"/>
</g>
<path d="M134.828 90.6431L117.59 100.887C116.587 101.483 116.257 102.78 116.853 103.783L118.924 107.268C119.52 108.271 120.817 108.601 121.82 108.005L139.058 97.7616C140.062 97.1654 140.392 95.8686 139.795 94.8653L137.724 91.3803C137.128 90.3769 135.831 90.0469 134.828 90.6431Z" stroke="#573811" stroke-width="2.13252" stroke-linecap="round" stroke-linejoin="round"/>
<path d="M149.661 99.1092L151.103 95.3202C151.302 94.7963 151.701 94.373 152.213 94.1436C152.724 93.9141 153.306 93.8972 153.829 94.0965L172.571 101.227C173.094 101.426 173.518 101.825 173.747 102.337C173.977 102.848 173.994 103.43 173.794 103.954L172.353 107.743C172.254 108.002 172.105 108.239 171.915 108.441C171.724 108.643 171.496 108.805 171.243 108.919C170.99 109.033 170.717 109.095 170.439 109.103C170.162 109.112 169.886 109.065 169.626 108.966L150.885 101.836C150.361 101.636 149.938 101.237 149.708 100.726C149.479 100.215 149.462 99.6331 149.661 99.1092Z" fill="#F9C710"/>
<g opacity="0.55">
<path d="M169.031 99.9721L165.778 98.7347L162.955 106.154L166.208 107.392L169.031 99.9721Z" fill="white"/>
</g>
<path d="M158.076 95.8056L152.062 93.5178L149.24 100.937L155.253 103.225L158.076 95.8056Z" fill="#F89F1D"/>
<g opacity="0.55">
<path d="M172.221 101.375L170.331 100.655L167.508 108.075L169.399 108.794L172.221 101.375Z" fill="white"/>
</g>
<path d="M149.448 98.8641L150.889 95.0751C150.988 94.8157 151.137 94.5784 151.327 94.3765C151.518 94.1746 151.746 94.0123 151.999 93.8987C152.252 93.785 152.526 93.7224 152.803 93.7143C153.08 93.7062 153.357 93.7529 153.616 93.8516L172.357 100.982C172.881 101.181 173.304 101.58 173.534 102.092C173.763 102.603 173.78 103.185 173.581 103.708L172.139 107.498C171.94 108.021 171.541 108.445 171.029 108.674C170.518 108.904 169.937 108.921 169.413 108.721L150.671 101.591C150.148 101.392 149.724 100.992 149.495 100.481C149.265 99.9697 149.248 99.388 149.448 98.8641Z" stroke="#573811" stroke-width="2.13252" stroke-linecap="round" stroke-linejoin="round"/>
<path d="M179.546 114.15L177.426 138.095C175.944 137.709 174.393 137.668 172.893 137.974C171.393 138.281 169.983 138.927 168.772 139.864C167.56 140.801 166.58 142.003 165.906 143.378C165.232 144.752 164.882 146.264 164.883 147.795C164.881 148.394 164.935 148.991 165.042 149.58H102.964C103.071 148.991 103.124 148.394 103.123 147.795C103.123 146.25 102.765 144.726 102.078 143.343C101.391 141.959 100.394 140.753 99.1638 139.818C97.9338 138.884 96.5046 138.246 94.9874 137.955C93.4703 137.664 91.9065 137.728 90.418 138.141L88.4116 114.051C89.1297 114.21 89.8628 114.29 90.5981 114.29C92.2051 114.289 93.7885 113.902 95.2146 113.161C96.6407 112.42 97.8678 111.347 98.7924 110.033C99.717 108.718 100.312 107.201 100.527 105.608C100.742 104.016 100.571 102.395 100.029 100.882H168.446C167.856 102.528 167.706 104.3 168.012 106.023C168.319 107.745 169.07 109.357 170.192 110.698C171.315 112.04 172.769 113.064 174.409 113.67C176.05 114.276 177.821 114.441 179.546 114.15Z" fill="#FFD553"/>
<path d="M165.043 149.723H102.965C102.944 149.723 102.924 149.718 102.905 149.709C102.887 149.7 102.87 149.688 102.857 149.672C102.844 149.656 102.834 149.638 102.829 149.618C102.824 149.598 102.823 149.577 102.827 149.557C103.145 147.795 102.979 145.98 102.349 144.305C101.477 141.997 99.7735 140.099 97.5728 138.983C95.3721 137.868 92.8337 137.616 90.4568 138.278C90.4369 138.283 90.416 138.284 90.3956 138.281C90.3752 138.278 90.356 138.27 90.339 138.258C90.322 138.246 90.3079 138.231 90.2976 138.213C90.2872 138.195 90.2808 138.175 90.2791 138.154L88.273 114.065C88.2711 114.043 88.2745 114.021 88.2827 114C88.2909 113.98 88.3037 113.962 88.3202 113.948C88.3367 113.933 88.3564 113.923 88.3777 113.917C88.399 113.912 88.4214 113.911 88.4428 113.916C89.7297 114.204 91.0611 114.231 92.3586 113.995C93.6561 113.76 94.8935 113.268 95.9979 112.547C97.1022 111.827 98.051 110.893 98.7887 109.8C99.5264 108.707 100.038 107.477 100.293 106.183C100.637 104.429 100.5 102.614 99.8978 100.931C99.8902 100.91 99.8877 100.887 99.8907 100.865C99.8937 100.843 99.902 100.821 99.915 100.803C99.9279 100.785 99.9451 100.77 99.9651 100.759C99.9851 100.749 100.007 100.743 100.03 100.743H168.447C168.47 100.743 168.492 100.749 168.512 100.759C168.532 100.77 168.549 100.785 168.562 100.803C168.575 100.821 168.584 100.843 168.587 100.865C168.59 100.887 168.587 100.91 168.579 100.931C167.977 102.614 167.841 104.429 168.184 106.183C168.512 107.814 169.243 109.336 170.312 110.611C171.38 111.886 172.751 112.873 174.299 113.481C175.44 113.926 176.654 114.154 177.878 114.151C178.43 114.151 178.98 114.105 179.524 114.014C179.545 114.01 179.567 114.011 179.588 114.017C179.608 114.024 179.627 114.034 179.643 114.049C179.658 114.064 179.671 114.082 179.678 114.102C179.686 114.122 179.689 114.143 179.687 114.164L177.566 138.109C177.565 138.13 177.558 138.149 177.548 138.167C177.538 138.184 177.524 138.2 177.508 138.211C177.491 138.223 177.472 138.231 177.452 138.235C177.432 138.239 177.411 138.238 177.392 138.233C175.031 137.619 172.528 137.9 170.362 139.021C168.196 140.142 166.521 142.024 165.659 144.305C165.238 145.421 165.022 146.604 165.024 147.797C165.023 148.387 165.076 148.976 165.181 149.557C165.185 149.577 165.184 149.598 165.179 149.618C165.174 149.638 165.164 149.656 165.151 149.672C165.138 149.688 165.122 149.7 165.103 149.709C165.084 149.718 165.064 149.723 165.043 149.723ZM103.132 149.442H164.876C164.589 147.681 164.769 145.876 165.397 144.206C166.273 141.887 167.967 139.968 170.159 138.81C172.352 137.653 174.892 137.336 177.301 137.921L179.392 114.319C178.891 114.394 178.385 114.432 177.878 114.432C176.619 114.434 175.37 114.2 174.197 113.743C172.288 113.002 170.647 111.701 169.491 110.011C168.335 108.321 167.717 106.32 167.719 104.272C167.717 103.168 167.897 102.07 168.25 101.024H100.227C100.798 102.716 100.913 104.53 100.56 106.281C100.207 108.032 99.3982 109.659 98.216 110.998C97.0337 112.337 95.5193 113.34 93.8255 113.908C92.1317 114.475 90.3182 114.586 88.568 114.229L90.5449 137.963C92.972 137.331 95.5472 137.619 97.775 138.771C100.003 139.924 101.725 141.859 102.611 144.206C103.239 145.876 103.419 147.681 103.132 149.442Z" fill="#390075"/>
<path d="M179.546 114.15L177.426 138.095C175.944 137.709 174.393 137.668 172.893 137.974C171.393 138.281 169.983 138.927 168.772 139.864C167.56 140.801 166.58 142.003 165.906 143.378C165.232 144.752 164.882 146.264 164.883 147.795C164.881 148.394 164.935 148.991 165.042 149.58H102.964C103.071 148.991 103.124 148.394 103.123 147.795C103.123 146.25 102.765 144.726 102.078 143.343C101.391 141.959 100.394 140.753 99.1638 139.818C97.9338 138.884 96.5046 138.246 94.9874 137.955C93.4703 137.664 91.9065 137.728 90.418 138.141L88.4116 114.051C89.1297 114.21 89.8628 114.29 90.5981 114.29C92.2051 114.289 93.7885 113.902 95.2146 113.161C96.6407 112.42 97.8678 111.347 98.7924 110.033C99.717 108.718 100.312 107.201 100.527 105.608C100.742 104.016 100.571 102.395 100.029 100.882H168.446C167.856 102.528 167.706 104.3 168.012 106.023C168.319 107.745 169.07 109.357 170.192 110.698C171.315 112.04 172.769 113.064 174.409 113.67C176.05 114.276 177.821 114.441 179.546 114.15Z" fill="#33AEF1"/>
<path d="M174.248 113.616L174.035 116.034L172.072 138.187C170.586 138.626 169.223 139.403 168.087 140.456C166.952 141.51 166.076 142.811 165.527 144.26H102.48C101.92 142.784 101.021 141.46 99.8544 140.397C98.6879 139.333 97.287 138.56 95.7655 138.139L93.7363 113.794C95.4231 113.236 96.9316 112.241 98.1077 110.909C99.2838 109.577 100.085 107.957 100.43 106.215H168.046C168.374 107.87 169.114 109.417 170.198 110.711C171.282 112.005 172.675 113.004 174.248 113.616Z" fill="#FFA600"/>
<g opacity="0.3">
<path d="M174.036 116.032L173.995 116.478C173.382 116.221 172.797 115.902 172.248 115.527C172.826 115.751 173.425 115.92 174.036 116.032Z" fill="#6B184E"/>
<path d="M173.995 116.621C173.976 116.621 173.958 116.617 173.941 116.61C173.319 116.349 172.725 116.025 172.168 115.645C172.14 115.625 172.119 115.596 172.111 115.563C172.103 115.529 172.107 115.494 172.123 115.464C172.139 115.433 172.166 115.41 172.198 115.398C172.23 115.386 172.265 115.386 172.298 115.398C172.868 115.619 173.458 115.786 174.06 115.896C174.095 115.902 174.126 115.921 174.147 115.949C174.168 115.977 174.178 116.012 174.175 116.047L174.135 116.493C174.133 116.515 174.125 116.536 174.114 116.555C174.102 116.573 174.086 116.589 174.067 116.601C174.045 116.614 174.02 116.621 173.995 116.621ZM173.365 116.032C173.532 116.118 173.701 116.199 173.873 116.275L173.884 116.148C173.711 116.115 173.538 116.076 173.365 116.032Z" fill="#390075"/>
</g>
<g opacity="0.1">
<path d="M108.262 127.072C107.6 127.076 106.942 126.961 106.32 126.732C105.332 126.276 104.449 125.62 103.726 124.806C103.004 123.991 102.458 123.036 102.123 122C101.814 121.219 101.566 120.414 101.326 119.634C101.018 118.53 100.622 117.452 100.141 116.411C99.337 114.827 98.1305 113.482 96.6424 112.512C96.5727 112.467 96.5128 112.407 96.4661 112.338C96.4193 112.269 96.3866 112.191 96.37 112.11C96.3533 112.028 96.3529 111.944 96.3689 111.862C96.3848 111.78 96.4167 111.702 96.4628 111.632C96.5089 111.563 96.5684 111.503 96.6377 111.457C96.7069 111.41 96.7845 111.378 96.8663 111.361C96.9481 111.345 97.0324 111.345 97.1142 111.361C97.1961 111.377 97.274 111.41 97.3433 111.456C99.0174 112.549 100.374 114.063 101.277 115.847C101.789 116.949 102.21 118.091 102.538 119.261C102.771 120.017 103.012 120.799 103.303 121.535C103.576 122.403 104.023 123.206 104.617 123.895C105.212 124.584 105.94 125.145 106.759 125.543C107.811 125.783 108.903 125.783 109.955 125.543C111.006 125.302 111.99 124.827 112.832 124.153C113.37 123.798 113.909 123.407 114.431 123.028C115.801 121.922 117.336 121.036 118.978 120.402C121.49 119.575 124.76 120.212 125.888 122.709C125.923 122.784 125.942 122.866 125.945 122.95C125.948 123.033 125.934 123.116 125.904 123.194C125.875 123.272 125.831 123.344 125.774 123.405C125.717 123.465 125.648 123.514 125.572 123.549C125.496 123.583 125.414 123.602 125.331 123.605C125.247 123.607 125.164 123.594 125.086 123.564C125.008 123.534 124.937 123.49 124.876 123.433C124.815 123.375 124.767 123.307 124.733 123.231C123.909 121.409 121.31 120.969 119.375 121.606C117.858 122.2 116.441 123.026 115.176 124.054C114.643 124.441 114.092 124.842 113.529 125.212C111.985 126.318 110.159 126.964 108.262 127.072Z" fill="#390075"/>
<path d="M111.697 120.543C111.03 120.549 110.371 120.392 109.779 120.084C107.694 118.977 107.299 116.519 106.95 114.35C106.858 113.778 106.772 113.238 106.658 112.723C106.097 110.328 104.718 108.204 102.76 106.716C102.627 106.613 102.541 106.462 102.519 106.296C102.498 106.13 102.543 105.961 102.645 105.828C102.747 105.695 102.897 105.608 103.063 105.586C103.23 105.563 103.398 105.608 103.532 105.709C105.736 107.371 107.283 109.759 107.897 112.451C108.018 113.001 108.112 113.585 108.202 114.148C108.533 116.208 108.846 118.153 110.373 118.964C110.913 119.203 111.505 119.301 112.094 119.25C112.683 119.199 113.249 119 113.74 118.671C114.815 117.933 115.705 116.956 116.339 115.817C116.807 115.062 117.242 114.256 117.662 113.476C118.413 111.968 119.313 110.538 120.348 109.208C121.256 108.087 122.401 107.181 123.7 106.554C124.999 105.927 126.421 105.594 127.863 105.58C127.947 105.586 128.028 105.608 128.102 105.646C128.177 105.683 128.243 105.735 128.298 105.798C128.352 105.861 128.394 105.935 128.42 106.014C128.446 106.093 128.456 106.177 128.45 106.26C128.444 106.343 128.422 106.424 128.384 106.499C128.346 106.573 128.294 106.64 128.231 106.694C128.168 106.748 128.094 106.789 128.015 106.815C127.936 106.841 127.852 106.851 127.769 106.845C126.529 106.876 125.31 107.176 124.197 107.724C123.084 108.272 122.104 109.055 121.323 110.019C120.342 111.284 119.489 112.644 118.779 114.078C118.349 114.874 117.906 115.697 117.418 116.485C116.682 117.796 115.648 118.916 114.4 119.754C113.588 120.259 112.653 120.532 111.697 120.543Z" fill="#390075"/>
<path d="M112.9 114.123C112.055 114.065 111.244 113.768 110.56 113.268C109.876 112.768 109.347 112.085 109.035 111.297C108.465 109.648 108.308 107.884 108.578 106.161L108.593 105.976C108.607 105.809 108.686 105.654 108.814 105.545C108.942 105.436 109.107 105.383 109.274 105.396C109.442 105.409 109.597 105.488 109.706 105.615C109.815 105.742 109.87 105.907 109.857 106.074L109.842 106.262C109.6 107.782 109.723 109.339 110.202 110.802C110.439 111.454 110.892 112.006 111.486 112.364C112.08 112.723 112.779 112.867 113.467 112.773C113.943 112.566 114.369 112.26 114.717 111.875C115.065 111.49 115.327 111.035 115.486 110.54C115.649 110.145 115.785 109.739 115.929 109.308C116.162 108.526 116.475 107.77 116.862 107.051C117.155 106.546 117.534 106.097 117.982 105.723C118.112 105.616 118.279 105.565 118.446 105.582C118.614 105.598 118.768 105.68 118.874 105.81C118.981 105.94 119.032 106.107 119.016 106.274C119 106.441 118.917 106.596 118.788 106.702C118.456 106.98 118.175 107.314 117.958 107.689C117.615 108.333 117.338 109.011 117.132 109.711C116.987 110.143 116.838 110.589 116.658 111.025C116.432 111.696 116.061 112.309 115.572 112.821C115.083 113.334 114.487 113.732 113.828 113.989C113.527 114.078 113.214 114.123 112.9 114.123Z" fill="#390075"/>
<path d="M127.03 117.471C126.898 117.471 126.769 117.429 126.662 117.353C126.554 117.276 126.474 117.168 126.431 117.043C126.154 116.005 126.243 114.903 126.684 113.923C127.124 112.943 127.889 112.144 128.849 111.661C130.686 110.81 132.777 110.682 134.705 111.301C135.882 111.651 137.034 112.083 138.152 112.593C138.728 112.84 139.324 113.096 139.914 113.322C144.948 115.245 150.487 115.393 155.616 113.74C160.089 112.272 164.028 109.517 166.94 105.819C166.992 105.753 167.055 105.698 167.128 105.657C167.201 105.616 167.281 105.589 167.364 105.579C167.447 105.569 167.531 105.575 167.611 105.598C167.692 105.62 167.767 105.658 167.833 105.71C167.898 105.761 167.953 105.825 167.994 105.898C168.035 105.971 168.061 106.051 168.071 106.134C168.081 106.217 168.074 106.301 168.051 106.382C168.028 106.462 167.99 106.537 167.938 106.602C164.869 110.498 160.719 113.4 156.007 114.946C150.602 116.689 144.765 116.533 139.46 114.506C138.847 114.272 138.24 114.011 137.652 113.758C136.588 113.271 135.492 112.859 134.371 112.525C132.755 111.995 130.999 112.086 129.446 112.78C128.755 113.123 128.199 113.69 127.87 114.389C127.54 115.087 127.455 115.877 127.629 116.629C127.662 116.725 127.672 116.827 127.657 116.927C127.643 117.027 127.605 117.122 127.546 117.204C127.487 117.286 127.41 117.354 127.32 117.4C127.23 117.446 127.131 117.47 127.03 117.471Z" fill="#390075"/>
<path d="M147.007 109.414C146.004 109.434 145.016 109.171 144.156 108.655C143.296 108.14 142.598 107.392 142.144 106.498C142.131 106.473 142.12 106.449 142.11 106.424C142.046 106.269 142.046 106.096 142.109 105.941C142.173 105.787 142.295 105.663 142.449 105.598C142.603 105.533 142.777 105.531 142.932 105.594C143.087 105.656 143.211 105.776 143.278 105.93L143.291 105.958C143.669 106.669 144.246 107.254 144.952 107.641C145.658 108.029 146.462 108.202 147.264 108.138C148.988 107.964 150.577 107.131 151.702 105.813L151.747 105.765C151.865 105.649 152.024 105.584 152.189 105.583C152.355 105.583 152.514 105.647 152.633 105.762C152.752 105.877 152.821 106.034 152.826 106.199C152.83 106.365 152.77 106.526 152.658 106.647L152.637 106.67C151.29 108.232 149.391 109.212 147.338 109.405C147.228 109.411 147.117 109.414 147.007 109.414Z" fill="#390075"/>
<path d="M172.69 131.851C172.633 131.851 172.577 131.844 172.523 131.829C170.343 131.241 168.296 130.239 166.493 128.879C164.208 127.282 162.571 124.918 161.879 122.217C161.6 120.869 161.648 119.474 162.019 118.149C162.389 116.823 163.072 115.606 164.01 114.599C164.948 113.591 166.113 112.823 167.409 112.359C168.704 111.895 170.092 111.747 171.456 111.93C171.623 111.952 171.773 112.04 171.875 112.173C171.977 112.307 172.022 112.475 172 112.642C171.978 112.808 171.891 112.959 171.757 113.061C171.624 113.163 171.456 113.209 171.289 113.187C170.126 113.031 168.942 113.157 167.837 113.553C166.732 113.949 165.739 114.603 164.939 115.462C164.139 116.321 163.556 117.36 163.24 118.49C162.924 119.62 162.883 120.81 163.121 121.959C163.749 124.36 165.217 126.456 167.258 127.867C168.932 129.13 170.832 130.059 172.856 130.605C173.004 130.645 173.133 130.738 173.218 130.866C173.303 130.994 173.338 131.149 173.318 131.301C173.298 131.453 173.223 131.593 173.107 131.694C172.992 131.795 172.843 131.851 172.69 131.851Z" fill="#390075"/>
<path d="M173.166 126.48C173.097 126.48 173.028 126.468 172.963 126.446C172.218 126.197 171.522 125.823 170.903 125.341C169.595 124.308 168.696 122.845 168.366 121.212C168.197 120.543 168.191 119.843 168.348 119.171C168.505 118.499 168.821 117.874 169.269 117.35C169.988 116.662 170.935 116.261 171.929 116.224C172.64 116.191 173.352 116.241 174.051 116.372C174.217 116.4 174.364 116.492 174.462 116.628C174.559 116.765 174.599 116.934 174.572 117.1C174.545 117.265 174.454 117.413 174.318 117.511C174.182 117.61 174.013 117.65 173.847 117.624C173.245 117.509 172.63 117.464 172.017 117.489C171.334 117.506 170.681 117.77 170.179 118.234C169.875 118.612 169.665 119.057 169.566 119.532C169.467 120.007 169.482 120.499 169.61 120.967C169.88 122.302 170.615 123.498 171.684 124.341C172.191 124.736 172.76 125.041 173.369 125.245C173.511 125.293 173.632 125.39 173.71 125.519C173.787 125.648 173.816 125.8 173.792 125.948C173.767 126.097 173.691 126.232 173.576 126.329C173.462 126.426 173.316 126.48 173.166 126.48Z" fill="#390075"/>
<path d="M138.901 144.898C138.771 144.898 138.644 144.858 138.537 144.784C138.43 144.709 138.349 144.604 138.305 144.482C138.26 144.36 138.254 144.227 138.287 144.101C138.32 143.976 138.392 143.863 138.491 143.779C138.874 143.455 139.234 143.104 139.568 142.728C141.322 140.507 142.713 138.022 143.69 135.366C143.851 134.993 144.012 134.62 144.174 134.249C145.333 131.027 147.312 128.162 149.917 125.938C152.601 123.947 156.997 123.181 159.856 125.684C161.424 127.333 162.48 129.401 162.897 131.639C163.069 132.232 163.247 132.845 163.443 133.421C164.37 136.127 165.919 138.578 167.965 140.576C168.086 140.694 168.154 140.854 168.156 141.022C168.158 141.19 168.093 141.352 167.976 141.473C167.858 141.593 167.698 141.662 167.53 141.664C167.361 141.665 167.199 141.601 167.079 141.483C164.891 139.345 163.234 136.724 162.242 133.83C162.037 133.226 161.855 132.599 161.678 131.992C161.32 129.991 160.398 128.134 159.021 126.638C156.662 124.573 152.958 125.261 150.672 126.957C148.252 129.054 146.414 131.741 145.336 134.757C145.174 135.126 145.014 135.496 144.855 135.867C143.83 138.651 142.365 141.252 140.516 143.571C140.142 143.991 139.739 144.385 139.309 144.748C139.195 144.845 139.05 144.898 138.901 144.898Z" fill="#390075"/>
<path d="M158.475 144.893C158.352 144.893 158.232 144.858 158.129 144.791C158.027 144.724 157.945 144.629 157.895 144.517C157.492 143.597 157.247 142.614 157.172 141.612C157.115 140.704 157.104 139.794 157.141 138.885C157.23 137.569 157.152 136.246 156.908 134.949C156.455 133.01 154.754 131.141 152.947 131.46C152.293 131.653 151.7 132.013 151.226 132.504C150.753 132.996 150.415 133.601 150.246 134.262C149.966 135.213 149.78 136.189 149.691 137.176C149.622 137.73 149.551 138.303 149.447 138.868C149.057 140.928 148.245 142.885 147.061 144.616C147.015 144.685 146.955 144.744 146.885 144.79C146.815 144.836 146.737 144.868 146.655 144.883C146.573 144.899 146.489 144.898 146.407 144.881C146.325 144.864 146.248 144.832 146.179 144.785C146.11 144.737 146.051 144.677 146.005 144.607C145.96 144.538 145.928 144.459 145.913 144.377C145.897 144.295 145.898 144.211 145.916 144.129C145.933 144.048 145.966 143.97 146.014 143.901C147.098 142.317 147.842 140.525 148.199 138.639C148.296 138.109 148.366 137.555 148.432 137.018C148.531 135.948 148.736 134.891 149.043 133.861C149.282 132.982 149.749 132.182 150.396 131.542C151.043 130.901 151.848 130.441 152.729 130.21C155.323 129.757 157.56 132.168 158.143 134.66C158.412 136.061 158.501 137.491 158.408 138.914C158.373 139.78 158.383 140.646 158.437 141.511C158.5 142.369 158.708 143.211 159.053 144C159.096 144.096 159.115 144.202 159.107 144.307C159.098 144.413 159.064 144.515 159.006 144.603C158.949 144.692 158.87 144.765 158.777 144.816C158.684 144.866 158.58 144.893 158.475 144.893Z" fill="#390075"/>
<path d="M125.008 144.896C124.868 144.897 124.733 144.85 124.622 144.765C124.511 144.68 124.431 144.561 124.395 144.426C124.359 144.291 124.368 144.148 124.422 144.019C124.476 143.89 124.571 143.782 124.692 143.712C128.735 141.391 132.538 138.676 136.048 135.607C137.144 134.738 138.084 133.687 138.825 132.5C139.163 131.955 139.374 131.342 139.443 130.705C139.513 130.068 139.439 129.423 139.227 128.818C138.806 128.055 138.17 127.434 137.397 127.032C136.624 126.63 135.749 126.467 134.883 126.561C132.987 126.805 131.168 127.463 129.554 128.489C127.925 129.378 126.283 130.324 124.695 131.238C120.818 133.588 116.786 135.672 112.627 137.476C108.272 139.357 103.567 140.295 98.8223 140.226C98.7391 140.223 98.6573 140.204 98.5815 140.169C98.5058 140.134 98.4378 140.085 98.3811 140.024C98.3244 139.963 98.2804 139.891 98.2514 139.813C98.2224 139.735 98.209 139.652 98.2121 139.569C98.2152 139.486 98.2347 139.404 98.2694 139.328C98.3041 139.252 98.3532 139.184 98.4143 139.128C98.4753 139.071 98.5471 139.027 98.6251 138.998C98.7032 138.969 98.7862 138.955 98.8694 138.959C103.434 139.021 107.961 138.115 112.15 136.301C116.255 134.518 120.235 132.46 124.062 130.139C125.656 129.221 127.304 128.271 128.948 127.375C130.725 126.259 132.727 125.549 134.811 125.295C135.937 125.186 137.071 125.417 138.066 125.956C139.06 126.496 139.871 127.32 140.395 128.324C140.682 129.106 140.79 129.943 140.71 130.772C140.63 131.602 140.365 132.403 139.934 133.116C139.125 134.433 138.092 135.599 136.882 136.562C133.31 139.686 129.438 142.449 125.323 144.812C125.227 144.867 125.119 144.897 125.008 144.896Z" fill="#390075"/>
<path d="M107.715 133.823C105.536 133.874 103.406 133.17 101.687 131.83C100.949 131.184 100.274 130.469 99.6708 129.695C99.2145 129.122 98.7242 128.577 98.2024 128.063C97.1647 127.095 95.9066 126.396 94.5373 126.025C94.3758 125.979 94.239 125.872 94.1566 125.726C94.0742 125.58 94.0529 125.407 94.0976 125.245C94.1422 125.083 94.2491 124.946 94.3948 124.863C94.5405 124.78 94.7132 124.758 94.8751 124.802C96.444 125.228 97.8849 126.031 99.0731 127.141C99.6323 127.69 100.158 128.273 100.647 128.885C101.199 129.597 101.818 130.256 102.494 130.852C103.803 131.787 105.333 132.368 106.933 132.537C108.533 132.707 110.15 132.459 111.626 131.819C114.686 130.45 117.412 128.431 119.613 125.903C119.671 125.843 119.74 125.795 119.817 125.762C119.893 125.729 119.975 125.711 120.059 125.71C120.142 125.709 120.225 125.724 120.302 125.754C120.379 125.785 120.45 125.83 120.51 125.888C120.57 125.946 120.618 126.015 120.651 126.092C120.684 126.168 120.702 126.251 120.703 126.334C120.704 126.417 120.689 126.5 120.659 126.577C120.628 126.655 120.582 126.725 120.525 126.785C118.19 129.441 115.309 131.562 112.08 133.003C110.687 133.54 109.208 133.818 107.715 133.823Z" fill="#390075"/>
<path d="M165.529 144.893H102.481C102.352 144.893 102.226 144.854 102.12 144.781C102.014 144.708 101.933 144.604 101.888 144.484C101.363 143.101 100.521 141.861 99.4284 140.865C98.3358 139.869 97.0238 139.145 95.5989 138.75C95.4736 138.716 95.3619 138.644 95.2789 138.544C95.196 138.444 95.1459 138.321 95.1351 138.191L93.1057 113.846C93.0939 113.704 93.1301 113.562 93.2088 113.443C93.2874 113.324 93.4038 113.235 93.5392 113.191C95.1198 112.67 96.5335 111.738 97.6352 110.49C98.737 109.243 99.4872 107.725 99.8091 106.092C99.8374 105.948 99.9151 105.818 100.029 105.724C100.142 105.631 100.284 105.58 100.431 105.58H168.047C168.194 105.58 168.337 105.631 168.45 105.724C168.564 105.818 168.641 105.948 168.67 106.092C168.981 107.641 169.676 109.087 170.691 110.299C171.706 111.51 173.008 112.447 174.479 113.025C174.607 113.074 174.715 113.164 174.788 113.281C174.86 113.398 174.893 113.535 174.881 113.671L172.705 138.243C172.693 138.37 172.644 138.49 172.564 138.589C172.483 138.687 172.374 138.759 172.252 138.795C170.861 139.208 169.585 139.936 168.522 140.923C167.459 141.909 166.638 143.128 166.122 144.483C166.077 144.604 165.995 144.708 165.889 144.781C165.783 144.854 165.658 144.893 165.529 144.893ZM102.909 143.625H165.1C165.691 142.248 166.564 141.01 167.662 139.991C168.761 138.973 170.061 138.195 171.479 137.71L173.576 114.023C172.093 113.361 170.78 112.371 169.734 111.129C168.688 109.886 167.938 108.423 167.539 106.848H100.94C100.526 108.513 99.716 110.053 98.5791 111.338C97.4422 112.622 96.0121 113.613 94.4101 114.227L96.3629 137.654C97.8176 138.124 99.1547 138.9 100.284 139.93C101.413 140.96 102.308 142.22 102.909 143.625Z" fill="#390075"/>
<path d="M111.814 145.035C111.659 145.035 111.509 144.978 111.393 144.874C111.278 144.771 111.204 144.629 111.186 144.474C111.168 144.32 111.207 144.165 111.296 144.037C111.385 143.91 111.517 143.82 111.668 143.784C117.046 142.503 122.006 139.865 126.076 136.123C126.137 136.067 126.209 136.023 126.287 135.995C126.365 135.966 126.448 135.953 126.532 135.956C126.615 135.96 126.696 135.98 126.772 136.015C126.848 136.05 126.915 136.099 126.972 136.161C127.028 136.222 127.072 136.294 127.101 136.372C127.129 136.45 127.142 136.533 127.139 136.616C127.135 136.7 127.116 136.781 127.08 136.857C127.045 136.932 126.996 137 126.935 137.057C122.705 140.946 117.55 143.686 111.961 145.018C111.913 145.029 111.864 145.035 111.814 145.035Z" fill="#390075"/>
<path d="M152.956 142.814C152.925 142.814 152.894 142.812 152.863 142.807C152.697 142.783 152.547 142.694 152.446 142.559C152.346 142.424 152.303 142.255 152.327 142.088L153.128 136.586C153.153 136.42 153.243 136.271 153.378 136.171C153.512 136.071 153.681 136.029 153.847 136.053C154.013 136.077 154.162 136.166 154.263 136.3C154.363 136.435 154.407 136.603 154.383 136.769L153.582 142.271C153.56 142.422 153.485 142.559 153.37 142.659C153.255 142.759 153.108 142.814 152.956 142.814Z" fill="#390075"/>
<path d="M150.04 112.644C149.652 112.644 149.265 112.62 148.88 112.572C148.797 112.562 148.718 112.535 148.645 112.494C148.573 112.453 148.509 112.398 148.458 112.332C148.407 112.266 148.369 112.191 148.347 112.111C148.325 112.031 148.319 111.947 148.33 111.864C148.34 111.781 148.366 111.702 148.407 111.629C148.449 111.557 148.504 111.493 148.569 111.442C148.635 111.391 148.71 111.354 148.791 111.331C148.871 111.309 148.955 111.303 149.037 111.314C150.358 111.467 151.696 111.315 152.949 110.869C154.202 110.423 155.335 109.696 156.262 108.743C156.32 108.682 156.389 108.634 156.465 108.601C156.541 108.567 156.623 108.549 156.706 108.547C156.79 108.545 156.872 108.559 156.95 108.59C157.028 108.62 157.098 108.665 157.159 108.722C157.219 108.78 157.267 108.849 157.301 108.925C157.334 109.001 157.353 109.083 157.355 109.166C157.356 109.249 157.342 109.332 157.312 109.41C157.282 109.488 157.237 109.559 157.179 109.619C156.25 110.573 155.14 111.332 153.914 111.851C152.688 112.371 151.371 112.64 150.04 112.644Z" fill="#390075"/>
<path d="M161.884 141.785C161.749 141.785 161.617 141.742 161.508 141.661C161.399 141.581 161.318 141.468 161.278 141.338L160.257 138.043C160.207 137.883 160.223 137.709 160.302 137.56C160.38 137.411 160.514 137.3 160.675 137.25C160.835 137.2 161.009 137.216 161.158 137.295C161.307 137.373 161.418 137.507 161.468 137.668L162.49 140.963C162.519 141.058 162.525 141.158 162.509 141.256C162.492 141.354 162.453 141.447 162.394 141.527C162.335 141.607 162.258 141.672 162.17 141.717C162.081 141.762 161.983 141.785 161.884 141.785Z" fill="#390075"/>
<path d="M150.494 122.171C150.362 122.171 150.233 122.13 150.125 122.053C150.017 121.976 149.936 121.867 149.893 121.742C149.851 121.616 149.848 121.481 149.886 121.354C149.925 121.227 150.002 121.115 150.107 121.035L154.1 117.957C154.166 117.906 154.241 117.869 154.322 117.847C154.402 117.825 154.486 117.82 154.569 117.83C154.651 117.841 154.731 117.868 154.803 117.909C154.875 117.951 154.939 118.006 154.99 118.072C155.04 118.138 155.078 118.214 155.1 118.294C155.121 118.374 155.127 118.458 155.116 118.541C155.106 118.623 155.079 118.703 155.037 118.775C154.996 118.848 154.94 118.911 154.874 118.962L150.881 122.039C150.77 122.125 150.634 122.171 150.494 122.171Z" fill="#390075"/>
</g>
<g opacity="0.55">
<path d="M172.558 132.7H95.313V135.234H172.558V132.7Z" fill="white"/>
</g>
<g opacity="0.55">
<path d="M173.176 118.705H94.5225V121.238H173.176V118.705Z" fill="white"/>
</g>
<path d="M180.321 105.399L179.547 114.15C176.973 114.585 174.332 113.999 172.184 112.515C170.036 111.032 168.552 108.769 168.047 106.209C167.698 104.429 167.837 102.589 168.447 100.882H176.186C176.762 100.882 177.332 101.002 177.859 101.234C178.386 101.466 178.859 101.805 179.248 102.23C179.637 102.655 179.934 103.156 180.118 103.702C180.303 104.248 180.372 104.826 180.321 105.399Z" fill="#35B7EB"/>
<path d="M177.878 114.432C176.619 114.434 175.371 114.2 174.197 113.743C172.288 113.002 170.648 111.701 169.491 110.011C168.335 108.321 167.717 106.32 167.719 104.272C167.717 103.101 167.919 101.938 168.316 100.836C168.325 100.809 168.343 100.785 168.367 100.769C168.39 100.752 168.419 100.743 168.447 100.743H176.187C176.782 100.743 177.371 100.867 177.916 101.107C178.461 101.347 178.95 101.698 179.352 102.137C179.754 102.577 180.06 103.095 180.251 103.659C180.442 104.223 180.513 104.821 180.461 105.414L179.687 114.164C179.684 114.195 179.671 114.224 179.65 114.247C179.629 114.27 179.601 114.285 179.571 114.29C179.012 114.385 178.445 114.432 177.878 114.432ZM168.547 101.024C167.972 102.682 167.847 104.462 168.184 106.183C168.512 107.814 169.243 109.337 170.312 110.611C171.38 111.886 172.751 112.873 174.299 113.481C175.44 113.926 176.654 114.154 177.878 114.152C178.394 114.151 178.908 114.111 179.417 114.031L180.181 105.389C180.23 104.835 180.164 104.276 179.985 103.749C179.807 103.222 179.521 102.737 179.145 102.327C178.769 101.916 178.312 101.588 177.803 101.364C177.294 101.14 176.743 101.024 176.187 101.024H168.547Z" fill="#390075"/>
<path d="M180.321 105.399L179.547 114.15C176.973 114.585 174.332 113.999 172.184 112.515C170.036 111.032 168.552 108.769 168.047 106.209C167.698 104.429 167.837 102.589 168.447 100.882H176.186C176.762 100.882 177.332 101.002 177.859 101.234C178.386 101.466 178.859 101.805 179.248 102.23C179.637 102.655 179.934 103.156 180.118 103.702C180.303 104.248 180.372 104.826 180.321 105.399Z" fill="#33AEF1"/>
<g opacity="0.3">
<path d="M174.248 113.607L174.035 116.025C173.424 115.913 172.826 115.744 172.247 115.52L172.219 115.51C170.819 114.965 169.559 114.112 168.533 113.015C167.506 111.918 166.739 110.604 166.289 109.171H99.3347C99.8566 108.248 100.226 107.247 100.43 106.206H168.046C168.374 107.862 169.114 109.408 170.198 110.702C171.282 111.996 172.675 112.995 174.248 113.607Z" fill="#6B184E"/>
<path d="M174.035 116.167L174.01 116.165C173.39 116.052 172.783 115.88 172.196 115.653L172.168 115.642C170.766 115.093 169.504 114.24 168.47 113.146C167.436 112.052 166.656 110.743 166.186 109.313H99.3342C99.3097 109.313 99.2856 109.307 99.2644 109.295C99.2431 109.282 99.2255 109.265 99.2132 109.244C99.2008 109.223 99.194 109.198 99.1939 109.174C99.1937 109.149 99.2 109.125 99.2121 109.104C99.7266 108.194 100.091 107.207 100.293 106.181C100.299 106.149 100.316 106.12 100.341 106.1C100.366 106.079 100.398 106.068 100.43 106.068H168.046C168.078 106.068 168.11 106.079 168.135 106.1C168.16 106.12 168.177 106.149 168.183 106.181C168.511 107.812 169.243 109.334 170.311 110.609C171.379 111.884 172.75 112.871 174.299 113.479C174.327 113.49 174.351 113.51 174.367 113.535C174.383 113.561 174.39 113.592 174.387 113.622L174.175 116.039C174.172 116.074 174.155 116.107 174.13 116.13C174.104 116.154 174.07 116.167 174.035 116.167ZM99.5715 109.033H166.288C166.318 109.033 166.347 109.042 166.371 109.06C166.395 109.078 166.413 109.103 166.422 109.131C166.87 110.542 167.627 111.836 168.639 112.917C169.651 113.998 170.891 114.84 172.269 115.381L172.297 115.391C172.82 115.593 173.359 115.75 173.909 115.86L174.099 113.702C172.548 113.073 171.175 112.075 170.099 110.793C169.024 109.511 168.28 107.985 167.931 106.348H100.545C100.35 107.285 100.022 108.189 99.5715 109.033Z" fill="#390075"/>
</g>
<g opacity="0.55">
<path d="M179.94 105.663L179.166 114.414C178.664 114.5 178.156 114.545 177.647 114.551L178.291 107.248C178.342 106.675 178.273 106.096 178.089 105.551C177.904 105.005 177.608 104.504 177.219 104.079C176.83 103.654 176.357 103.315 175.83 103.083C175.302 102.851 174.733 102.731 174.157 102.731H167.643C167.739 102.191 167.881 101.661 168.067 101.146H175.806C176.382 101.145 176.951 101.265 177.478 101.497C178.006 101.729 178.479 102.069 178.867 102.494C179.256 102.919 179.553 103.42 179.737 103.965C179.922 104.511 179.991 105.089 179.94 105.663Z" fill="white"/>
</g>
<path d="M177.426 138.096L176.744 145.795C176.652 146.828 176.177 147.79 175.412 148.491C174.647 149.192 173.647 149.581 172.609 149.582H165.042C164.935 148.992 164.882 148.395 164.883 147.796C164.885 146.266 165.236 144.756 165.912 143.383C166.587 142.009 167.567 140.809 168.778 139.872C169.988 138.936 171.397 138.29 172.896 137.982C174.395 137.674 175.944 137.713 177.426 138.096Z" fill="#33AEF1"/>
<g opacity="0.55">
<path d="M177.426 138.098L177.251 140.069C175.829 139.795 174.364 139.834 172.959 140.181C171.553 140.529 170.239 141.177 169.108 142.082C167.977 142.986 167.055 144.125 166.407 145.42C165.759 146.715 165.399 148.136 165.353 149.583H165.043C164.936 148.994 164.882 148.396 164.883 147.797C164.885 146.267 165.237 144.757 165.912 143.384C166.587 142.011 167.568 140.81 168.778 139.874C169.989 138.938 171.397 138.291 172.896 137.983C174.395 137.675 175.945 137.714 177.426 138.098Z" fill="white"/>
</g>
<path d="M173.804 119.597H94.8623C94.6282 119.595 94.4045 119.501 94.2397 119.335C94.0749 119.168 93.9824 118.944 93.9824 118.71C93.9824 118.475 94.0749 118.251 94.2397 118.085C94.4045 117.918 94.6282 117.824 94.8623 117.822H173.804C174.039 117.824 174.263 117.918 174.427 118.085C174.592 118.251 174.684 118.475 174.684 118.71C174.684 118.944 174.592 119.168 174.427 119.335C174.263 119.501 174.039 119.595 173.804 119.597Z" fill="#573811"/>
<path d="M172.577 133.581H96.0185C95.7845 133.579 95.5607 133.484 95.396 133.318C95.2312 133.152 95.1387 132.927 95.1387 132.693C95.1387 132.459 95.2312 132.235 95.396 132.068C95.5607 131.902 95.7845 131.808 96.0185 131.805H172.577C172.811 131.808 173.035 131.902 173.2 132.068C173.364 132.235 173.457 132.459 173.457 132.693C173.457 132.927 173.364 133.152 173.2 133.318C173.035 133.484 172.811 133.579 172.577 133.581Z" fill="#573811"/>
<g opacity="0.3">
<path d="M143.625 125.832V125.941C143.625 126.324 143.55 126.703 143.403 127.057C143.257 127.411 143.042 127.733 142.771 128.004C142.5 128.275 142.178 128.49 141.824 128.636C141.471 128.783 141.091 128.858 140.708 128.858H124.221C123.838 128.858 123.458 128.783 123.104 128.636C122.75 128.49 122.429 128.275 122.158 128.004C121.887 127.733 121.672 127.411 121.525 127.057C121.379 126.703 121.304 126.324 121.304 125.941V122.009C121.304 121.453 121.463 120.908 121.763 120.439C122.063 119.97 122.49 119.597 122.996 119.364V123.184C122.996 123.957 123.303 124.699 123.85 125.246C124.397 125.793 125.139 126.101 125.913 126.101H142.4C142.823 126.101 143.241 126.01 143.625 125.832Z" fill="#390075"/>
</g>
<g opacity="0.55">
<path d="M145.174 119.428V123.36C145.174 123.889 145.03 124.408 144.758 124.862C144.485 125.316 144.094 125.686 143.627 125.934C143.728 125.636 143.779 125.324 143.779 125.009V121.077C143.779 120.303 143.471 119.562 142.924 119.015C142.377 118.467 141.636 118.16 140.862 118.16H124.375C123.897 118.159 123.426 118.277 123.005 118.502C123.199 117.923 123.57 117.418 124.066 117.061C124.562 116.704 125.158 116.511 125.77 116.511H142.257C143.031 116.511 143.773 116.819 144.32 117.366C144.867 117.913 145.174 118.655 145.174 119.428Z" fill="white"/>
</g>
<g opacity="0.3">
<path d="M174.033 116.027C175.75 116.586 177.582 116.691 179.352 116.332L179.165 114.404H174.738L174.033 116.027Z" fill="#6B184E"/>
<path d="M177.481 116.723C176.296 116.704 175.121 116.516 173.99 116.163C173.971 116.157 173.954 116.147 173.94 116.134C173.925 116.121 173.914 116.105 173.906 116.087C173.898 116.069 173.894 116.05 173.894 116.03C173.893 116.011 173.897 115.992 173.905 115.974L174.61 114.35C174.621 114.325 174.639 114.304 174.662 114.289C174.685 114.274 174.711 114.266 174.739 114.266H179.165C179.2 114.266 179.234 114.279 179.259 114.302C179.285 114.326 179.301 114.358 179.305 114.393L179.492 116.32C179.495 116.352 179.487 116.385 179.469 116.412C179.451 116.439 179.424 116.459 179.393 116.468C178.771 116.646 178.127 116.732 177.481 116.723ZM174.225 115.942C175.835 116.446 177.544 116.546 179.201 116.232L179.037 114.546H174.831L174.225 115.942Z" fill="#390075"/>
</g>
<path d="M141.254 116.349H126.751C124.592 116.349 122.841 118.099 122.841 120.258V122.206C122.841 124.365 124.592 126.115 126.751 126.115H141.254C143.413 126.115 145.163 124.365 145.163 122.206V120.258C145.163 118.099 143.413 116.349 141.254 116.349Z" fill="#96A7BC"/>
<path d="M141.254 116.349H126.751C124.592 116.349 122.841 118.099 122.841 120.258V122.206C122.841 124.365 124.592 126.115 126.751 126.115H141.254C143.413 126.115 145.163 124.365 145.163 122.206V120.258C145.163 118.099 143.413 116.349 141.254 116.349Z" stroke="#573811" stroke-width="2.13252" stroke-linecap="round" stroke-linejoin="round"/>
<g opacity="0.55">
<path d="M103.079 148.74C103.107 149.017 103.12 149.301 103.125 149.585H102.965C103.016 149.308 103.054 149.027 103.079 148.74Z" fill="white"/>
<path d="M103.124 149.727H102.965C102.944 149.727 102.924 149.723 102.905 149.714C102.887 149.705 102.87 149.693 102.857 149.677C102.844 149.661 102.834 149.643 102.829 149.623C102.824 149.603 102.823 149.582 102.826 149.562C102.876 149.293 102.914 149.013 102.939 148.73C102.942 148.695 102.958 148.663 102.984 148.639C103.009 148.615 103.043 148.602 103.078 148.602C103.113 148.602 103.147 148.615 103.173 148.638C103.198 148.662 103.215 148.694 103.218 148.728C103.244 148.978 103.259 149.258 103.265 149.585C103.265 149.603 103.262 149.622 103.255 149.639C103.248 149.656 103.238 149.672 103.225 149.685C103.211 149.699 103.196 149.709 103.179 149.716C103.161 149.724 103.143 149.727 103.124 149.727Z" fill="#390075"/>
</g>
<g opacity="0.55">
<path d="M100.507 102.785C100.411 102.136 100.252 101.499 100.03 100.882H168.448C168.226 101.499 168.066 102.136 167.971 102.785H100.507Z" fill="white"/>
</g>
<path d="M103.125 147.799C103.126 148.398 103.072 148.995 102.965 149.584H95.1932C94.1519 149.584 93.1487 149.192 92.3824 148.487C91.6162 147.782 91.1429 146.815 91.0561 145.777L90.4194 138.145C91.908 137.73 93.4725 137.665 94.9904 137.955C96.5083 138.245 97.9384 138.882 99.1689 139.817C100.399 140.752 101.397 141.959 102.083 143.344C102.769 144.729 103.126 146.253 103.125 147.799Z" fill="#33AEF1"/>
<g opacity="0.55">
<path d="M103.124 147.8C103.125 148.399 103.072 148.997 102.964 149.586H102.15C101.978 147.053 100.85 144.68 98.994 142.947C97.138 141.214 94.693 140.252 92.154 140.254C91.6349 140.253 91.1165 140.294 90.604 140.376L90.4189 138.146C91.9075 137.731 93.472 137.666 94.9899 137.956C96.5078 138.246 97.9379 138.884 99.1684 139.819C100.399 140.754 101.396 141.961 102.082 143.345C102.769 144.73 103.125 146.255 103.124 147.8Z" fill="white"/>
</g>
<path d="M100.618 104.271C100.619 105.587 100.361 106.89 99.8573 108.106C99.3541 109.322 98.6159 110.427 97.6854 111.357C96.7549 112.288 95.65 113.026 94.434 113.529C93.2181 114.032 91.9149 114.291 90.5989 114.29C89.8636 114.29 89.1306 114.21 88.4125 114.051L87.6895 105.377C87.6421 104.805 87.7139 104.229 87.9003 103.686C88.0867 103.143 88.3836 102.644 88.7724 102.222C89.1612 101.8 89.6333 101.462 90.159 101.232C90.6847 101.001 91.2525 100.882 91.8265 100.882H100.03C100.42 101.969 100.619 103.116 100.618 104.271Z" fill="#33AEF1"/>
<g opacity="0.55">
<path d="M100.618 104.271C100.619 105.586 100.361 106.888 99.8576 108.103C99.3544 109.318 98.6162 110.422 97.6855 111.351C98.334 110.12 98.7194 108.768 98.8172 107.381C98.915 105.994 98.7231 104.601 98.2536 103.292H90.0506C89.2593 103.29 88.484 103.516 87.8184 103.944C88.0578 103.064 88.5799 102.288 89.3041 101.735C90.0284 101.182 90.9147 100.882 91.8262 100.882H100.029C100.42 101.969 100.619 103.116 100.618 104.271Z" fill="white"/>
</g>
<g opacity="0.55">
<path d="M133.341 123.906C132.778 123.906 132.237 123.682 131.839 123.284C131.441 122.886 131.217 122.345 131.217 121.782C131.217 121.218 131.441 120.678 131.839 120.28C132.237 119.881 132.778 119.657 133.341 119.657C133.905 119.657 134.445 119.881 134.843 120.28C135.242 120.678 135.466 121.218 135.466 121.782C135.466 122.345 135.242 122.886 134.843 123.284C134.445 123.682 133.905 123.906 133.341 123.906Z" fill="white"/>
</g>
<path d="M133.903 123.341C133.624 123.341 133.348 123.287 133.09 123.18C132.832 123.073 132.598 122.916 132.401 122.719C132.203 122.522 132.047 122.288 131.94 122.03C131.833 121.772 131.778 121.496 131.778 121.217C131.778 120.938 131.833 120.662 131.94 120.404C132.047 120.146 132.203 119.912 132.401 119.715C132.598 119.518 132.832 119.361 133.09 119.254C133.348 119.148 133.624 119.093 133.903 119.093C134.466 119.093 135.007 119.317 135.405 119.715C135.803 120.113 136.027 120.654 136.027 121.217C136.027 121.496 135.972 121.772 135.865 122.03C135.759 122.288 135.602 122.522 135.405 122.719C135.207 122.916 134.974 123.073 134.716 123.18C134.458 123.287 134.182 123.341 133.903 123.341Z" fill="#573811"/>
<path d="M174.494 114.488L174.281 116.906L172.318 139.06C170.832 139.498 169.469 140.275 168.333 141.328C167.198 142.382 166.322 143.684 165.773 145.132H102.726C102.167 143.656 101.267 142.332 100.101 141.269C98.9339 140.206 97.5331 139.432 96.0116 139.012L93.9824 114.666C95.6692 114.108 97.1777 113.113 98.3538 111.781C99.5299 110.45 100.331 108.83 100.676 107.087H168.292C168.62 108.743 169.36 110.289 170.444 111.583C171.528 112.877 172.921 113.876 174.494 114.488Z" stroke="#573811" stroke-width="2.13252" stroke-linecap="round" stroke-linejoin="round"/>
<path d="M180.404 106.351L179.63 115.102C177.056 115.537 174.415 114.951 172.267 113.467C170.119 111.984 168.635 109.721 168.13 107.16C167.781 105.381 167.92 103.541 168.53 101.834H176.269C176.845 101.834 177.415 101.954 177.942 102.186C178.469 102.418 178.942 102.757 179.331 103.182C179.72 103.607 180.016 104.108 180.201 104.654C180.386 105.199 180.455 105.778 180.404 106.351Z" stroke="#573811" stroke-width="2.13252" stroke-linecap="round" stroke-linejoin="round"/>
<path d="M177.509 139.048L176.827 146.746C176.736 147.78 176.261 148.742 175.495 149.443C174.73 150.144 173.73 150.533 172.693 150.533H165.126C165.019 149.944 164.965 149.346 164.966 148.747C164.968 147.217 165.32 145.707 165.995 144.334C166.67 142.961 167.65 141.76 168.861 140.824C170.071 139.888 171.48 139.241 172.979 138.933C174.478 138.625 176.028 138.664 177.509 139.048Z" stroke="#573811" stroke-width="2.13252" stroke-linecap="round" stroke-linejoin="round"/>
<path d="M103.207 148.75C103.208 149.349 103.155 149.947 103.047 150.536H95.2755C94.2342 150.535 93.2312 150.144 92.465 149.439C91.6987 148.733 91.2254 147.766 91.1386 146.728L90.502 139.096C91.9905 138.681 93.5548 138.616 95.0727 138.906C96.5906 139.196 98.0207 139.834 99.2512 140.769C100.482 141.704 101.479 142.911 102.165 144.296C102.852 145.68 103.208 147.205 103.207 148.75Z" stroke="#573811" stroke-width="2.13252" stroke-linecap="round" stroke-linejoin="round"/>
<path d="M100.702 105.223C100.702 106.539 100.444 107.842 99.9406 109.058C99.4374 110.274 98.6994 111.378 97.7689 112.309C96.8384 113.24 95.7335 113.978 94.5175 114.481C93.3016 114.984 91.9984 115.243 90.6824 115.242C89.9471 115.241 89.2141 115.162 88.496 115.003L87.773 106.328C87.7256 105.756 87.7974 105.181 87.9838 104.638C88.1702 104.095 88.4671 103.596 88.8559 103.174C89.2446 102.751 89.7168 102.414 90.2425 102.184C90.7682 101.953 91.336 101.834 91.91 101.834H100.113C100.504 102.921 100.703 104.067 100.702 105.223Z" stroke="#573811" stroke-width="2.13252" stroke-linecap="round" stroke-linejoin="round"/>
<path d="M179.657 115.033L177.536 138.978C176.054 138.592 174.504 138.55 173.003 138.857C171.503 139.164 170.093 139.81 168.882 140.747C167.671 141.683 166.69 142.885 166.016 144.26C165.342 145.635 164.992 147.146 164.993 148.677C164.992 149.276 165.045 149.874 165.153 150.463H103.074C103.181 149.874 103.235 149.276 103.234 148.677C103.233 147.133 102.875 145.609 102.188 144.225C101.502 142.842 100.504 141.635 99.2741 140.701C98.0442 139.766 96.6149 139.129 95.0978 138.838C93.5807 138.547 92.0168 138.61 90.5284 139.023L88.522 114.934C89.2401 115.092 89.9731 115.172 90.7084 115.172C92.3155 115.172 93.8988 114.785 95.3249 114.044C96.751 113.303 97.9782 112.23 98.9028 110.915C99.8273 109.601 100.422 108.083 100.637 106.491C100.853 104.898 100.682 103.277 100.139 101.764H168.557C167.966 103.411 167.816 105.183 168.122 106.905C168.429 108.627 169.18 110.239 170.303 111.581C171.425 112.922 172.879 113.947 174.52 114.553C176.161 115.158 177.932 115.324 179.657 115.033Z" stroke="#573811" stroke-width="2.13252" stroke-linecap="round" stroke-linejoin="round"/>
</svg>
