<svg width="261" height="180" viewBox="0 0 261 180" fill="none" xmlns="http://www.w3.org/2000/svg">
<path d="M255.708 130.895C252.202 136.761 246.509 140.995 239.883 142.665C233.256 144.335 226.237 143.304 220.37 139.8C219.157 139.04 217.996 138.2 216.895 137.285C216.61 138.677 216.213 140.043 215.708 141.371C215.708 141.388 215.691 141.406 215.691 141.441C214.154 147.796 208.62 153.802 200.763 156.77C195.047 159.057 188.683 159.126 182.92 156.962C174.365 168.974 155.438 177.32 133.475 177.32C113.868 177.32 96.6703 170.65 87.1199 160.664C81.3718 164.127 74.625 165.554 67.967 164.714C55.0644 163.265 45.1998 154.535 44.1523 144.409C43.9253 143.763 43.7159 143.099 43.5238 142.436C39.5803 144.209 35.2957 145.096 30.9723 145.033C26.6489 144.971 22.3918 143.961 18.5011 142.075C14.6104 140.188 11.1808 137.472 8.45395 134.116C5.72711 130.76 3.76947 126.848 2.71896 122.653C1.66844 118.459 1.55059 114.085 2.37382 109.841C3.19705 105.596 4.94124 101.583 7.48351 98.0858C10.0258 94.5883 13.3043 91.691 17.0878 89.598C20.8713 87.5051 25.0679 86.2675 29.3817 85.9724C26.0281 77.4599 25.4048 68.1152 27.5981 59.2327C29.7914 50.3503 34.6925 42.3696 41.6229 36.3964C48.5532 30.4233 57.1697 26.7532 66.2786 25.8945C75.3874 25.0358 84.5378 27.0311 92.4623 31.604C93.4996 28.3496 94.8995 25.2222 96.6354 22.2805C101.331 14.4619 108.325 8.28269 116.662 4.58624C125 0.889801 134.275 -0.143827 143.222 1.62644C152.169 3.39671 160.351 7.88469 166.653 14.4777C172.955 21.0708 177.068 29.4478 178.433 38.4654C183.46 35.9321 189.065 34.7629 194.687 35.0745C200.308 35.386 205.749 37.1675 210.466 40.241C215.183 43.3144 219.011 47.5722 221.567 52.5886C224.123 57.605 225.318 63.2043 225.032 68.827C228.844 69.1597 232.532 70.3475 235.822 72.3019C239.981 74.7777 243.359 78.3759 245.567 82.6838C247.775 86.9917 248.724 91.8347 248.305 96.6573C253.629 100.379 257.35 105.975 258.723 112.324C260.096 118.673 259.019 125.307 255.708 130.895Z" fill="#E6EFFF"/>
<path d="M243.493 95.4384C243.493 95.4384 241.954 77.3896 220.83 79.1169C221.407 67.6112 217.23 55.1269 206.624 48.8098C196.813 42.9654 187.324 39.3812 177.848 44.1619C175.915 31.5129 125.141 0.421707 104.314 45.4103C102.727 48.4227 101.334 51.5329 100.142 54.7222C79.2229 42.7535 53.6556 46.1726 41.3112 66.8964C37.0345 73.7904 34.7668 81.741 34.763 89.8537C29.5497 91.0719 24.7127 93.5447 20.6724 97.0573C16.632 100.57 13.5106 105.016 11.5792 110.009C4.49901 127.469 9.72463 135.394 9.72463 135.394C9.72463 135.394 7.56654 132.843 6.66797 131.458C3.86157 127.151 2.23092 122.184 1.93801 117.051C1.6451 111.918 2.70013 106.798 4.99825 102.199C7.29638 97.5996 10.7577 93.6817 15.0384 90.8343C19.319 87.9868 24.2702 86.3088 29.4 85.9668C26.0498 77.4543 25.4289 68.1108 27.6232 59.2298C29.8175 50.3489 34.7185 42.3697 41.6477 36.397C48.577 30.4244 57.1916 26.7537 66.2991 25.8931C75.4066 25.0325 84.5563 27.0246 92.4817 31.5935C95.5215 22.0742 101.692 13.8633 109.991 8.29603C118.289 2.72874 128.227 0.132575 138.188 0.92971C148.149 1.72685 157.547 5.87034 164.855 12.6865C172.162 19.5026 176.949 28.5905 178.436 38.4721C183.463 35.9353 189.067 34.7627 194.689 35.0717C200.311 35.3806 205.754 37.1603 210.472 40.2326C215.191 43.3049 219.02 47.5622 221.577 52.5788C224.134 57.5953 225.329 63.1953 225.042 68.8185C231.814 69.4456 238.064 72.7257 242.427 77.9431C246.79 83.1604 248.912 89.8916 248.331 96.668C256.689 102.526 243.493 95.4384 243.493 95.4384Z" fill="white"/>
<path d="M255.842 130.891C252.336 136.757 246.644 140.99 240.017 142.66C233.39 144.33 226.372 143.3 220.505 139.795C219.292 139.035 218.131 138.195 217.03 137.281C216.744 138.672 216.347 140.039 215.843 141.366C215.843 141.384 215.825 141.401 215.825 141.436C214.289 147.791 208.755 153.797 200.898 156.765C195.182 159.053 188.818 159.121 183.054 156.958C178.34 163.117 172.099 167.938 164.949 170.943C164.833 171.01 164.71 171.063 164.582 171.1C163.098 171.763 161.579 172.374 159.99 172.95C159.798 173.02 159.589 173.09 159.379 173.16C157.825 173.701 156.237 174.19 154.595 174.626C154.386 174.696 154.159 174.749 153.949 174.801C152.5 175.185 150.999 175.517 149.497 175.814C149.288 175.849 149.078 175.884 148.886 175.919C147.332 176.215 145.761 176.46 144.155 176.652C143.928 176.687 143.7 176.722 143.456 176.739C142.042 176.914 140.61 177.036 139.161 177.141H138.951C137.188 177.263 135.407 177.315 133.609 177.315C114.002 177.315 96.8047 170.646 87.2545 160.659C81.5065 164.122 74.7596 165.549 68.1016 164.71C55.1988 163.261 45.3345 154.531 44.2867 144.404C44.0599 143.758 43.8502 143.095 43.6584 142.431C37.9191 144.971 31.5217 145.622 25.3885 144.291C19.2552 142.96 13.7033 139.715 9.53331 135.025C5.36334 130.334 2.79083 124.441 2.18684 118.194C1.58285 111.947 2.9786 105.67 6.17272 100.267C6.39993 99.883 6.64414 99.4989 6.90628 99.1323C6.39322 104.645 7.4229 110.191 9.88018 115.152C12.3375 120.112 16.1256 124.292 20.8214 127.224C24.7267 129.651 29.1729 131.071 33.7617 131.357C38.3504 131.643 42.9386 130.787 47.1153 128.865C47.2896 129.529 47.4994 130.193 47.7261 130.838C48.7389 140.965 58.2892 149.695 70.7903 151.144C77.2589 151.978 83.8169 150.547 89.3495 147.093C98.5856 157.08 115.259 163.749 134.237 163.749C134.726 163.749 135.215 163.749 135.704 163.732H136.228C138.009 163.68 139.755 163.575 141.483 163.418C141.693 163.4 141.902 163.383 142.112 163.366C143.596 163.208 145.08 163.016 146.512 162.789C146.693 162.77 146.874 162.741 147.053 162.702C148.781 162.423 150.475 162.073 152.116 161.672C152.293 161.641 152.468 161.6 152.64 161.55H152.657C154.298 161.148 155.905 160.694 157.459 160.188C157.589 160.149 157.718 160.102 157.843 160.048C159.082 159.646 160.305 159.21 161.492 158.721H161.509C161.596 158.686 161.666 158.651 161.754 158.616C169.876 155.612 176.958 150.326 182.146 143.392C187.718 145.556 193.909 145.487 199.431 143.199C207.043 140.232 212.403 134.225 213.887 127.87C213.887 127.835 213.905 127.818 213.905 127.801C214.39 126.469 214.775 125.104 215.057 123.715C216.119 124.625 217.238 125.465 218.409 126.229C221.224 127.958 224.36 129.101 227.627 129.589C230.895 130.076 234.227 129.899 237.424 129.068C240.621 128.236 243.618 126.767 246.234 124.749C248.85 122.732 251.031 120.206 252.647 117.325C254.795 113.613 255.983 109.425 256.104 105.138C258.34 109.071 259.495 113.526 259.449 118.05C259.402 122.574 258.158 127.005 255.842 130.891Z" fill="#CAD7FF"/>
<path d="M255.95 131.538C252.444 137.405 246.752 141.638 240.125 143.308C233.498 144.978 226.48 143.947 220.613 140.443C219.4 139.683 218.239 138.843 217.138 137.929C216.853 139.32 216.456 140.686 215.951 142.014C215.951 142.032 215.934 142.049 215.934 142.084C214.397 148.439 208.862 154.445 201.006 157.413C195.29 159.701 188.926 159.769 183.162 157.605C174.607 169.618 155.681 177.963 133.717 177.963C114.11 177.963 96.913 171.294 87.3626 161.307C81.6144 164.77 74.8677 166.197 68.2096 165.358C55.3071 163.908 45.4425 155.179 44.395 145.052C44.168 144.406 43.9586 143.743 43.7665 143.079C39.8229 144.852 35.5384 145.739 31.215 145.677C26.8916 145.614 22.6345 144.604 18.7438 142.718C14.8531 140.832 11.4235 138.115 8.69663 134.759C5.96979 131.404 4.01215 127.491 2.96163 123.297C1.91111 119.102 1.79326 114.729 2.61649 110.484C3.43973 106.239 5.18392 102.227 7.72619 98.729C10.2685 95.2315 13.5469 92.3341 17.3305 90.2412C21.114 88.1482 25.3106 86.9106 29.6244 86.6155C26.2708 78.103 25.6475 68.7583 27.8408 59.8759C30.034 50.9934 34.9353 43.0129 41.8657 37.0398C48.796 31.0666 57.4124 27.3965 66.5213 26.5378C75.6301 25.6791 84.7805 27.6744 92.705 32.2472C93.7423 28.9929 95.1422 25.8654 96.8781 22.9238C101.574 15.1052 108.568 8.92592 116.905 5.22947C125.243 1.53303 134.518 0.499509 143.465 2.26978C152.411 4.04004 160.594 8.52792 166.896 15.121C173.197 21.714 177.311 30.091 178.675 39.1086C183.703 36.5754 189.308 35.4061 194.929 35.7177C200.551 36.0293 205.992 37.8109 210.709 40.8843C215.426 43.9578 219.254 48.2154 221.81 53.2318C224.366 58.2482 225.561 63.8476 225.274 69.4704C229.086 69.803 232.774 70.9907 236.064 72.9452C240.224 75.4209 243.602 79.0192 245.81 83.327C248.018 87.6349 248.967 92.4779 248.548 97.3005C253.872 101.022 257.593 106.618 258.966 112.967C260.339 119.316 259.262 125.95 255.95 131.538Z" stroke="#573811" stroke-width="2.66565" stroke-linecap="round" stroke-linejoin="round"/>
<path d="M161.154 158.128C162.872 161.247 164.811 164.239 166.955 167.082C165.582 165.075 161.935 158.852 161.338 157.938C161.236 157.766 161.065 157.922 161.154 158.128Z" fill="#573811"/>
<path d="M164.95 170.948C164.834 171.015 164.711 171.068 164.583 171.105C163.885 170.04 163.187 168.957 162.488 167.892C160.69 165.151 158.927 162.463 157.46 160.193C156.57 158.814 155.784 157.592 155.173 156.631C154.771 156.037 154.369 155.479 154.02 154.85C153.898 154.693 154.055 154.484 154.177 154.693C154.579 155.339 155.033 155.933 155.487 156.561C156.098 157.504 156.919 158.691 157.844 160.053C158.979 161.729 160.306 163.685 161.667 165.745C162.052 166.373 162.471 166.984 162.855 167.613C163.571 168.73 164.269 169.848 164.95 170.948Z" fill="#573811"/>
<path d="M159.991 172.947C159.799 173.017 159.589 173.087 159.38 173.157C159.342 173.071 159.296 172.989 159.24 172.912C158.699 172.074 158.175 171.236 157.652 170.398C155.801 167.483 153.95 164.584 152.117 161.669C151.331 160.464 150.563 159.259 149.812 158.055C149.638 157.81 149.463 157.531 149.289 157.286C148.276 155.698 147.315 154.074 146.338 152.467C146.181 152.188 146.408 151.996 146.512 152.206C147.525 153.69 148.538 155.209 149.515 156.745C149.795 157.182 150.022 157.583 150.283 157.967C150.912 158.91 151.715 160.132 152.641 161.547H152.658C154.229 163.973 156.185 166.959 158.228 170.171C158.629 170.783 159.013 171.393 159.415 172.039C159.607 172.336 159.799 172.633 159.991 172.947Z" fill="#573811"/>
<path d="M154.596 174.628C154.387 174.698 154.16 174.75 153.95 174.803C153.287 173.721 152.623 172.655 151.96 171.573H151.943C151.436 170.735 150.912 169.897 150.406 169.076C149.201 167.121 147.979 165.165 146.775 163.21C146.687 163.07 146.6 162.931 146.513 162.791C145.727 161.586 144.994 160.416 144.278 159.212L144.243 159.194C142.025 155.65 139.825 152.123 137.695 148.527C137.573 148.387 137.713 148.23 137.818 148.369C140.175 151.896 142.497 155.458 144.784 159.107C145.517 160.294 146.285 161.446 147.001 162.634C147.019 162.651 147.036 162.686 147.054 162.703C147.822 163.943 148.625 165.165 149.359 166.405C150.144 167.697 151.279 169.478 152.571 171.521C153.217 172.498 153.88 173.546 154.596 174.628Z" fill="#573811"/>
<path d="M149.498 175.813C149.289 175.848 149.079 175.883 148.887 175.918C148.433 175.132 148.049 174.469 147.769 173.945C147.211 173.002 146.67 172.059 146.111 171.116C145.587 170.243 145.081 169.371 144.539 168.498C143.492 166.822 142.479 165.128 141.484 163.417C140.821 162.282 140.174 161.129 139.529 159.977C138.673 158.58 137.922 157.114 137.102 155.682C137.084 155.49 137.154 155.386 137.276 155.508C138.202 156.957 139.127 158.441 140.035 159.942C140.751 161.06 141.449 162.212 142.113 163.365C143.02 164.849 143.893 166.367 144.784 167.886C145.465 168.986 146.111 170.104 146.775 171.238C146.82 171.335 146.872 171.429 146.931 171.518C147.595 172.6 148.503 174.12 149.498 175.813Z" fill="#573811"/>
<path d="M144.156 176.654C143.928 176.689 143.701 176.724 143.457 176.742C143.073 176.183 142.724 175.659 142.444 175.188C139.825 170.7 137.206 166.284 135.705 163.735C135.426 163.263 135.181 162.844 134.972 162.512C134.832 162.25 135.076 161.989 135.234 162.215C135.565 162.722 135.897 163.228 136.229 163.734C138.324 166.947 140.332 170.282 142.375 173.616C142.689 174.192 143.056 174.786 143.405 175.415C143.597 175.694 143.789 176.008 143.963 176.323C144.016 176.41 144.086 176.515 144.156 176.654Z" fill="#573811"/>
<path d="M139.651 177.999C139.703 178.104 139.843 178.383 140.053 178.802C139.738 178.278 139.337 177.72 138.953 177.144H139.162C139.32 177.44 139.476 177.72 139.651 177.999Z" fill="#573811"/>
<path d="M139.162 177.147H138.952C138.171 176.123 137.465 175.044 136.84 173.917C136.564 173.444 136.319 172.954 136.107 172.45C135.932 172.259 136.124 171.979 136.246 172.189C136.648 172.8 136.997 173.463 137.381 174.039C137.975 175.069 138.568 176.117 139.162 177.147Z" fill="#573811"/>
<path d="M169.566 141.376C188.601 141.376 204.033 125.924 204.033 106.864C204.033 87.8025 188.601 72.3506 169.566 72.3506C150.53 72.3506 135.099 87.8025 135.099 106.864C135.099 125.924 150.53 141.376 169.566 141.376Z" fill="#6186FF"/>
<g style="mix-blend-mode:multiply" opacity="0.74">
<path d="M204.028 106.704C204.029 108.768 203.846 110.828 203.482 112.86C203.402 113.305 203.315 113.746 203.219 114.183C202.976 115.277 202.685 116.352 202.344 117.407C202.299 117.542 202.254 117.674 202.21 117.809C202.12 118.077 202.026 118.342 201.93 118.607C201.881 118.74 201.83 118.873 201.781 119.005C201.681 119.269 201.58 119.53 201.474 119.789L201.471 119.792C201.312 120.181 201.147 120.569 200.974 120.951C200.858 121.206 200.739 121.462 200.617 121.715C200.436 122.093 200.247 122.467 200.052 122.838C199.859 123.209 199.657 123.576 199.449 123.936L199.447 123.938C199.169 124.42 198.88 124.896 198.582 125.364L198.58 125.366C198.268 125.854 197.944 126.333 197.607 126.803V126.805C197.459 127.011 197.31 127.217 197.159 127.42C194.632 130.8 191.513 133.693 187.952 135.958C187.765 136.077 187.573 136.195 187.382 136.311L187.365 136.322H187.363C187.251 136.391 187.139 136.459 187.025 136.526C186.623 136.765 186.217 136.993 185.806 137.216C185.604 137.324 185.4 137.43 185.194 137.537C184.696 137.792 184.192 138.037 183.681 138.267C183.465 138.366 183.246 138.461 183.026 138.553C182.859 138.627 182.69 138.698 182.521 138.768C182.262 138.872 182.001 138.976 181.738 139.076C181.475 139.176 181.209 139.274 180.942 139.368C180.71 139.45 180.475 139.529 180.241 139.607C180.163 139.633 180.088 139.658 180.01 139.68C178.861 140.05 177.692 140.358 176.509 140.603C176.452 140.615 176.395 140.628 176.336 140.638C175.9 140.726 175.461 140.807 175.019 140.877C171.003 141.526 166.905 141.468 162.909 140.705C162.768 140.679 162.628 140.65 162.487 140.622H162.485C161.378 140.393 160.29 140.114 159.222 139.784C159.072 139.738 158.919 139.689 158.768 139.64H158.766C158.297 139.486 157.83 139.325 157.371 139.151C157.47 139.159 178.709 142.76 191.717 129.024C196.11 124.42 199.306 118.808 201.023 112.68C202.741 106.552 202.927 100.096 201.566 93.8789C201.566 93.8789 202.46 96.2995 202.775 97.4369C203.609 100.455 204.031 103.573 204.028 106.704Z" fill="#6186FF"/>
</g>
<g style="mix-blend-mode:screen" opacity="0.92">
<path d="M193.432 83.373L145.938 130.931C149.147 134.126 152.97 136.64 157.175 138.321L194.947 100.499L200.908 94.4637C199.193 90.2986 196.65 86.5253 193.432 83.373Z" fill="#6186FF"/>
</g>
<g style="mix-blend-mode:screen">
<path d="M188.821 79.8213L142.016 126.689C142.561 127.46 143.137 128.206 143.742 128.929L147.502 125.165C162.021 110.627 176.539 96.0885 191.058 81.5503C190.711 81.2579 190.344 80.9613 188.821 79.8213Z" fill="#6186FF"/>
</g>
<g style="mix-blend-mode:multiply" opacity="0.39">
<path d="M147.587 132.357C147.144 132.717 139.972 126.514 136.995 117.008C133.252 105.057 138.251 93.3124 138.811 93.4335C139.331 93.5462 135.918 103.862 139.402 116.011C142.239 125.904 148.006 132.016 147.587 132.357Z" fill="#4965BF"/>
</g>
<g style="mix-blend-mode:screen" opacity="0.41">
<path d="M202.171 114.759C199.968 120.511 196.581 125.735 192.229 130.093C187.877 134.451 182.657 137.845 176.908 140.056C183.071 138.639 188.71 135.515 193.178 131.041C197.646 126.567 200.763 120.924 202.171 114.759Z" fill="#819EFF"/>
</g>
<g style="mix-blend-mode:screen" opacity="0.65">
<path d="M152.938 77.9805C149.562 79.9889 146.532 82.5275 143.962 85.4987C140.002 89.6503 137.403 94.9111 136.511 100.579C136.048 103.109 135.829 105.677 135.858 108.249C136.353 104.871 137.328 101.58 138.753 98.4774C141.208 93.4335 144.133 90.6982 149.07 86.1065C163.23 72.9373 171.87 76.0837 171.894 74.3767C171.919 72.6697 163.365 74.0547 160.938 74.7295C158.156 75.5055 155.472 76.5961 152.938 77.9805Z" fill="#6186FF"/>
</g>
<g style="mix-blend-mode:soft-light">
<path d="M170.091 132.264C183.532 132.264 194.427 121.354 194.427 107.895C194.427 94.4371 183.532 83.5269 170.091 83.5269C156.651 83.5269 145.755 94.4371 145.755 107.895C145.755 121.354 156.651 132.264 170.091 132.264Z" fill="white"/>
</g>
<g style="mix-blend-mode:lighten" opacity="0.57">
<path d="M168.401 132.153C181.842 132.153 192.737 121.243 192.737 107.784C192.737 94.3257 181.842 83.4155 168.401 83.4155C154.961 83.4155 144.065 94.3257 144.065 107.784C144.065 121.243 154.961 132.153 168.401 132.153Z" fill="white"/>
</g>
<g style="mix-blend-mode:multiply" opacity="0.85">
<path d="M170.425 130.94C183.865 130.94 194.761 120.03 194.761 106.572C194.761 93.1133 183.865 82.2031 170.425 82.2031C156.984 82.2031 146.088 93.1133 146.088 106.572C146.088 120.03 156.984 130.94 170.425 130.94Z" fill="#FFC500"/>
</g>
<g style="mix-blend-mode:multiply">
<path d="M168.712 130.972C182.153 130.972 193.048 120.062 193.048 106.604C193.048 93.1452 182.153 82.2351 168.712 82.2351C155.272 82.2351 144.376 93.1452 144.376 106.604C144.376 120.062 155.272 130.972 168.712 130.972Z" fill="#F7BF00"/>
</g>
<path d="M169.431 131.642C182.871 131.642 193.767 120.732 193.767 107.274C193.767 93.8155 182.871 82.9053 169.431 82.9053C155.99 82.9053 145.095 93.8155 145.095 107.274C145.095 120.732 155.99 131.642 169.431 131.642Z" fill="#6186FF"/>
<g style="mix-blend-mode:screen" opacity="0.18">
<path d="M193.766 107.274C193.769 113.033 191.731 118.607 188.015 123.007C184.298 127.406 179.143 130.347 173.464 131.307C173.365 131.325 173.266 131.341 173.165 131.356C168.976 132.004 164.691 131.546 160.733 130.03C156.775 128.513 153.282 125.989 150.598 122.709C151.229 121.365 152.006 120.094 152.914 118.92C155.802 115.233 161.716 112.377 173.548 106.665C182.138 102.517 185.266 101.593 186.292 98.36C187.671 94.0124 184.028 89.3295 181.796 86.281C185.124 88.2483 187.937 90.9796 190.001 94.2492C192.065 97.5188 193.322 101.233 193.666 105.084C193.7 105.431 193.724 105.782 193.74 106.135C193.758 106.512 193.766 106.893 193.766 107.274Z" fill="#FFC500"/>
</g>
<mask id="mask0_142_4" style="mask-type:luminance" maskUnits="userSpaceOnUse" x="145" y="82" width="49" height="50">
<path d="M169.431 131.638C182.871 131.638 193.767 120.728 193.767 107.27C193.767 93.8113 182.871 82.9011 169.431 82.9011C155.99 82.9011 145.095 93.8113 145.095 107.27C145.095 120.728 155.99 131.638 169.431 131.638Z" fill="white"/>
</mask>
<g mask="url(#mask0_142_4)">
<g style="mix-blend-mode:screen" opacity="0.18">
<path d="M193.049 120.862C194.377 118.26 193.766 107.963 193.766 107.278C193.766 106.897 193.758 106.516 193.74 106.139C193.724 105.786 193.701 105.435 193.667 105.088C193.527 103.49 193.228 101.911 192.774 100.373C191.098 101.482 189.681 102.938 188.618 104.643C185.559 109.63 181.428 117.669 174.56 117.708C171.032 117.73 162.636 117.887 156.959 123.179C155.917 124.098 154.994 125.144 154.211 126.293C156.847 128.405 159.893 129.947 163.156 130.819C166.419 131.692 169.828 131.876 173.166 131.36C173.267 131.344 173.366 131.329 173.465 131.311C178.205 130.52 191.553 123.791 193.049 120.862Z" fill="#FFC500"/>
</g>
</g>
<g style="mix-blend-mode:multiply" opacity="0.6">
<path d="M146.416 108.594C146.407 103.857 147.782 99.2203 150.371 95.2536C152.961 91.2868 156.652 88.1624 160.992 86.264C165.332 84.3655 170.132 83.7757 174.803 84.5668C179.473 85.3579 183.811 87.4955 187.284 90.7172C185.056 88.3176 182.367 86.392 179.377 85.0559C176.387 83.7197 173.159 83.0003 169.885 82.9408C166.611 82.8813 163.358 83.4828 160.322 84.7094C157.286 85.936 154.528 87.7624 152.214 90.0794C149.901 92.3965 148.078 95.1565 146.855 98.1943C145.633 101.232 145.035 104.485 145.099 107.759C145.163 111.033 145.887 114.261 147.227 117.248C148.567 120.236 150.496 122.923 152.899 125.148C148.724 120.647 146.408 114.733 146.416 108.594Z" fill="#7183BF"/>
</g>
<g style="mix-blend-mode:screen" opacity="0.65">
<path d="M192.429 105.935C192.438 110.672 191.063 115.309 188.474 119.276C185.884 123.242 182.193 126.367 177.853 128.265C173.513 130.164 168.713 130.753 164.042 129.962C159.372 129.171 155.034 127.034 151.561 123.812C153.789 126.212 156.478 128.137 159.468 129.473C162.458 130.809 165.686 131.529 168.96 131.588C172.234 131.648 175.487 131.046 178.523 129.82C181.559 128.593 184.316 126.767 186.63 124.45C188.944 122.133 190.767 119.373 191.99 116.335C193.212 113.297 193.809 110.044 193.746 106.77C193.682 103.496 192.958 100.268 191.618 97.2806C190.278 94.2928 188.349 91.6061 185.946 89.3811C190.121 93.8818 192.437 99.7962 192.429 105.935Z" fill="#6186FF"/>
</g>
<g style="mix-blend-mode:soft-light">
<path d="M169.561 74.294C178.593 74.3009 187.261 77.8508 193.703 84.1808C200.145 90.5107 203.846 99.1155 204.012 108.145C204.016 107.924 204.028 107.706 204.028 107.484C204.035 102.953 203.148 98.4661 201.419 94.2787C199.69 90.0912 197.152 86.2858 193.951 83.0799C190.75 79.8741 186.948 77.331 182.763 75.5957C178.578 73.8605 174.092 72.9673 169.561 72.9673C165.031 72.9673 160.545 73.8605 156.36 75.5957C152.175 77.331 148.373 79.8741 145.172 83.0799C141.971 86.2858 139.433 90.0912 137.704 94.2787C135.975 98.4661 135.088 102.953 135.094 107.484C135.094 107.706 135.107 107.925 135.111 108.145C135.276 99.1155 138.978 90.5107 145.42 84.1808C151.862 77.8508 160.53 74.3009 169.561 74.294Z" fill="white"/>
</g>
<path d="M146.997 82.5563C154.017 75.8772 161.061 75.5626 161.343 76.1418C161.623 76.7197 153.924 79.8515 148.934 84.7339C143.944 89.6162 140.574 94.8535 139.866 94.4273C139.158 94.0011 139.977 89.2355 146.997 82.5563Z" fill="white"/>
<g style="mix-blend-mode:screen">
<path d="M184.091 129.381C194.503 121.709 194.476 113.017 194.002 113.01C193.554 113.004 191.976 121.6 183.472 127.752C183.067 128.045 180.964 128.93 181.432 129.824C181.9 130.718 183.794 129.6 184.091 129.381Z" fill="white"/>
</g>
<path d="M180.271 130.565C180.476 131.17 179.129 132.175 177.264 132.809C175.398 133.442 173.719 133.465 173.514 132.859C173.309 132.254 174.802 131.957 176.668 131.324C178.534 130.69 180.065 129.959 180.271 130.565Z" fill="white"/>
<g style="mix-blend-mode:screen" opacity="0.65">
<path d="M167.624 131.574C171.916 131.941 176.226 131.115 180.077 129.186C192.204 122.747 194.761 107.273 194.761 107.273C194.761 107.273 198.879 123.935 181.76 133.741C176.263 136.869 170.194 138.863 163.913 139.602C162.709 139.724 160.627 139.735 160.627 139.735L167.624 131.574Z" fill="#6186FF"/>
</g>
<path d="M204.163 106.711V107.484C204.163 107.668 204.145 107.834 204.145 108.018V108.146C204.148 108.19 204.142 108.234 204.127 108.275C204.108 108.699 204.09 109.122 204.053 109.527C204.032 109.692 204.02 109.857 204.016 110.024C203.961 110.484 203.906 110.926 203.851 111.367C203.777 111.864 203.703 112.38 203.611 112.877C203.538 113.318 203.446 113.76 203.354 114.202L203.347 114.227C201.442 123.123 196.095 130.904 188.474 135.871C180.853 140.838 171.576 142.589 162.668 140.74C162.598 140.727 162.532 140.713 162.459 140.704C162.419 140.695 162.381 140.682 162.341 140.673C161.414 140.475 160.503 140.239 159.606 139.967C159.467 139.926 159.321 139.9 159.183 139.857C159.036 139.82 158.889 139.765 158.723 139.71C158.281 139.563 157.803 139.397 157.343 139.232H157.324C150.891 136.796 145.331 132.496 141.354 126.884C137.378 121.271 135.165 114.6 135 107.723C134.984 107.864 134.978 108.005 134.981 108.146C134.981 107.926 134.963 107.705 134.963 107.484C134.963 107.281 134.963 107.061 134.981 106.858C134.981 106.435 135 106.03 135 105.607C135.289 97.6565 138.311 90.0492 143.555 84.0666C148.798 78.084 155.944 74.0917 163.788 72.7624C171.631 71.4332 179.693 72.8483 186.615 76.7692C193.537 80.69 198.896 86.8771 201.789 94.2878C201.755 94.1799 201.73 94.0691 201.716 93.9567C201.9 94.4352 202.617 96.4229 202.894 97.4167C203.33 98.9917 203.654 100.596 203.862 102.217L203.863 102.224C203.983 103.144 204.081 104.073 204.127 105.018C204.145 105.57 204.163 106.14 204.163 106.711Z" stroke="#573811" stroke-width="2.31023" stroke-linecap="round" stroke-linejoin="round"/>
<path d="M193.98 106.758V107.304C193.98 107.434 193.967 107.551 193.967 107.681V107.771C193.969 107.802 193.965 107.833 193.954 107.862C193.941 108.161 193.928 108.46 193.902 108.746C193.887 108.862 193.878 108.979 193.876 109.096C193.837 109.421 193.798 109.733 193.759 110.044C193.707 110.395 193.655 110.759 193.59 111.109C193.538 111.421 193.473 111.733 193.408 112.044L193.403 112.063C192.059 118.34 188.286 123.831 182.908 127.336C177.53 130.842 170.983 132.077 164.697 130.772C164.648 130.763 164.601 130.753 164.55 130.747C164.522 130.741 164.495 130.731 164.467 130.725C163.813 130.585 163.169 130.419 162.536 130.226C162.438 130.197 162.335 130.179 162.238 130.149C162.134 130.123 162.03 130.084 161.913 130.045C161.602 129.942 161.264 129.825 160.939 129.708H160.926C156.387 127.989 152.463 124.955 149.657 120.994C146.85 117.033 145.289 112.326 145.172 107.473C145.162 107.572 145.157 107.672 145.159 107.771C145.159 107.616 145.146 107.46 145.146 107.304C145.146 107.161 145.146 107.005 145.159 106.862C145.159 106.564 145.172 106.278 145.172 105.979C145.377 100.369 147.509 95.0007 151.209 90.7789C154.91 86.557 159.952 83.7397 165.488 82.8017C171.023 81.8637 176.712 82.8623 181.597 85.6292C186.481 88.3961 190.263 92.7622 192.305 97.9918C192.28 97.9157 192.263 97.8374 192.253 97.7581C192.383 98.0957 192.889 99.4984 193.084 100.2C193.392 101.311 193.621 102.443 193.767 103.587L193.768 103.592C193.853 104.242 193.921 104.897 193.954 105.564C193.967 105.953 193.98 106.356 193.98 106.758Z" stroke="#573811" stroke-width="2.31023" stroke-linecap="round" stroke-linejoin="round"/>
<g style="mix-blend-mode:multiply" opacity="0.46">
<path d="M184.092 108.506L169.537 87.4084L161.142 105.537L159.826 107.575L159.14 108.899L170.821 128.419L184.142 108.846L184.092 108.506Z" fill="#4965BF"/>
</g>
<path d="M169.536 99.5474V112.595L158.091 106.562L169.536 99.5474Z" fill="#C1C1D3"/>
<g style="mix-blend-mode:screen">
<path d="M169.536 87.4058V99.5504L158.092 106.565L169.536 87.4058Z" fill="#FFC500"/>
</g>
<path d="M181.077 106.562L169.536 112.595V99.5474L181.077 106.562Z" fill="#FFC500"/>
<path d="M181.077 106.567L169.536 99.5531V87.4084L181.077 106.567Z" fill="#C1C1D3"/>
<path d="M181.123 106.906L169.534 126.241V115.543L181.123 106.906Z" fill="#C1C1D3"/>
<path d="M169.535 115.539V126.237L158.016 106.954L169.535 115.539Z" fill="#C1C1D3"/>
<path d="M181.101 106.563L169.56 112.598L169.503 99.5151L181.101 106.563Z" fill="#3D63E0"/>
<path d="M181.077 106.567L169.536 99.5531V87.4084L181.077 106.567Z" fill="#7394FF"/>
<path d="M169.536 99.5474V112.595L158.091 106.562L169.536 99.5474Z" fill="#96AFFF"/>
<path d="M181.1 106.927L169.512 126.264V114.666L181.1 106.927Z" fill="#7394FF"/>
<path d="M169.536 87.3713V99.5177L158.091 106.53L169.536 87.3713Z" fill="#C8D5FF"/>
<path d="M169.535 115.539V126.237L158.016 106.954L169.535 115.539Z" fill="#C8D5FF"/>
<g style="mix-blend-mode:screen">
<path d="M163.277 103.368L169.52 99.544V92.8267L168.494 98.6271L163.277 103.368Z" fill="white"/>
</g>
<path d="M158.648 105.631L159.865 103.594L159.065 105.551L162.916 103.594L158.091 106.564L158.648 105.631Z" fill="white"/>
<path d="M158.016 106.954L169.535 114.64V115.539L158.016 106.954Z" fill="#E6ECFF"/>
<path d="M181.067 106.954L169.546 114.64V115.539L181.067 106.954Z" fill="#C1C1D3"/>
<path d="M181.067 106.954L169.546 114.64V115.539L181.067 106.954Z" fill="#96AFFF"/>
<g style="mix-blend-mode:screen">
<path d="M169.544 115.541L167.83 114.27L169.187 115.959L169.534 126.239L169.544 115.541Z" fill="#B1C1F3"/>
</g>
<path opacity="0.32" d="M164.26 102.846L168.689 101.404L169.536 112.597L169.521 99.5474L164.26 102.846Z" fill="#3D63E0"/>
<g style="mix-blend-mode:multiply" opacity="0.53">
<path d="M171.989 113.723L170.077 116.004L169.546 126.091V115.542L171.989 113.723Z" fill="#3D63E0"/>
</g>
<path d="M88.6222 141.083C107.623 141.083 123.026 125.68 123.026 106.679C123.026 87.679 107.623 72.2761 88.6222 72.2761C69.6218 72.2761 54.2188 87.679 54.2188 106.679C54.2188 125.68 69.6218 141.083 88.6222 141.083Z" fill="#1FC48B"/>
<g style="mix-blend-mode:multiply" opacity="0.52">
<path d="M123.021 106.515C123.022 108.573 122.84 110.626 122.476 112.651C122.397 113.095 122.309 113.535 122.213 113.97C121.971 115.061 121.68 116.132 121.34 117.184C121.295 117.318 121.251 117.451 121.206 117.585C121.116 117.852 121.023 118.116 120.927 118.381C120.878 118.513 120.827 118.645 120.779 118.778C120.679 119.04 120.577 119.301 120.471 119.559L120.469 119.561C120.31 119.95 120.146 120.337 119.973 120.717C119.857 120.972 119.738 121.226 119.616 121.478C119.435 121.855 119.247 122.228 119.053 122.598C118.859 122.968 118.658 123.333 118.45 123.693L118.448 123.695C118.171 124.175 117.882 124.649 117.585 125.115L117.583 125.117C117.272 125.604 116.948 126.081 116.612 126.55V126.552C116.464 126.758 116.315 126.963 116.164 127.165C113.642 130.535 110.528 133.419 106.975 135.676C106.788 135.794 106.597 135.912 106.405 136.029L106.389 136.039H106.387C106.275 136.108 106.163 136.175 106.049 136.242C105.648 136.48 105.243 136.708 104.832 136.93C104.631 137.038 104.427 137.144 104.221 137.25C103.725 137.504 103.222 137.748 102.711 137.978C102.496 138.076 102.278 138.172 102.058 138.263C101.891 138.337 101.722 138.408 101.553 138.477C101.295 138.581 101.034 138.685 100.772 138.784C100.509 138.884 100.245 138.982 99.9781 139.075C99.746 139.157 99.5119 139.236 99.2778 139.313C99.2005 139.34 99.1252 139.364 99.0479 139.387C97.9002 139.755 96.7337 140.062 95.5533 140.307C95.4963 140.319 95.4394 140.331 95.3803 140.341C94.9448 140.429 94.5072 140.51 94.0655 140.579C90.0571 141.226 85.9665 141.169 81.978 140.408C81.8376 140.382 81.6972 140.354 81.5567 140.325H81.5547C80.4495 140.097 79.364 139.819 78.2982 139.491C78.1476 139.444 77.995 139.395 77.8444 139.346H77.8423C77.3742 139.193 76.9081 139.033 76.4502 138.86C76.5489 138.867 97.7492 142.456 110.733 128.765C115.117 124.178 118.307 118.584 120.021 112.475C121.736 106.366 121.922 99.9288 120.564 93.7307C120.564 93.7307 121.456 96.1436 121.77 97.2774C122.603 100.286 123.024 103.393 123.021 106.515Z" fill="#179368"/>
</g>
<g style="mix-blend-mode:screen" opacity="0.92">
<path d="M112.445 83.2561L65.0381 130.663C68.2428 133.849 72.0581 136.355 76.2549 138.03L113.957 100.328L119.908 94.3115C118.195 90.1587 115.656 86.3974 112.445 83.2561Z" fill="#4CD0A2"/>
</g>
<g style="mix-blend-mode:screen">
<path d="M107.843 79.7151L61.124 126.434C61.6686 127.202 62.2432 127.947 62.8476 128.667L66.6001 124.915C81.0921 110.423 95.5841 95.9307 110.076 81.4387C109.729 81.1471 109.364 80.8514 107.843 79.7151Z" fill="#4CD0A2"/>
</g>
<g style="mix-blend-mode:multiply" opacity="0.39">
<path d="M66.6848 132.09C66.2428 132.449 59.0836 126.266 56.1124 116.79C52.377 104.876 57.3664 93.1692 57.9251 93.29C58.4443 93.4023 55.0371 103.685 58.5147 115.796C61.3466 125.658 67.1036 131.75 66.6848 132.09Z" fill="#1FC48B"/>
</g>
<g style="mix-blend-mode:screen" opacity="0.41">
<path d="M121.168 114.542C118.967 120.277 115.585 125.486 111.241 129.83C106.897 134.174 101.688 137.557 95.9521 139.758C102.1 138.349 107.727 135.237 112.187 130.777C116.647 126.317 119.76 120.69 121.168 114.542Z" fill="#79DCB9"/>
</g>
<g style="mix-blend-mode:screen" opacity="0.65">
<path d="M72.0249 77.8866C68.6562 79.8882 65.6312 82.4187 63.0662 85.381C59.1142 89.5175 56.5194 94.7619 55.6288 100.413C55.1664 102.935 54.948 105.495 54.9766 108.059C55.4707 104.691 56.4439 101.411 57.8667 98.3184C60.317 93.2906 63.2364 90.5638 68.1646 85.9867C82.2985 72.8593 90.9224 75.9959 90.9467 74.2943C90.9709 72.5927 82.433 73.9733 80.0103 74.6459C77.234 75.4193 74.555 76.5065 72.0249 77.8866Z" fill="#79DCB9"/>
</g>
<g style="mix-blend-mode:soft-light">
<path d="M89.1472 131.998C102.563 131.998 113.438 121.122 113.438 107.707C113.438 94.2911 102.563 83.4155 89.1472 83.4155C75.7316 83.4155 64.856 94.2911 64.856 107.707C64.856 121.122 75.7316 131.998 89.1472 131.998Z" fill="white"/>
</g>
<g style="mix-blend-mode:lighten" opacity="0.57">
<path d="M87.4607 131.886C100.876 131.886 111.752 121.011 111.752 107.595C111.752 94.1793 100.876 83.3037 87.4607 83.3037C74.045 83.3037 63.1694 94.1793 63.1694 107.595C63.1694 121.011 74.045 131.886 87.4607 131.886Z" fill="white"/>
</g>
<g style="mix-blend-mode:multiply" opacity="0.52">
<path d="M89.4792 130.674C102.895 130.674 113.77 119.798 113.77 106.383C113.77 92.967 102.895 82.0916 89.4792 82.0916C76.0636 82.0916 65.188 92.967 65.188 106.383C65.188 119.798 76.0636 130.674 89.4792 130.674Z" fill="#179368"/>
</g>
<g style="mix-blend-mode:multiply">
<path d="M87.7717 130.716C101.187 130.716 112.063 119.841 112.063 106.425C112.063 93.0093 101.187 82.1338 87.7717 82.1338C74.3561 82.1338 63.4805 93.0093 63.4805 106.425C63.4805 119.841 74.3561 130.716 87.7717 130.716Z" fill="#179368"/>
</g>
<path d="M88.4884 131.376C101.904 131.376 112.78 120.5 112.78 107.085C112.78 93.6689 101.904 82.7935 88.4884 82.7935C75.0728 82.7935 64.1973 93.6689 64.1973 107.085C64.1973 120.5 75.0728 131.376 88.4884 131.376Z" fill="#1FC48B"/>
<g style="mix-blend-mode:screen" opacity="0.29">
<path d="M112.778 107.085C112.778 112.829 110.743 118.388 107.033 122.774C103.323 127.16 98.1794 130.089 92.5145 131.042C92.4156 131.059 92.3167 131.075 92.2159 131.091C88.0358 131.736 83.7599 131.281 79.8097 129.769C75.8596 128.257 72.3718 125.742 69.6904 122.471C70.3203 121.131 71.0954 119.865 72.0017 118.695C74.8844 115.019 80.7881 112.172 92.5975 106.478C101.172 102.344 104.294 101.422 105.318 98.1996C106.694 93.8657 103.058 89.1978 100.83 86.1589C104.151 88.118 106.959 90.8397 109.019 94.099C111.079 97.3584 112.334 101.062 112.679 104.902C112.713 105.248 112.736 105.598 112.752 105.95C112.77 106.326 112.778 106.705 112.778 107.085Z" fill="#4CD0A2"/>
</g>
<mask id="mask1_142_4" style="mask-type:luminance" maskUnits="userSpaceOnUse" x="64" y="82" width="49" height="50">
<path d="M88.4889 131.368C101.905 131.368 112.78 120.493 112.78 107.077C112.78 93.6614 101.905 82.7859 88.4889 82.7859C75.0732 82.7859 64.1978 93.6614 64.1978 107.077C64.1978 120.493 75.0732 131.368 88.4889 131.368Z" fill="white"/>
</mask>
<g mask="url(#mask1_142_4)">
<g style="mix-blend-mode:screen" opacity="0.29">
<path d="M112.063 120.625C113.389 118.032 112.779 107.767 112.779 107.084C112.779 106.704 112.771 106.325 112.753 105.949C112.737 105.597 112.713 105.247 112.68 104.901C112.54 103.309 112.241 101.734 111.788 100.201C110.116 101.306 108.701 102.758 107.64 104.458C104.587 109.429 100.463 117.442 93.6084 117.481C90.0871 117.503 81.706 117.659 76.0396 122.934C74.9997 123.851 74.0784 124.894 73.2972 126.039C75.929 128.145 78.9697 129.681 82.2264 130.551C85.4832 131.421 88.885 131.604 92.2164 131.09C92.3173 131.074 92.4162 131.058 92.515 131.041C97.2464 130.252 110.57 123.545 112.063 120.625Z" fill="#4CD0A2"/>
</g>
</g>
<g style="mix-blend-mode:multiply" opacity="0.6">
<path d="M65.5164 108.404C65.5155 103.679 66.8928 99.0561 69.4797 95.1022C72.0667 91.1483 75.7508 88.0349 80.0807 86.1434C84.4106 84.2519 89.1983 83.6646 93.857 84.4533C98.5157 85.242 102.843 87.3725 106.309 90.5839C104.089 88.1851 101.408 86.2591 98.4256 84.9212C95.4434 83.5834 92.2219 82.8612 88.954 82.798C85.6862 82.7348 82.4391 83.3319 79.4075 84.5534C76.3758 85.7749 73.622 87.5959 71.3108 89.907C68.9997 92.2182 67.1788 94.9721 65.9572 98.0038C64.7357 101.035 64.1386 104.282 64.2018 107.55C64.265 110.818 64.9872 114.04 66.325 117.022C67.6629 120.004 69.5889 122.685 71.9877 124.905C67.8213 120.421 65.509 114.525 65.5164 108.404Z" fill="#179368"/>
</g>
<g style="mix-blend-mode:multiply" opacity="0.35">
<path d="M66.9476 109.409C66.9476 105.036 76.7464 105.028 78.7682 101.484C82.9499 94.1534 82.1954 85.1174 91.2388 85.1174C97.3598 85.11 103.256 87.4225 107.74 91.5889C105.52 89.19 102.839 87.2639 99.8567 85.9261C96.8746 84.5882 93.6531 83.8661 90.3852 83.8029C87.1173 83.7397 83.8704 84.3367 80.8387 85.5583C77.8071 86.7798 75.0532 88.6008 72.742 90.9119C70.4308 93.2231 68.6099 95.977 67.3884 99.0086C66.1668 102.04 65.5698 105.287 65.633 108.555C65.6962 111.823 66.4183 115.044 67.7562 118.027C69.094 121.009 71.02 123.69 73.4188 125.91C69.2524 121.426 66.9401 115.53 66.9476 109.409Z" fill="#179368"/>
</g>
<g style="mix-blend-mode:multiply" opacity="0.35">
<path d="M111.444 105.75C111.445 110.475 110.068 115.097 107.481 119.051C104.894 123.005 101.21 126.119 96.8798 128.01C92.5499 129.902 87.7622 130.489 83.1035 129.7C78.4448 128.911 74.1174 126.781 70.6514 123.57C72.8715 125.968 75.5528 127.894 78.535 129.232C81.5171 130.57 84.7385 131.292 88.0064 131.355C91.2742 131.418 94.5212 130.821 97.5528 129.6C100.584 128.378 103.338 126.557 105.649 124.246C107.961 121.935 109.782 119.181 111.003 116.15C112.225 113.118 112.822 109.871 112.758 106.603C112.695 103.335 111.973 100.114 110.635 97.1316C109.298 94.1495 107.372 91.4681 104.973 89.248C109.139 93.7322 111.452 99.6285 111.444 105.75Z" fill="#179368"/>
</g>
<g style="mix-blend-mode:soft-light">
<path d="M88.6177 74.2155C97.6266 74.2165 106.275 77.7518 112.706 84.0617C119.136 90.3715 122.833 98.9522 123.004 107.959C123.009 107.739 123.021 107.521 123.021 107.3C123.024 102.78 122.137 98.3037 120.409 94.1268C118.682 89.9499 116.148 86.1544 112.953 82.9572C109.758 79.7599 105.965 77.2235 101.789 75.493C97.6134 73.7625 93.1377 72.8718 88.6177 72.8718C84.0977 72.8718 79.6221 73.7625 75.4465 75.493C71.2708 77.2235 67.4771 79.7599 64.2821 82.9572C61.0872 86.1544 58.5536 89.9499 56.8261 94.1268C55.0986 98.3037 54.2111 102.78 54.2144 107.3C54.2144 107.521 54.2268 107.739 54.231 107.959C54.402 98.9522 58.0999 90.3716 64.53 84.0618C70.96 77.7519 79.6089 74.2165 88.6177 74.2155Z" fill="white"/>
</g>
<path d="M66.095 82.4447C73.1021 75.7868 80.1337 75.4733 80.4145 76.0506C80.6947 76.6266 73.0096 79.7485 68.029 84.6154C63.0483 89.4822 59.684 94.703 58.9773 94.2781C58.2706 93.8532 59.0878 89.1026 66.095 82.4447Z" fill="white"/>
<g style="mix-blend-mode:screen">
<path d="M103.121 129.121C113.513 121.474 113.486 112.81 113.013 112.803C112.566 112.796 110.991 121.365 102.503 127.497C102.098 127.789 99.9996 128.672 100.467 129.563C100.934 130.454 102.824 129.339 103.121 129.121Z" fill="white"/>
</g>
<path d="M99.3079 130.298C99.5127 130.902 98.1688 131.903 96.3065 132.535C94.4441 133.166 92.7685 133.189 92.5638 132.585C92.359 131.982 93.8496 131.686 95.712 131.055C97.5743 130.423 99.1032 129.694 99.3079 130.298Z" fill="white"/>
<g style="mix-blend-mode:screen" opacity="0.65">
<path d="M86.6846 131.31C90.9679 131.677 95.2693 130.853 99.1145 128.931C111.219 122.512 113.771 107.087 113.771 107.087C113.771 107.087 117.881 123.696 100.795 133.471C95.3066 136.59 89.2489 138.576 82.9798 139.314C81.778 139.435 79.7007 139.446 79.7007 139.446L86.6846 131.31Z" fill="#4CD0A2"/>
</g>
<g style="mix-blend-mode:multiply" opacity="0.5">
<path d="M94.4306 113.51V126.127C94.4335 126.31 94.3997 126.491 94.331 126.661C94.2623 126.831 94.1602 126.985 94.0308 127.114C93.9014 127.244 93.7473 127.346 93.5776 127.414C93.408 127.483 93.2262 127.517 93.0432 127.514L86.0537 127.437C84.4866 127.36 84.4351 126.461 84.4351 126.332L84.538 113.51H94.4306Z" fill="#179368"/>
</g>
<g style="mix-blend-mode:multiply" opacity="0.5">
<path d="M106.765 110.538C106.852 110.06 106.852 109.571 106.765 109.093C106.763 109.601 106.581 110.093 106.251 110.48C106.086 110.119 105.848 109.795 105.551 109.53C105.255 109.264 104.907 109.063 104.53 108.939C101.755 107.577 95.9986 106.832 89.3431 106.832C79.9643 106.832 72.3838 108.245 72.3838 110.84C72.3764 111.079 72.4486 111.314 72.5893 111.508C73.5146 113.178 78.0371 114.283 84.0753 114.669L85.5402 114.746C86.7735 114.797 88.0326 114.823 89.3431 114.823C90.628 114.823 91.9129 114.797 93.1204 114.72C93.2748 114.72 93.4291 114.695 93.5831 114.695C99.4275 114.389 104.029 113.377 105.663 111.97C106.188 111.639 106.579 111.131 106.765 110.538ZM93.1204 113.41C91.9385 113.461 90.6794 113.487 89.3946 113.487C88.084 113.487 86.7736 113.461 85.5402 113.384C78.7568 113.05 73.6686 111.842 73.6686 110.84C73.6686 109.709 80.4524 107.859 89.3946 107.962C98.4396 108.039 105.044 109.658 105.044 110.712C105.044 111.971 99.956 113.101 93.1204 113.41Z" fill="#179368"/>
</g>
<g style="mix-blend-mode:multiply" opacity="0.5">
<path d="M76.5436 102.827H85.4369V110.998L86.7475 112.231H94.328V102.827H102.749C103.092 102.827 103.42 102.69 103.663 102.448C103.905 102.206 104.041 101.878 104.041 101.535V94.9343C104.047 94.7693 103.998 94.6072 103.901 94.473L103.039 93.3447L75.2614 93.2676C75.1868 93.2674 75.1129 93.282 75.0439 93.3106C74.975 93.3392 74.9126 93.3812 74.86 93.4342C74.8074 93.4871 74.7658 93.5499 74.7377 93.619C74.7096 93.6881 74.6956 93.7621 74.6963 93.8367L74.774 101.769C74.9049 102.12 75.1515 102.416 75.4731 102.608C75.7948 102.801 76.1723 102.877 76.5436 102.827Z" fill="#179368"/>
</g>
<path d="M74.2859 109.036C77.3176 107.993 80.4868 107.404 83.6908 107.289V110.501C83.6868 110.545 83.6958 110.59 83.7166 110.629C80.5154 110.527 77.3429 109.992 74.2859 109.036ZM93.1728 110.629C93.1932 110.599 93.2023 110.563 93.1985 110.527V107.34C96.4489 107.451 99.6672 108.022 102.757 109.036C99.6654 110.064 96.4313 110.602 93.1728 110.629ZM93.2726 104.237H93.1955V102.078H101.958C102.209 102.074 102.449 101.973 102.626 101.795C102.803 101.618 102.905 101.378 102.909 101.127V93.9838C102.91 93.7288 102.811 93.4834 102.633 93.3007C102.455 93.118 102.213 93.0126 101.958 93.0073H74.9514C74.8231 93.0073 74.6961 93.0326 74.5776 93.0816C74.4591 93.1307 74.3515 93.2026 74.2608 93.2932C74.1701 93.3839 74.0982 93.4916 74.0492 93.6101C74.0001 93.7286 73.9748 93.8556 73.9749 93.9838V101.127C73.9802 101.382 74.0856 101.625 74.2683 101.803C74.451 101.981 74.6964 102.079 74.9514 102.078H83.6877V104.237H83.6366C77.6496 104.571 70.5317 105.701 70.5317 109.067C70.5635 109.584 70.7359 110.082 71.0302 110.508C71.3246 110.933 71.7296 111.271 72.2017 111.483C74.6687 112.999 79.4225 113.641 83.6109 113.873H83.6877V125.796C83.6882 125.922 83.7141 126.048 83.7636 126.165C83.8132 126.282 83.8856 126.387 83.9766 126.476C84.0675 126.564 84.1753 126.634 84.2934 126.68C84.4115 126.727 84.5377 126.749 84.6646 126.746H92.2448C92.3697 126.747 92.4934 126.722 92.6089 126.675C92.7244 126.627 92.8294 126.557 92.9177 126.468C93.006 126.38 93.076 126.275 93.1237 126.16C93.1714 126.044 93.1957 125.92 93.1955 125.796V113.873H93.2469C97.0756 113.641 102.96 112.948 105.324 110.969C105.534 110.832 105.717 110.658 105.864 110.455C106.193 110.067 106.375 109.576 106.378 109.067C106.378 105.701 99.2339 104.571 93.2726 104.237Z" fill="#1FC48B"/>
<path d="M105.097 108.197C105.026 108.095 104.941 108.002 104.845 107.922C104.746 107.805 104.63 107.704 104.5 107.624C104.305 107.483 104.098 107.36 103.881 107.257C100.169 105.836 96.2222 105.127 92.2479 105.168V101.107H101.954V93.9485H74.9476V101.107H84.6532V105.168C83.8269 105.214 83.0238 105.26 82.2439 105.306C75.934 105.788 71.4829 107.096 71.4829 109.046C71.4829 110.216 73.0659 111.157 75.7044 111.845C76.84 112.118 77.9887 112.332 79.1461 112.488C80.2248 112.648 81.418 112.763 82.6568 112.855C83.2993 112.901 83.9647 112.947 84.6532 112.97V125.773H92.2479V112.947C99.7965 112.58 105.418 111.065 105.418 109.046C105.408 108.735 105.295 108.437 105.097 108.197ZM92.2479 111.639C91.0547 111.685 89.7929 111.708 88.5079 111.708C87.1768 111.708 85.8921 111.662 84.6533 111.616C84.4236 111.593 84.1713 111.593 83.9419 111.57C82.6798 111.501 81.4866 111.387 80.3623 111.249C79.0316 111.111 77.8615 110.928 76.8291 110.721C74.3282 110.239 72.7907 109.62 72.7907 109.046C72.7907 108.266 76.026 107.165 80.9589 106.591C82.1061 106.453 83.3453 106.339 84.6533 106.27V110.515C84.7685 110.511 84.8837 110.519 84.9973 110.538C86.1215 110.561 87.2917 110.606 88.5079 110.606C89.7929 110.606 91.0547 110.584 92.2479 110.538V106.316C99.3377 106.729 104.156 108.037 104.156 108.931C104.156 110.193 99.0854 111.341 92.2479 111.639Z" fill="#79DCB9"/>
<g style="mix-blend-mode:soft-light">
<path d="M83.9412 111.566L82.6562 112.851C81.4174 112.759 80.2241 112.644 79.1455 112.484L80.3617 111.245C81.486 111.382 82.6791 111.497 83.9412 111.566Z" fill="white"/>
</g>
<g style="mix-blend-mode:soft-light">
<path d="M101.679 93.9485L94.4743 101.107H92.2484V103.333L84.9978 110.538C84.8841 110.519 84.7689 110.511 84.6538 110.515V106.981L97.7092 93.9485H101.679Z" fill="white"/>
</g>
<g style="mix-blend-mode:soft-light">
<path d="M72.7907 109.046C72.7907 109.62 74.328 110.239 76.829 110.721L75.7044 111.845C73.0659 111.157 71.4829 110.216 71.4829 109.046C71.4829 107.096 75.934 105.788 82.2439 105.306L80.9589 106.591C76.026 107.165 72.7907 108.266 72.7907 109.046Z" fill="white"/>
</g>
<g style="mix-blend-mode:soft-light">
<path d="M84.6532 102.896V101.107H76.8286L84.1485 93.9485H93.624L84.6532 102.896Z" fill="white"/>
</g>
<g style="mix-blend-mode:screen">
<path d="M105.098 108.193C103.102 106.931 97.7788 105.829 92.249 105.6V105.164C96.2234 105.123 100.17 105.831 103.882 107.252C104.099 107.355 104.306 107.478 104.501 107.619C104.639 107.734 104.754 107.826 104.846 107.917C104.942 107.997 105.027 108.09 105.098 108.193Z" fill="#FDFDFD"/>
</g>
<g style="mix-blend-mode:screen">
<path d="M101.953 93.9485V94.6593H75.7733V101.107H74.9487V93.9485H101.953Z" fill="#FDFDFD"/>
</g>
<g style="mix-blend-mode:screen">
<path d="M72.1216 109.387C72.135 109.849 72.3158 110.289 72.6301 110.627C72.3187 110.484 72.0494 110.264 71.8484 109.986C71.6474 109.709 71.5216 109.384 71.4829 109.044C71.4829 106.841 77.1043 105.465 84.6532 105.166V101.105H85.4333L85.479 105.68C77.9303 105.978 72.1216 107.162 72.1216 109.387Z" fill="#FDFDFD"/>
</g>
<g style="mix-blend-mode:soft-light">
<path d="M92.2491 115.078V120.539L89.5408 123.224L86.9712 125.771H84.6538V122.65L92.2491 115.078Z" fill="white"/>
</g>
<path d="M76.416 96.6981V95.1808C76.416 95.1557 76.4259 95.1316 76.4437 95.1138C76.4614 95.0961 76.4855 95.0862 76.5106 95.0862H78.1715C78.1942 95.0862 78.2162 95.0943 78.2334 95.1092C78.2505 95.124 78.2618 95.1445 78.2651 95.167C78.2684 95.1895 78.2635 95.2124 78.2514 95.2315C78.2392 95.2507 78.2205 95.2649 78.1988 95.2714L76.8975 95.6634C76.8816 95.6682 76.8671 95.6772 76.8557 95.6894C76.8443 95.7015 76.8364 95.7164 76.8326 95.7326L76.6028 96.7196C76.5975 96.7422 76.5841 96.762 76.5652 96.7754C76.5462 96.7888 76.5229 96.7948 76.4999 96.7921C76.4768 96.7895 76.4554 96.7783 76.44 96.761C76.4245 96.7437 76.416 96.7213 76.416 96.6981Z" fill="white"/>
<g style="mix-blend-mode:screen">
<path d="M85.4796 113.043V125.771H84.6538L84.664 112.973C84.939 112.996 85.2045 113.02 85.4796 113.043Z" fill="#FDFDFD"/>
</g>
<path d="M85.9775 124.263V124.948C85.9775 125.048 86.0173 125.144 86.088 125.215C86.1587 125.285 86.2546 125.325 86.3546 125.325C86.3546 125.325 91.707 125.45 91.707 125.325C91.707 125.2 86.8191 125.029 86.8191 125.029C86.697 125.023 86.5793 124.981 86.4809 124.909C86.3825 124.836 86.3078 124.736 86.2662 124.621L86.1272 124.237C86.1211 124.22 86.109 124.206 86.0933 124.196C86.0776 124.187 86.0592 124.184 86.0413 124.187C86.0234 124.19 86.0072 124.2 85.9955 124.214C85.9839 124.227 85.9775 124.245 85.9775 124.263Z" fill="white"/>
<path d="M88.6202 141.083C107.621 141.083 123.024 125.68 123.024 106.679C123.024 87.679 107.621 72.2761 88.6202 72.2761C69.6197 72.2761 54.2168 87.679 54.2168 106.679C54.2168 125.68 69.6197 141.083 88.6202 141.083Z" stroke="#573811" stroke-width="2.31023" stroke-linecap="round" stroke-linejoin="round"/>
<path d="M88.6203 130.972C102.036 130.972 112.912 120.096 112.912 106.681C112.912 93.2649 102.036 82.3894 88.6203 82.3894C75.2046 82.3894 64.3291 93.2649 64.3291 106.681C64.3291 120.096 75.2046 130.972 88.6203 130.972Z" stroke="#573811" stroke-width="2.31023" stroke-linecap="round" stroke-linejoin="round"/>
<path d="M129.061 107.762C148.097 107.762 163.528 92.3102 163.528 73.2493C163.528 54.1883 148.097 38.7363 129.061 38.7363C110.026 38.7363 94.5942 54.1883 94.5942 73.2493C94.5942 92.3102 110.026 107.762 129.061 107.762Z" fill="#FFA20D"/>
<g style="mix-blend-mode:multiply" opacity="0.99">
<path d="M163.524 73.0902C163.525 75.1543 163.342 77.2143 162.978 79.246C162.898 79.6912 162.81 80.1322 162.714 80.5691C162.472 81.6635 162.18 82.7381 161.84 83.793C161.795 83.9278 161.75 84.0605 161.705 84.1953C161.616 84.4628 161.522 84.7282 161.426 84.9936C161.377 85.1263 161.326 85.259 161.277 85.3917C161.177 85.6551 161.075 85.9164 160.969 86.1757L160.967 86.1777C160.808 86.5677 160.643 86.9557 160.47 87.3374C160.353 87.5927 160.235 87.8479 160.113 88.101C159.931 88.4788 159.743 88.8532 159.548 89.2241C159.354 89.5957 159.153 89.9619 158.944 90.3225L158.942 90.3246C158.665 90.8064 158.375 91.2822 158.078 91.7498L158.076 91.7518C157.764 92.2398 157.44 92.719 157.103 93.1893V93.1913C156.954 93.3975 156.805 93.6037 156.655 93.8058C154.128 97.1858 151.008 100.079 147.448 102.345C147.261 102.463 147.069 102.581 146.877 102.698L146.861 102.708H146.859C146.747 102.777 146.635 102.845 146.52 102.912C146.119 103.151 145.713 103.38 145.301 103.602C145.099 103.71 144.895 103.817 144.689 103.923C144.192 104.178 143.688 104.423 143.176 104.654C142.96 104.752 142.742 104.848 142.522 104.94C142.355 105.013 142.185 105.085 142.016 105.154C141.757 105.258 141.496 105.362 141.233 105.462C140.97 105.562 140.705 105.66 140.438 105.754C140.206 105.836 139.971 105.915 139.737 105.993C139.659 106.02 139.584 106.044 139.506 106.067C138.356 106.436 137.188 106.744 136.005 106.989C135.948 107.002 135.891 107.014 135.832 107.024C135.396 107.112 134.957 107.194 134.515 107.263C130.499 107.912 126.4 107.854 122.405 107.092C122.264 107.065 122.123 107.036 121.983 107.008H121.981C120.873 106.779 119.786 106.5 118.718 106.171C118.567 106.124 118.414 106.075 118.264 106.026H118.261C117.792 105.873 117.325 105.711 116.867 105.538C116.966 105.545 138.205 109.146 151.212 95.4106C155.606 90.8063 158.802 85.1938 160.519 79.0659C162.236 72.9379 162.423 66.482 161.062 60.2651C161.062 60.2651 161.956 62.6857 162.271 63.8231C163.105 66.8414 163.527 69.9588 163.524 73.0902Z" fill="#FFC500"/>
</g>
<g style="mix-blend-mode:screen" opacity="0.92">
<path d="M152.928 49.7537L105.433 97.3116C108.643 100.507 112.465 103.021 116.671 104.702L154.443 66.8799L160.404 60.8444C158.689 56.6792 156.146 52.9059 152.928 49.7537Z" fill="#FFC500"/>
</g>
<g style="mix-blend-mode:screen">
<path d="M148.315 46.207L101.51 93.0744C102.056 93.8454 102.631 94.5922 103.237 95.3148L106.997 91.5504C121.515 77.0123 136.034 62.4742 150.553 47.9361C150.206 47.6436 149.839 47.347 148.315 46.207Z" fill="#FFEB85"/>
</g>
<g style="mix-blend-mode:multiply" opacity="0.39">
<path d="M107.081 98.7433C106.639 99.1031 99.4662 92.9002 96.4895 83.3942C92.7471 71.4429 97.7457 59.6984 98.3054 59.8195C98.8256 59.9322 95.4122 70.2478 98.8963 82.397C101.733 92.2904 107.501 98.4023 107.081 98.7433Z" fill="#FFC500"/>
</g>
<g style="mix-blend-mode:screen" opacity="0.41">
<path d="M161.666 81.1453C159.463 86.8969 156.076 92.1211 151.724 96.479C147.372 100.837 142.152 104.231 136.403 106.442C142.566 105.025 148.205 101.901 152.673 97.4269C157.141 92.9527 160.258 87.3098 161.666 81.1453Z" fill="#FFC500"/>
</g>
<g style="mix-blend-mode:screen" opacity="0.65">
<path d="M112.433 44.3611C109.057 46.3696 106.027 48.9081 103.458 51.8793C99.4974 56.0309 96.898 61.2917 96.0064 66.9594C95.5431 69.4893 95.3244 72.0579 95.3531 74.6297C95.8481 71.2513 96.823 67.9608 98.2485 64.858C100.703 59.8141 103.628 57.0789 108.565 52.4871C122.726 39.318 131.365 42.4643 131.39 40.7573C131.414 39.0503 122.86 40.4353 120.433 41.1101C117.651 41.8861 114.967 42.9768 112.433 44.3611Z" fill="#FFDC66"/>
</g>
<g style="mix-blend-mode:soft-light">
<path d="M129.586 98.6503C143.027 98.6503 153.922 87.7401 153.922 74.2817C153.922 60.8233 143.027 49.9131 129.586 49.9131C116.146 49.9131 105.25 60.8233 105.25 74.2817C105.25 87.7401 116.146 98.6503 129.586 98.6503Z" fill="white"/>
</g>
<g style="mix-blend-mode:lighten" opacity="0.57">
<path d="M127.896 98.5436C141.337 98.5436 152.232 87.6334 152.232 74.175C152.232 60.7166 141.337 49.8064 127.896 49.8064C114.456 49.8064 103.56 60.7166 103.56 74.175C103.56 87.6334 114.456 98.5436 127.896 98.5436Z" fill="white"/>
</g>
<g style="mix-blend-mode:multiply" opacity="0.85">
<path d="M129.92 97.3262C143.36 97.3262 154.256 86.4161 154.256 72.9577C154.256 59.4993 143.36 48.5891 129.92 48.5891C116.479 48.5891 105.583 59.4993 105.583 72.9577C105.583 86.4161 116.479 97.3262 129.92 97.3262Z" fill="#FFC500"/>
</g>
<g style="mix-blend-mode:multiply">
<path d="M128.208 97.3633C141.649 97.3633 152.544 86.4531 152.544 72.9947C152.544 59.5363 141.649 48.6262 128.208 48.6262C114.768 48.6262 103.872 59.5363 103.872 72.9947C103.872 86.4531 114.768 97.3633 128.208 97.3633Z" fill="#F7BF00"/>
</g>
<path d="M128.926 98.0282C142.366 98.0282 153.262 87.118 153.262 73.6596C153.262 60.2012 142.366 49.291 128.926 49.291C115.486 49.291 104.59 60.2012 104.59 73.6596C104.59 87.118 115.486 98.0282 128.926 98.0282Z" fill="#FEB724"/>
<g style="mix-blend-mode:screen" opacity="0.29">
<path d="M153.261 73.6544C153.264 79.4137 151.227 84.9879 147.51 89.3876C143.794 93.7873 138.639 96.728 132.96 97.6877C132.861 97.7055 132.762 97.7214 132.661 97.7373C128.472 98.3845 124.187 97.9272 120.229 96.4105C116.271 94.8938 112.777 92.3702 110.094 89.0894C110.725 87.7457 111.501 86.4753 112.409 85.301C115.297 81.6139 121.212 78.7579 133.043 73.0455C141.634 68.8982 144.762 67.9739 145.788 64.7409C147.166 60.3932 143.524 55.7104 141.291 52.6619C144.62 54.6292 147.433 57.3605 149.497 60.6301C151.561 63.8996 152.817 67.6134 153.162 71.4647C153.196 71.8118 153.219 72.1629 153.235 72.5159C153.253 72.8927 153.261 73.2736 153.261 73.6544Z" fill="#FFC500"/>
</g>
<g style="mix-blend-mode:multiply">
<path d="M153.262 73.6593C153.265 79.4186 151.227 84.9928 147.511 89.3925C143.795 93.7922 138.639 96.7329 132.961 97.6926C132.862 97.7104 132.762 97.7264 132.661 97.7422C129.345 98.2522 125.96 98.0719 122.716 97.2126C119.473 96.3533 116.442 94.8335 113.814 92.7484C111.185 90.6633 109.015 88.0578 107.441 85.0952C105.866 82.1326 104.92 78.8766 104.662 75.5314C104.404 72.1862 104.84 68.8238 105.942 65.6548C107.044 62.4857 108.788 59.5784 111.066 57.1149C113.344 54.6515 116.106 52.6851 119.179 51.3387C122.252 49.9924 125.571 49.2953 128.926 49.291C135.006 49.2901 140.867 51.5663 145.353 55.6714C149.839 59.7764 152.625 65.4126 153.163 71.4696C153.196 71.8167 153.22 72.1678 153.236 72.5208C153.254 72.8977 153.262 73.2785 153.262 73.6593Z" fill="#F09C00"/>
</g>
<mask id="mask2_142_4" style="mask-type:luminance" maskUnits="userSpaceOnUse" x="104" y="49" width="50" height="50">
<path d="M128.925 98.0262C142.365 98.0262 153.261 87.116 153.261 73.6577C153.261 60.1993 142.365 49.2891 128.925 49.2891C115.484 49.2891 104.588 60.1993 104.588 73.6577C104.588 87.116 115.484 98.0262 128.925 98.0262Z" fill="white"/>
</mask>
<g mask="url(#mask2_142_4)">
<g style="mix-blend-mode:screen" opacity="0.29">
<path d="M152.543 87.2443C153.871 84.6431 153.26 74.3454 153.26 73.6601C153.26 73.2793 153.252 72.8985 153.234 72.5217C153.218 72.1686 153.194 71.8175 153.161 71.4704C153.021 69.873 152.721 68.2937 152.267 66.7559C150.592 67.8647 149.174 69.321 148.112 71.0261C145.053 76.0125 140.921 84.0513 134.054 84.091C130.526 84.1128 122.13 84.2695 116.453 89.5614C115.411 90.4808 114.488 91.5269 113.705 92.6753C116.341 94.7881 119.387 96.3297 122.65 97.2021C125.913 98.0745 129.321 98.2588 132.659 97.743C132.761 97.7271 132.86 97.7112 132.959 97.6934C137.699 96.9028 151.047 90.1739 152.543 87.2443Z" fill="#FFC500"/>
</g>
</g>
<g style="mix-blend-mode:multiply" opacity="0.6">
<path d="M105.911 74.9801C105.902 70.2431 107.277 65.6066 109.867 61.6399C112.456 57.6731 116.147 54.5487 120.487 52.6503C124.828 50.7518 129.627 50.162 134.298 50.9531C138.969 51.7442 143.307 53.8818 146.779 57.1035C144.551 54.7038 141.862 52.7782 138.872 51.442C135.883 50.1057 132.654 49.3864 129.38 49.3268C126.106 49.2672 122.854 49.8687 119.817 51.0953C116.781 52.3219 114.023 54.1484 111.709 56.4654C109.396 58.7825 107.573 61.5425 106.35 64.5804C105.128 67.6182 104.531 70.8715 104.594 74.1455C104.658 77.4195 105.382 80.647 106.722 83.6348C108.062 86.6226 109.992 89.3094 112.394 91.5344C108.219 87.0336 105.903 81.1191 105.911 74.9801Z" fill="#FFC500"/>
</g>
<g style="mix-blend-mode:multiply" opacity="0.35">
<path d="M151.924 72.3207C151.933 77.0578 150.558 81.6942 147.968 85.661C145.379 89.6277 141.688 92.752 137.348 94.6505C133.008 96.5489 128.208 97.1388 123.537 96.3477C118.866 95.5567 114.528 93.4191 111.056 90.1974C113.284 92.5971 115.973 94.5226 118.963 95.8589C121.952 97.1951 125.181 97.9145 128.455 97.9741C131.729 98.0336 134.981 97.4322 138.018 96.2056C141.054 94.9791 143.811 93.1526 146.125 90.8355C148.439 88.5185 150.262 85.7584 151.485 82.7206C152.707 79.6827 153.304 76.4295 153.241 73.1554C153.177 69.8814 152.453 66.654 151.113 63.6661C149.772 60.6783 147.843 57.9916 145.441 55.7666C149.616 60.2673 151.932 66.1817 151.924 72.3207Z" fill="#FFC500"/>
</g>
<g style="mix-blend-mode:soft-light">
<path d="M129.057 40.6856C138.088 40.6925 146.757 44.2424 153.199 50.5724C159.641 56.9023 163.342 65.5071 163.507 74.537C163.511 74.3161 163.524 74.0973 163.524 73.8754C163.53 69.345 162.644 64.8577 160.915 60.6703C159.185 56.4828 156.647 52.6774 153.446 49.4715C150.245 46.2657 146.443 43.7224 142.258 41.9872C138.073 40.252 133.587 39.3589 129.057 39.3589C124.526 39.3589 120.04 40.252 115.855 41.9872C111.671 43.7224 107.869 46.2657 104.668 49.4715C101.466 52.6774 98.9286 56.4828 97.1993 60.6703C95.4701 64.8577 94.5834 69.345 94.5899 73.8754C94.5899 74.0973 94.6023 74.3162 94.6065 74.537C94.7717 65.5071 98.4732 56.9023 104.915 50.5724C111.357 44.2424 120.025 40.6925 129.057 40.6856Z" fill="white"/>
</g>
<path d="M106.491 48.9472C113.511 42.268 120.556 41.9535 120.837 42.5327C121.118 43.1105 113.419 46.2424 108.429 51.1248C103.439 56.0071 100.069 61.2444 99.3605 60.8182C98.6525 60.392 99.4712 55.6264 106.491 48.9472Z" fill="white"/>
<g style="mix-blend-mode:screen">
<path d="M143.586 95.7661C153.997 88.0944 153.97 79.4029 153.497 79.3958C153.048 79.3891 151.471 87.9852 142.966 94.1372C142.562 94.4301 140.459 95.3158 140.927 96.2097C141.395 97.1036 143.289 95.9851 143.586 95.7661Z" fill="white"/>
</g>
<path d="M139.767 96.9507C139.972 97.5563 138.625 98.5609 136.76 99.1945C134.894 99.8282 133.215 99.8509 133.01 99.2453C132.805 98.6397 134.298 98.3432 136.164 97.7095C138.03 97.0759 139.561 96.3451 139.767 96.9507Z" fill="white"/>
<g style="mix-blend-mode:multiply" opacity="0.6">
<path d="M143.913 76.3332C143.32 75.5604 142.573 74.9196 141.719 74.4515C141.593 74.3809 141.486 74.2804 141.409 74.1589C141.331 74.0374 141.284 73.8986 141.273 73.7548C141.261 73.611 141.285 73.4667 141.343 73.3344C141.4 73.2022 141.49 73.0861 141.603 72.9964C142.144 72.5575 142.609 72.0305 142.976 71.4376C143.608 70.4063 143.933 69.2159 143.913 68.0062C143.936 66.9979 143.703 66.0001 143.235 65.1069C142.766 64.2137 142.079 63.4543 141.236 62.9003C139.763 61.9376 138.078 61.3483 136.326 61.1834C136.115 61.1564 135.92 61.0535 135.779 60.8938C135.638 60.734 135.56 60.5284 135.559 60.3153V58.6251C135.559 58.1415 134.685 57.089 134.685 57.089L131.987 57.7494C131.755 57.7495 131.533 57.8419 131.369 58.0061C131.205 58.1703 131.113 58.393 131.113 58.6251V60.1249C131.113 60.2398 131.09 60.3536 131.046 60.4598C131.002 60.566 130.938 60.6625 130.857 60.7439C130.776 60.8252 130.679 60.8897 130.573 60.9338C130.467 60.9778 130.353 61.0005 130.238 61.0006H129.498C129.383 61.0005 129.269 60.9778 129.163 60.9338C129.057 60.8897 128.96 60.8252 128.879 60.7439C128.798 60.6626 128.733 60.566 128.69 60.4598C128.646 60.3536 128.623 60.2398 128.623 60.1249V58.6251C128.623 58.1415 127.669 56.9949 127.669 56.9949L125.051 57.7494C124.819 57.7495 124.596 57.8419 124.432 58.0061C124.268 58.1703 124.176 58.393 124.177 58.6251V60.125C124.177 60.3571 124.085 60.5798 123.921 60.744C123.757 60.9082 123.534 61.0006 123.302 61.0007H117.043C116.81 61.0009 116.588 61.0932 116.424 61.2575C116.26 61.4217 116.168 61.6444 116.168 61.8765C116.168 61.8765 115.635 63.8295 115.646 63.8845C115.665 63.982 116.239 64.7263 116.287 64.8093C116.364 64.9413 116.475 65.0507 116.607 65.1268C116.74 65.203 116.89 65.243 117.043 65.243H118.878C119.11 65.2432 119.332 65.3355 119.496 65.4998C119.66 65.664 119.752 65.8867 119.752 66.1188V82.6808C119.752 82.9129 119.66 83.1356 119.496 83.2998C119.332 83.464 119.11 83.5564 118.878 83.5565H117.043C116.928 83.5566 116.814 83.5793 116.708 83.6233C116.602 83.6674 116.505 83.7319 116.424 83.8133C116.343 83.8946 116.278 83.9911 116.234 84.0973C116.19 84.2035 116.168 84.3174 116.168 84.4323L115.661 86.499C115.661 86.499 116.56 87.8063 117.043 87.8063H123.302C123.417 87.8064 123.531 87.8291 123.637 87.8731C123.743 87.9172 123.839 87.9817 123.921 88.063C124.002 88.1444 124.066 88.2409 124.11 88.3471C124.154 88.4533 124.177 88.5671 124.177 88.6821L123.474 89.8091C123.601 90.1744 123.808 90.5062 124.081 90.7797C124.354 91.0531 124.686 91.2611 125.051 91.3879H127.749C127.864 91.3879 127.977 91.3652 128.084 91.3211C128.19 91.2771 128.286 91.2125 128.367 91.1312C128.449 91.0499 128.513 90.9533 128.557 90.8471C128.601 90.7409 128.623 90.6271 128.623 90.5122V88.6821C128.623 88.5671 128.646 88.4533 128.69 88.3471C128.734 88.2409 128.798 88.1445 128.879 88.0632C128.96 87.9818 129.057 87.9173 129.163 87.8732C129.269 87.8292 129.383 87.8065 129.498 87.8064H130.238C130.353 87.8065 130.467 87.8292 130.573 87.8732C130.679 87.9173 130.776 87.9817 130.857 88.063C130.938 88.1444 131.002 88.2409 131.046 88.3471C131.09 88.4533 131.113 88.5671 131.113 88.6821L130.452 89.7629C130.452 90.2466 131.504 91.3881 131.987 91.3881H134.685C134.917 91.3879 135.14 91.2954 135.304 91.1312C135.468 90.967 135.56 90.7444 135.56 90.5123V87.7688C137.962 87.7708 140.32 87.1221 142.383 85.8917C143.287 85.3101 144.025 84.5029 144.522 83.5496C145.019 82.5963 145.259 81.5298 145.218 80.4555C145.259 78.9737 144.799 77.5213 143.913 76.3332ZM127.243 67.3502C127.243 67.2352 127.266 67.1214 127.31 67.0152C127.354 66.909 127.418 66.8125 127.499 66.7312C127.58 66.6498 127.677 66.5853 127.783 66.5412C127.889 66.4972 128.003 66.4745 128.118 66.4744H132.447C134.989 66.4744 136.272 67.3304 136.272 69.0423C136.272 70.7768 134.989 71.6479 132.447 71.6479H128.118C128.003 71.6478 127.889 71.6251 127.783 71.5811C127.677 71.537 127.58 71.4725 127.499 71.3912C127.418 71.3098 127.354 71.2133 127.31 71.1071C127.266 71.0009 127.243 70.8871 127.243 70.7721L127.243 67.3502ZM133.595 82.325H128.118C127.886 82.3249 127.663 82.2325 127.499 82.0683C127.335 81.904 127.243 81.6814 127.243 81.4493V77.7645C127.243 77.6495 127.266 77.5357 127.31 77.4295C127.354 77.3233 127.418 77.2268 127.499 77.1455C127.58 77.0641 127.677 76.9996 127.783 76.9555C127.889 76.9115 128.003 76.8888 128.118 76.8887L133.595 76.8888C136.242 76.8887 137.566 77.7947 137.569 79.6069C137.569 81.424 136.242 82.325 133.595 82.325Z" fill="#B06A00"/>
</g>
<path d="M143.212 75.3137C142.619 74.5405 141.871 73.8995 141.017 73.4315C140.891 73.3607 140.785 73.26 140.707 73.1384C140.629 73.0168 140.583 72.878 140.571 72.7342C140.56 72.5903 140.584 72.4458 140.642 72.3135C140.7 72.1812 140.789 72.0652 140.902 71.9755C141.444 71.5368 141.908 71.0098 142.275 70.4166C142.907 69.3854 143.232 68.1949 143.212 66.9853C143.235 65.9771 143.002 64.9796 142.534 64.0864C142.066 63.1933 141.378 62.434 140.536 61.88C139.063 60.9171 137.377 60.3275 135.625 60.1623C135.414 60.1356 135.22 60.0329 135.079 59.8734C134.938 59.7139 134.859 59.5084 134.859 59.2955V57.6057C134.859 57.3734 134.767 57.1505 134.602 56.9861C134.438 56.8217 134.215 56.7292 133.983 56.729H131.285C131.053 56.7297 130.831 56.8224 130.667 56.9867C130.503 57.1511 130.412 57.3737 130.412 57.6057V59.1052C130.412 59.2201 130.389 59.3339 130.345 59.4401C130.301 59.5463 130.237 59.6427 130.155 59.7239C130.074 59.8052 129.977 59.8695 129.871 59.9134C129.765 59.9573 129.651 59.9799 129.536 59.9798H128.797C128.682 59.9799 128.569 59.9573 128.462 59.9134C128.356 59.8695 128.26 59.8052 128.178 59.7239C128.097 59.6427 128.033 59.5463 127.989 59.4401C127.945 59.3339 127.922 59.2201 127.922 59.1052V57.6057C127.922 57.3734 127.83 57.1505 127.666 56.9861C127.502 56.8217 127.279 56.7292 127.046 56.729H124.351C124.118 56.7292 123.895 56.8217 123.731 56.9861C123.567 57.1505 123.475 57.3734 123.475 57.6057V59.1052C123.475 59.337 123.383 59.5593 123.219 59.7233C123.056 59.8873 122.833 59.9796 122.602 59.9798H116.342C116.11 59.9801 115.887 60.0725 115.723 60.2369C115.559 60.4013 115.467 60.6241 115.467 60.8564V63.3477C115.467 63.4626 115.489 63.5764 115.533 63.6826C115.577 63.7888 115.642 63.8852 115.723 63.9665C115.805 64.0477 115.901 64.1122 116.007 64.1561C116.113 64.2 116.227 64.2224 116.342 64.2223H118.176C118.409 64.2226 118.632 64.3151 118.796 64.4795C118.96 64.6439 119.052 64.8667 119.052 65.0991V81.6606C119.052 81.7756 119.029 81.8894 118.985 81.9956C118.941 82.1018 118.877 82.1982 118.795 82.2794C118.714 82.3607 118.618 82.4251 118.511 82.469C118.405 82.5129 118.291 82.5354 118.176 82.5353H116.342C116.11 82.5355 115.887 82.6281 115.723 82.7925C115.559 82.9569 115.467 83.1797 115.467 83.412V85.9112C115.467 86.1432 115.56 86.3656 115.724 86.5295C115.888 86.6935 116.11 86.7857 116.342 86.7858H122.602C122.834 86.7865 123.056 86.8792 123.22 87.0436C123.383 87.2079 123.475 87.4305 123.475 87.6626V89.4912C123.475 89.7235 123.567 89.9464 123.731 90.1107C123.895 90.2751 124.118 90.3676 124.351 90.3678H127.046C127.279 90.3676 127.502 90.2751 127.666 90.1107C127.83 89.9464 127.922 89.7235 127.922 89.4912V87.6626C127.922 87.4302 128.014 87.2073 128.178 87.0429C128.342 86.8785 128.565 86.7861 128.797 86.7858H129.536C129.769 86.7861 129.991 86.8785 130.156 87.0429C130.32 87.2073 130.412 87.4302 130.412 87.6626V89.4912C130.412 89.7232 130.503 89.9458 130.667 90.1102C130.831 90.2746 131.053 90.3672 131.285 90.3678H133.983C134.215 90.3676 134.438 90.2751 134.602 90.1107C134.767 89.9464 134.859 89.7235 134.859 89.4912V86.7481C136.173 86.6981 137.477 86.5045 138.749 86.171C139.791 85.8997 140.781 85.4609 141.682 84.8719C142.587 84.2902 143.324 83.4828 143.821 82.5294C144.318 81.5761 144.558 80.5096 144.517 79.4353C144.558 77.9537 144.098 76.5015 143.212 75.3137ZM126.541 66.3308C126.541 66.0985 126.633 65.8756 126.798 65.7112C126.962 65.5468 127.185 65.4543 127.417 65.4541H131.747C134.288 65.4541 135.57 66.3109 135.57 68.0226C135.57 69.7562 134.288 70.6269 131.747 70.6269H127.417C127.302 70.627 127.188 70.6044 127.082 70.5605C126.976 70.5166 126.879 70.4521 126.798 70.3709C126.717 70.2897 126.652 70.1932 126.608 70.0871C126.564 69.9809 126.541 69.8672 126.541 69.7522V66.3308ZM132.894 81.3056H127.417C127.185 81.3054 126.962 81.213 126.798 81.0486C126.633 80.8842 126.541 80.6612 126.541 80.4289V76.7438C126.541 76.6289 126.564 76.515 126.608 76.4089C126.652 76.3027 126.717 76.2062 126.798 76.125C126.879 76.0438 126.976 75.9793 127.082 75.9354C127.188 75.8915 127.302 75.869 127.417 75.8691H132.894C135.54 75.8691 136.865 76.7749 136.867 78.5864C136.867 80.4032 135.54 81.3056 132.894 81.3056Z" fill="#FFC500"/>
<g style="mix-blend-mode:screen" opacity="0.92">
<path d="M143.212 75.3137C142.619 74.5405 141.871 73.8995 141.017 73.4315C140.891 73.3607 140.785 73.26 140.707 73.1384C140.629 73.0168 140.583 72.878 140.571 72.7342C140.56 72.5903 140.584 72.4458 140.642 72.3135C140.7 72.1812 140.789 72.0652 140.902 71.9755C141.444 71.5368 141.908 71.0098 142.275 70.4166C142.907 69.3854 143.232 68.1949 143.212 66.9853C143.235 65.9771 143.002 64.9796 142.534 64.0864C142.066 63.1933 141.378 62.434 140.536 61.88C139.063 60.9171 137.377 60.3275 135.625 60.1623C135.414 60.1356 135.22 60.0329 135.079 59.8734C134.938 59.7139 134.859 59.5084 134.859 59.2955V57.6057C134.859 57.3734 134.767 57.1505 134.602 56.9861C134.438 56.8217 134.215 56.7292 133.983 56.729H131.285C131.053 56.7297 130.831 56.8224 130.667 56.9867C130.503 57.1511 130.412 57.3737 130.412 57.6057V59.1052C130.412 59.2201 130.389 59.3339 130.345 59.4401C130.301 59.5463 130.237 59.6427 130.155 59.7239C130.074 59.8052 129.977 59.8695 129.871 59.9134C129.765 59.9573 129.651 59.9799 129.536 59.9798H128.797C128.682 59.9799 128.569 59.9573 128.462 59.9134C128.356 59.8695 128.26 59.8052 128.178 59.7239C128.097 59.6427 128.033 59.5463 127.989 59.4401C127.945 59.3339 127.922 59.2201 127.922 59.1052V57.6057C127.922 57.3734 127.83 57.1505 127.666 56.9861C127.502 56.8217 127.279 56.7292 127.046 56.729H124.351C124.118 56.7292 123.895 56.8217 123.731 56.9861C123.567 57.1505 123.475 57.3734 123.475 57.6057V59.1052C123.475 59.337 123.383 59.5593 123.219 59.7233C123.056 59.8873 122.833 59.9796 122.602 59.9798H116.342C116.11 59.9801 115.887 60.0725 115.723 60.2369C115.559 60.4013 115.467 60.6241 115.467 60.8564V63.3477C115.467 63.4626 115.489 63.5764 115.533 63.6826C115.577 63.7888 115.642 63.8852 115.723 63.9665C115.805 64.0477 115.901 64.1122 116.007 64.1561C116.113 64.2 116.227 64.2224 116.342 64.2223H118.176C118.409 64.2226 118.632 64.3151 118.796 64.4795C118.96 64.6439 119.052 64.8667 119.052 65.0991V81.6606C119.052 81.7756 119.029 81.8894 118.985 81.9956C118.941 82.1018 118.877 82.1982 118.795 82.2794C118.714 82.3607 118.618 82.4251 118.511 82.469C118.405 82.5129 118.291 82.5354 118.176 82.5353H116.342C116.11 82.5355 115.887 82.6281 115.723 82.7925C115.559 82.9569 115.467 83.1797 115.467 83.412V85.9112C115.467 86.1432 115.56 86.3656 115.724 86.5295C115.888 86.6935 116.11 86.7857 116.342 86.7858H122.602C122.834 86.7865 123.056 86.8792 123.22 87.0436C123.383 87.2079 123.475 87.4305 123.475 87.6626V89.4912C123.475 89.7235 123.567 89.9464 123.731 90.1107C123.895 90.2751 124.118 90.3676 124.351 90.3678H127.046C127.279 90.3676 127.502 90.2751 127.666 90.1107C127.83 89.9464 127.922 89.7235 127.922 89.4912V87.6626C127.922 87.4302 128.014 87.2073 128.178 87.0429C128.342 86.8785 128.565 86.7861 128.797 86.7858H129.536C129.769 86.7861 129.991 86.8785 130.156 87.0429C130.32 87.2073 130.412 87.4302 130.412 87.6626V89.4912C130.412 89.7232 130.503 89.9458 130.667 90.1102C130.831 90.2746 131.053 90.3672 131.285 90.3678H133.983C134.215 90.3676 134.438 90.2751 134.602 90.1107C134.767 89.9464 134.859 89.7235 134.859 89.4912V86.7481C136.173 86.6981 137.477 86.5045 138.749 86.171C139.791 85.8997 140.781 85.4609 141.682 84.8719C142.587 84.2902 143.324 83.4828 143.821 82.5294C144.318 81.5761 144.558 80.5096 144.517 79.4353C144.558 77.9537 144.098 76.5015 143.212 75.3137ZM126.541 66.3308C126.541 66.0985 126.633 65.8756 126.798 65.7112C126.962 65.5468 127.185 65.4543 127.417 65.4541H131.747C134.288 65.4541 135.57 66.3109 135.57 68.0226C135.57 69.7562 134.288 70.6269 131.747 70.6269H127.417C127.302 70.627 127.188 70.6044 127.082 70.5605C126.976 70.5166 126.879 70.4521 126.798 70.3709C126.717 70.2897 126.652 70.1932 126.608 70.0871C126.564 69.9809 126.541 69.8672 126.541 69.7522V66.3308ZM132.894 81.3056H127.417C127.185 81.3054 126.962 81.213 126.798 81.0486C126.633 80.8842 126.541 80.6612 126.541 80.4289V76.7438C126.541 76.6289 126.564 76.515 126.608 76.4089C126.652 76.3027 126.717 76.2062 126.798 76.125C126.879 76.0438 126.976 75.9793 127.082 75.9354C127.188 75.8915 127.302 75.869 127.417 75.8691H132.894C135.54 75.8691 136.865 76.7749 136.867 78.5864C136.867 80.4032 135.54 81.3056 132.894 81.3056Z" fill="#FFC500"/>
</g>
<path d="M133.983 57.324C134.058 57.3242 134.129 57.3539 134.182 57.4067C134.235 57.4595 134.264 57.5311 134.264 57.6057V59.2955C134.266 59.6524 134.397 59.9967 134.633 60.2645C134.869 60.5324 135.194 60.7056 135.548 60.7522C137.204 60.9076 138.797 61.4613 140.193 62.3661C140.959 62.8639 141.584 63.5502 142.009 64.359C142.433 65.1678 142.643 66.0721 142.617 66.9853C142.64 68.0845 142.345 69.167 141.769 70.1035C141.437 70.6399 141.017 71.1167 140.527 71.5139C140.338 71.667 140.189 71.8641 140.094 72.0879C139.999 72.3118 139.96 72.5555 139.98 72.7979C140.001 73.0365 140.08 73.2664 140.21 73.4674C140.341 73.6684 140.518 73.8344 140.727 73.9509C141.51 74.3802 142.195 74.9673 142.739 75.6748C143.548 76.758 143.966 78.0839 143.923 79.4353C143.966 80.4124 143.75 81.3837 143.299 82.2513C142.847 83.119 142.175 83.8526 141.351 84.3782C140.503 84.9306 139.571 85.3422 138.592 85.5972C137.361 85.9185 136.1 86.1052 134.83 86.1538C134.677 86.1614 134.533 86.2274 134.428 86.338C134.323 86.4486 134.264 86.5954 134.264 86.7481V89.4912C134.264 89.5658 134.235 89.6374 134.182 89.6902C134.129 89.743 134.058 89.7727 133.983 89.7729H131.285C131.211 89.7725 131.14 89.7426 131.087 89.6898C131.035 89.637 131.006 89.5655 131.006 89.4912V87.6626C131.006 87.2727 130.851 86.8987 130.576 86.6228C130.3 86.3469 129.926 86.1916 129.536 86.1909H128.798C128.408 86.1916 128.034 86.3469 127.758 86.6228C127.483 86.8987 127.328 87.2727 127.328 87.6626V89.4912C127.328 89.5658 127.298 89.6374 127.246 89.6902C127.193 89.743 127.121 89.7727 127.047 89.7729H124.351C124.276 89.7727 124.205 89.743 124.152 89.6902C124.099 89.6374 124.07 89.5658 124.07 89.4912V87.6626C124.07 87.2729 123.915 86.8992 123.64 86.6233C123.365 86.3474 122.992 86.1919 122.602 86.1909H116.343C116.268 86.191 116.197 86.1617 116.144 86.1092C116.091 86.0568 116.062 85.9855 116.061 85.9112V83.4121C116.061 83.3375 116.091 83.2659 116.144 83.2131C116.196 83.1603 116.268 83.1306 116.343 83.1305H118.177C118.566 83.13 118.94 82.9749 119.215 82.6994C119.491 82.4239 119.646 82.0504 119.646 81.6607V65.0992C119.646 64.7093 119.491 64.3353 119.216 64.0594C118.94 63.7835 118.567 63.6281 118.177 63.6274H116.343C116.268 63.6275 116.197 63.5982 116.144 63.5457C116.091 63.4933 116.062 63.4221 116.061 63.3478V60.8565C116.061 60.7819 116.091 60.7103 116.144 60.6575C116.196 60.6047 116.268 60.575 116.343 60.5749H122.602C122.991 60.5742 123.364 60.4191 123.64 60.1436C123.915 59.8681 124.069 59.4946 124.07 59.1053V57.6058C124.07 57.5312 124.099 57.4596 124.152 57.4068C124.205 57.354 124.276 57.3243 124.351 57.3242H127.047C127.121 57.3243 127.193 57.354 127.246 57.4068C127.298 57.4596 127.328 57.5312 127.328 57.6058V59.1053C127.328 59.4949 127.483 59.8684 127.759 60.1439C128.034 60.4194 128.408 60.5744 128.798 60.5749H129.536C129.926 60.5744 130.3 60.4194 130.575 60.1439C130.851 59.8684 131.006 59.4949 131.006 59.1053V57.6058C131.006 57.5315 131.035 57.46 131.087 57.4072C131.14 57.3544 131.211 57.3246 131.285 57.3242L133.983 57.324ZM127.417 71.2219H131.747C135.398 71.2219 136.164 69.4821 136.164 68.0226C136.164 66.5794 135.398 64.859 131.747 64.859H127.417C127.027 64.8597 126.653 65.0151 126.378 65.291C126.102 65.5669 125.947 65.9409 125.947 66.3308V69.7522C125.948 70.1419 126.103 70.5154 126.378 70.7909C126.654 71.0664 127.027 71.2215 127.417 71.2219ZM127.417 81.9007H132.894C136.669 81.9007 137.461 80.0984 137.461 78.5864C137.461 77.0753 136.669 75.2741 132.894 75.2741H127.417C127.027 75.2745 126.654 75.4295 126.378 75.705C126.103 75.9805 125.948 76.354 125.947 76.7437V80.4289C125.947 80.8188 126.102 81.1927 126.378 81.4687C126.653 81.7446 127.027 81.9 127.417 81.9007ZM133.983 56.729H131.285C131.053 56.7297 130.831 56.8224 130.667 56.9867C130.503 57.1511 130.412 57.3737 130.412 57.6057V59.1052C130.412 59.2201 130.389 59.3339 130.345 59.4401C130.301 59.5463 130.237 59.6427 130.155 59.7239C130.074 59.8052 129.978 59.8695 129.871 59.9134C129.765 59.9573 129.651 59.9799 129.536 59.9798H128.798C128.683 59.9799 128.569 59.9573 128.462 59.9134C128.356 59.8695 128.26 59.8052 128.178 59.7239C128.097 59.6427 128.033 59.5463 127.989 59.4401C127.945 59.3339 127.922 59.2201 127.922 59.1052V57.6057C127.922 57.3734 127.83 57.1505 127.666 56.9861C127.502 56.8217 127.279 56.7292 127.046 56.729H124.351C124.118 56.7292 123.896 56.8217 123.731 56.9861C123.567 57.1505 123.475 57.3734 123.475 57.6057V59.1052C123.475 59.337 123.383 59.5593 123.219 59.7233C123.056 59.8873 122.833 59.9796 122.602 59.9798H116.342C116.11 59.9801 115.887 60.0725 115.723 60.2369C115.559 60.4013 115.467 60.6241 115.467 60.8564V63.3477C115.467 63.4626 115.489 63.5764 115.534 63.6826C115.578 63.7888 115.642 63.8852 115.723 63.9665C115.805 64.0477 115.901 64.1122 116.007 64.1561C116.113 64.2 116.227 64.2224 116.342 64.2223H118.176C118.409 64.2226 118.632 64.3151 118.796 64.4795C118.96 64.6439 119.052 64.8667 119.052 65.0991V81.6606C119.052 81.7756 119.029 81.8894 118.985 81.9956C118.941 82.1018 118.877 82.1982 118.795 82.2794C118.714 82.3607 118.618 82.4251 118.512 82.469C118.405 82.5129 118.291 82.5354 118.176 82.5353H116.342C116.11 82.5355 115.887 82.6281 115.723 82.7925C115.559 82.9569 115.467 83.1797 115.467 83.412V85.9112C115.467 86.1432 115.56 86.3656 115.724 86.5295C115.888 86.6935 116.11 86.7857 116.342 86.7858H122.602C122.834 86.7865 123.056 86.8792 123.22 87.0436C123.383 87.2079 123.475 87.4305 123.475 87.6626V89.4912C123.475 89.7235 123.567 89.9464 123.731 90.1107C123.896 90.2751 124.118 90.3676 124.351 90.3678H127.046C127.279 90.3676 127.502 90.2751 127.666 90.1107C127.83 89.9464 127.922 89.7235 127.922 89.4912V87.6626C127.922 87.4302 128.014 87.2073 128.178 87.0429C128.342 86.8785 128.565 86.7861 128.798 86.7858H129.536C129.769 86.7861 129.991 86.8785 130.156 87.0429C130.32 87.2073 130.412 87.4302 130.412 87.6626V89.4912C130.412 89.7232 130.503 89.9458 130.667 90.1102C130.831 90.2746 131.053 90.3672 131.285 90.3678H133.983C134.215 90.3676 134.438 90.2751 134.602 90.1107C134.767 89.9464 134.859 89.7235 134.859 89.4912V86.7481C136.173 86.6981 137.477 86.5045 138.749 86.171C139.791 85.8997 140.781 85.4609 141.682 84.8719C142.587 84.2902 143.324 83.4828 143.821 82.5294C144.318 81.5761 144.558 80.5096 144.517 79.4353C144.558 77.9537 144.098 76.5015 143.212 75.3137C142.619 74.5405 141.871 73.8995 141.017 73.4315C140.891 73.3607 140.785 73.2601 140.707 73.1385C140.629 73.0169 140.583 72.878 140.571 72.7342C140.56 72.5903 140.584 72.4458 140.642 72.3135C140.7 72.1812 140.789 72.0653 140.902 71.9757C141.444 71.537 141.908 71.0098 142.275 70.4166C142.907 69.3854 143.232 68.1949 143.212 66.9853C143.235 65.9771 143.002 64.9796 142.534 64.0864C142.066 63.1933 141.378 62.434 140.536 61.88C139.063 60.9171 137.377 60.3275 135.625 60.1623C135.414 60.1356 135.22 60.0329 135.079 59.8734C134.937 59.7139 134.859 59.5086 134.859 59.2956V57.6057C134.859 57.3734 134.767 57.1505 134.602 56.9861C134.438 56.8217 134.215 56.7292 133.983 56.729ZM127.417 70.6269C127.302 70.627 127.188 70.6044 127.082 70.5605C126.976 70.5166 126.879 70.4521 126.798 70.3709C126.716 70.2897 126.652 70.1932 126.608 70.0871C126.564 69.9809 126.541 69.8672 126.541 69.7522V66.3308C126.541 66.0985 126.633 65.8756 126.798 65.7112C126.962 65.5468 127.185 65.4543 127.417 65.4541H131.747C134.288 65.4541 135.57 66.3109 135.57 68.0226C135.57 69.7562 134.288 70.6269 131.747 70.6269H127.417ZM127.417 81.3056C127.185 81.3054 126.962 81.213 126.798 81.0486C126.633 80.8842 126.541 80.6612 126.541 80.4289V76.7438C126.541 76.6289 126.564 76.515 126.608 76.4089C126.652 76.3027 126.716 76.2062 126.798 76.125C126.879 76.0438 126.976 75.9793 127.082 75.9354C127.188 75.8915 127.302 75.869 127.417 75.8691H132.894C135.54 75.8691 136.864 76.7749 136.867 78.5864C136.867 80.4032 135.54 81.3056 132.894 81.3056H127.417Z" fill="#F2A700"/>
<g style="mix-blend-mode:screen" opacity="0.29">
<path d="M143.212 75.3137C142.619 74.5405 141.871 73.8995 141.017 73.4315C140.891 73.3607 140.785 73.26 140.707 73.1384C140.629 73.0168 140.583 72.878 140.571 72.7342C140.56 72.5903 140.584 72.4458 140.642 72.3135C140.7 72.1812 140.789 72.0652 140.902 71.9755C141.444 71.5368 141.908 71.0098 142.275 70.4166C142.907 69.3854 143.232 68.1949 143.212 66.9853C143.235 65.9771 143.002 64.9796 142.534 64.0864C142.066 63.1933 141.378 62.434 140.536 61.88C139.063 60.9171 137.377 60.3275 135.625 60.1623C135.414 60.1356 135.22 60.0329 135.079 59.8734C134.938 59.7139 134.859 59.5084 134.859 59.2955V57.6057C134.859 57.3734 134.767 57.1505 134.602 56.9861C134.438 56.8217 134.215 56.7292 133.983 56.729H131.285C131.053 56.7297 130.831 56.8224 130.667 56.9867C130.503 57.1511 130.412 57.3737 130.412 57.6057V59.1052C130.412 59.2201 130.389 59.3339 130.345 59.4401C130.301 59.5463 130.237 59.6427 130.155 59.7239C130.074 59.8052 129.977 59.8695 129.871 59.9134C129.765 59.9573 129.651 59.9799 129.536 59.9798H128.797C128.682 59.9799 128.569 59.9573 128.462 59.9134C128.356 59.8695 128.26 59.8052 128.178 59.7239C128.097 59.6427 128.033 59.5463 127.989 59.4401C127.945 59.3339 127.922 59.2201 127.922 59.1052V57.6057C127.922 57.3734 127.83 57.1505 127.666 56.9861C127.502 56.8217 127.279 56.7292 127.046 56.729H124.351C124.118 56.7292 123.895 56.8217 123.731 56.9861C123.567 57.1505 123.475 57.3734 123.475 57.6057V59.1052C123.475 59.337 123.383 59.5593 123.219 59.7233C123.056 59.8873 122.833 59.9796 122.602 59.9798H116.342C116.11 59.9801 115.887 60.0725 115.723 60.2369C115.559 60.4013 115.467 60.6241 115.467 60.8564V63.3477C115.467 63.4626 115.489 63.5764 115.533 63.6826C115.577 63.7888 115.642 63.8852 115.723 63.9665C115.805 64.0477 115.901 64.1122 116.007 64.1561C116.113 64.2 116.227 64.2224 116.342 64.2223H118.176C118.409 64.2226 118.632 64.3151 118.796 64.4795C118.96 64.6439 119.052 64.8667 119.052 65.0991V81.6606C119.052 81.7756 119.029 81.8894 118.985 81.9956C118.941 82.1018 118.877 82.1982 118.795 82.2794C118.714 82.3607 118.618 82.4251 118.511 82.469C118.405 82.5129 118.291 82.5354 118.176 82.5353H116.342C116.11 82.5355 115.887 82.6281 115.723 82.7925C115.559 82.9569 115.467 83.1797 115.467 83.412V85.9112C115.467 86.1432 115.56 86.3656 115.724 86.5295C115.888 86.6935 116.11 86.7857 116.342 86.7858H122.602C122.834 86.7865 123.056 86.8792 123.22 87.0436C123.383 87.2079 123.475 87.4305 123.475 87.6626V89.4912C123.475 89.7235 123.567 89.9464 123.731 90.1107C123.895 90.2751 124.118 90.3676 124.351 90.3678H127.046C127.279 90.3676 127.502 90.2751 127.666 90.1107C127.83 89.9464 127.922 89.7235 127.922 89.4912V87.6626C127.922 87.4302 128.014 87.2073 128.178 87.0429C128.342 86.8785 128.565 86.7861 128.797 86.7858H129.536C129.769 86.7861 129.991 86.8785 130.156 87.0429C130.32 87.2073 130.412 87.4302 130.412 87.6626V89.4912C130.412 89.7232 130.503 89.9458 130.667 90.1102C130.831 90.2746 131.053 90.3672 131.285 90.3678H133.983C134.215 90.3676 134.438 90.2751 134.602 90.1107C134.767 89.9464 134.859 89.7235 134.859 89.4912V86.7481C136.173 86.6981 137.477 86.5045 138.749 86.171C139.791 85.8997 140.781 85.4609 141.682 84.8719C142.587 84.2902 143.324 83.4828 143.821 82.5294C144.318 81.5761 144.558 80.5096 144.517 79.4353C144.558 77.9537 144.098 76.5015 143.212 75.3137ZM126.541 66.3308C126.541 66.0985 126.633 65.8756 126.798 65.7112C126.962 65.5468 127.185 65.4543 127.417 65.4541H131.747C134.288 65.4541 135.57 66.3109 135.57 68.0226C135.57 69.7562 134.288 70.6269 131.747 70.6269H127.417C127.302 70.627 127.188 70.6044 127.082 70.5605C126.976 70.5166 126.879 70.4521 126.798 70.3709C126.717 70.2897 126.652 70.1932 126.608 70.0871C126.564 69.9809 126.541 69.8672 126.541 69.7522V66.3308ZM132.894 81.3056H127.417C127.185 81.3054 126.962 81.213 126.798 81.0486C126.633 80.8842 126.541 80.6612 126.541 80.4289V76.7438C126.541 76.6289 126.564 76.515 126.608 76.4089C126.652 76.3027 126.717 76.2062 126.798 76.125C126.879 76.0438 126.976 75.9793 127.082 75.9354C127.188 75.8915 127.302 75.869 127.417 75.8691H132.894C135.54 75.8691 136.865 76.7749 136.867 78.5864C136.867 80.4032 135.54 81.3056 132.894 81.3056Z" fill="#FFC500"/>
</g>
<mask id="mask3_142_4" style="mask-type:luminance" maskUnits="userSpaceOnUse" x="116" y="57" width="28" height="33">
<path d="M142.741 75.6719C142.196 74.9648 141.51 74.378 140.728 73.9483C140.519 73.8319 140.341 73.6661 140.211 73.4652C140.081 73.2643 140.002 73.0345 139.981 72.7959C139.96 72.5533 139.999 72.3092 140.094 72.0851C140.189 71.8609 140.338 71.6637 140.528 71.5107C141.199 70.9659 141.737 70.2743 142.099 69.4894C142.461 68.7044 142.639 67.8468 142.618 66.9825C142.643 66.0693 142.434 65.1649 142.009 64.3559C141.585 63.547 140.959 62.8608 140.193 62.3632C138.798 61.4584 137.204 60.9045 135.548 60.7487C135.194 60.7022 134.869 60.5291 134.634 60.2615C134.398 59.9938 134.266 59.6496 134.265 59.2928V57.603C134.264 57.5284 134.235 57.4569 134.182 57.4042C134.129 57.3514 134.058 57.3216 133.983 57.3213H131.286C131.211 57.3217 131.14 57.3516 131.088 57.4044C131.035 57.4572 131.006 57.5286 131.006 57.603V59.1024C131.006 59.4921 130.851 59.8656 130.575 60.1412C130.3 60.4167 129.926 60.5716 129.537 60.572H128.798C128.408 60.5716 128.035 60.4167 127.759 60.1412C127.484 59.8656 127.329 59.4921 127.328 59.1024V57.603C127.328 57.5284 127.298 57.4569 127.246 57.4042C127.193 57.3514 127.122 57.3216 127.047 57.3213H124.351C124.277 57.3216 124.205 57.3514 124.152 57.4042C124.1 57.4569 124.07 57.5284 124.07 57.603V59.1024C124.07 59.4919 123.915 59.8654 123.64 60.141C123.365 60.4165 122.992 60.5716 122.602 60.572H116.343C116.268 60.5723 116.197 60.6021 116.144 60.6549C116.091 60.7076 116.062 60.7791 116.062 60.8537V63.3448C116.062 63.4192 116.092 63.4904 116.144 63.5429C116.197 63.5953 116.268 63.6247 116.343 63.6245H118.177C118.567 63.6253 118.941 63.7807 119.216 64.0566C119.492 64.3324 119.646 64.7063 119.647 65.0962V81.6579C119.646 82.0476 119.491 82.4211 119.216 82.6967C118.94 82.9722 118.567 83.1271 118.177 83.1275H116.343C116.268 83.1278 116.197 83.1577 116.144 83.2105C116.091 83.2632 116.062 83.3346 116.062 83.4092V85.9083C116.062 85.9827 116.092 86.0538 116.144 86.1063C116.197 86.1587 116.268 86.1881 116.343 86.1879H122.602C122.992 86.1888 123.365 86.3443 123.64 86.6202C123.916 86.8961 124.07 87.27 124.07 87.6597V89.4883C124.07 89.5629 124.1 89.6343 124.152 89.687C124.205 89.7398 124.277 89.7696 124.351 89.7699H127.047C127.122 89.7696 127.193 89.7398 127.246 89.687C127.298 89.6343 127.328 89.5629 127.328 89.4883V87.6597C127.329 87.2698 127.483 86.896 127.759 86.6201C128.034 86.3442 128.408 86.1888 128.798 86.1879H129.537C129.927 86.1888 130.3 86.3442 130.576 86.6201C130.851 86.896 131.006 87.2698 131.006 87.6597V89.4883C131.006 89.5627 131.035 89.634 131.088 89.6868C131.14 89.7396 131.211 89.7695 131.286 89.7699H133.983C134.058 89.7696 134.129 89.7398 134.182 89.687C134.235 89.6343 134.264 89.5629 134.265 89.4883V86.7452C134.265 86.5926 134.323 86.4458 134.428 86.3351C134.533 86.2244 134.677 86.1583 134.829 86.1502C136.1 86.102 137.362 85.9158 138.593 85.5949C139.572 85.3394 140.503 84.9274 141.35 84.3751C142.175 83.8495 142.847 83.1161 143.299 82.2485C143.75 81.3808 143.966 80.4095 143.923 79.4323C143.966 78.0811 143.549 76.7553 142.741 75.6719ZM132.894 81.3029H127.417C127.185 81.3027 126.962 81.2102 126.798 81.0458C126.634 80.8814 126.542 80.6585 126.542 80.4262V76.741C126.542 76.6261 126.564 76.5123 126.608 76.4061C126.652 76.2999 126.717 76.2035 126.798 76.1222C126.879 76.041 126.976 75.9766 127.082 75.9326C127.188 75.8887 127.302 75.8663 127.417 75.8664H132.894C135.54 75.8664 136.865 76.7721 136.868 78.5837C136.868 80.4004 135.54 81.3029 132.894 81.3029ZM126.542 66.328C126.542 66.0957 126.634 65.8729 126.798 65.7085C126.962 65.5441 127.185 65.4515 127.417 65.4513H131.747C134.289 65.4513 135.57 66.3082 135.57 68.0199C135.57 69.7534 134.289 70.6241 131.747 70.6241H127.417C127.302 70.6242 127.188 70.6017 127.082 70.5578C126.976 70.5138 126.879 70.4494 126.798 70.3682C126.717 70.2869 126.652 70.1905 126.608 70.0843C126.564 69.9781 126.542 69.8644 126.542 69.7495V66.328Z" fill="white"/>
</mask>
<g mask="url(#mask3_142_4)">
<path d="M152.742 49.9464C143.331 54.2124 140.617 58.4651 140.038 61.7357C140.028 63.3152 139.679 64.8743 139.016 66.308C137.672 68.6418 135.787 68.8495 130.034 72.5345C128.529 73.3766 127.144 74.4189 125.919 75.6329C124.418 77.3226 123.338 79.3425 122.765 81.5285C121.848 84.6015 118.011 89.4963 105.247 97.5044C106.845 99.0881 108.594 100.511 110.47 101.753C112.364 103 114.379 104.053 116.485 104.895C119.555 99.5128 123.41 94.6178 127.922 90.3708C128.302 89.9601 127.768 88.4209 128.128 88.0691C129.81 86.1961 131.994 84.8449 134.42 84.1756C136.583 83.8791 138.579 82.8536 140.079 81.2686C141.42 79.4402 142.128 77.224 142.094 74.9568C142.489 71.4185 146.025 66.6083 160.122 61.1989C159.996 60.8892 159.863 60.5785 152.742 49.9464Z" fill="#FFC500"/>
<path d="M148.316 46.2035C142.446 52.0513 138.29 55.9252 135.494 58.4493C135.022 58.8754 133.957 59.833 132.557 61.1916C129.733 63.8317 127.133 66.7007 124.782 69.7693C123.367 71.6943 122.1 73.7239 120.992 75.8406C118.783 79.8385 113.817 85.6056 101.511 93.0708C101.773 93.4422 102.054 93.8219 102.352 94.2098C102.639 94.5835 102.935 94.9506 103.238 95.3113C109.541 90.8531 115.246 85.6032 120.211 79.6908C122.556 76.8976 124.042 74.784 124.841 73.6797C127.099 70.6255 129.541 67.7107 132.151 64.9515C132.23 64.8665 134.204 65.3452 134.283 65.2596C138.64 60.5808 142.678 54.2586 150.554 47.9325C150.207 47.6401 149.84 47.3435 148.316 46.2035Z" fill="#FFC500"/>
</g>
<path d="M132.894 75.2738H127.417C127.027 75.2742 126.654 75.4291 126.378 75.7047C126.103 75.9802 125.948 76.3539 125.947 76.7435V80.4288C125.948 80.8187 126.102 81.1925 126.378 81.4684C126.653 81.7443 127.027 81.8996 127.417 81.9004H132.894C136.669 81.9004 137.462 80.0975 137.462 78.5862C137.462 77.0748 136.669 75.2738 132.894 75.2738ZM132.894 81.3055H127.417C127.185 81.3053 126.962 81.2128 126.798 81.0484C126.634 80.884 126.541 80.6611 126.541 80.4288V76.7437C126.541 76.6287 126.564 76.5149 126.608 76.4087C126.652 76.3025 126.717 76.2061 126.798 76.1249C126.879 76.0436 126.976 75.9792 127.082 75.9353C127.188 75.8914 127.302 75.8689 127.417 75.869H132.894C135.54 75.869 136.865 76.7747 136.867 78.5863C136.867 80.403 135.54 81.3055 132.894 81.3055ZM127.417 71.2218H131.747C135.398 71.2218 136.164 69.4823 136.164 68.0225C136.164 66.5786 135.398 64.8589 131.747 64.8589H127.417C127.027 64.8597 126.653 65.0151 126.378 65.291C126.102 65.5669 125.948 65.9408 125.947 66.3307V69.7521C125.948 70.1418 126.103 70.5153 126.378 70.7909C126.654 71.0664 127.027 71.2214 127.417 71.2218ZM126.541 66.3307C126.541 66.0983 126.634 65.8755 126.798 65.7111C126.962 65.5467 127.185 65.4542 127.417 65.4539H131.747C134.288 65.4539 135.57 66.3108 135.57 68.0225C135.57 69.756 134.288 70.6267 131.747 70.6267H127.417C127.302 70.6269 127.188 70.6043 127.082 70.5604C126.976 70.5165 126.879 70.452 126.798 70.3708C126.717 70.2895 126.652 70.1931 126.608 70.0869C126.564 69.9807 126.541 69.867 126.541 69.7521V66.3307ZM132.894 75.2738H127.417C127.027 75.2742 126.654 75.4291 126.378 75.7047C126.103 75.9802 125.948 76.3539 125.947 76.7435V80.4288C125.948 80.8187 126.102 81.1925 126.378 81.4684C126.653 81.7443 127.027 81.8996 127.417 81.9004H132.894C136.669 81.9004 137.462 80.0975 137.462 78.5862C137.462 77.0748 136.669 75.2738 132.894 75.2738ZM132.894 81.3055H127.417C127.185 81.3053 126.962 81.2128 126.798 81.0484C126.634 80.884 126.541 80.6611 126.541 80.4288V76.7437C126.541 76.6287 126.564 76.5149 126.608 76.4087C126.652 76.3025 126.717 76.2061 126.798 76.1249C126.879 76.0436 126.976 75.9792 127.082 75.9353C127.188 75.8914 127.302 75.8689 127.417 75.869H132.894C135.54 75.869 136.865 76.7747 136.867 78.5863C136.867 80.403 135.54 81.3055 132.894 81.3055ZM131.747 64.8589H127.417C127.027 64.8597 126.653 65.0151 126.378 65.291C126.102 65.5669 125.948 65.9408 125.947 66.3307V69.7521C125.948 70.1418 126.103 70.5153 126.378 70.7909C126.654 71.0664 127.027 71.2214 127.417 71.2218H131.747C135.398 71.2218 136.164 69.4823 136.164 68.0225C136.164 66.5786 135.398 64.8589 131.747 64.8589ZM131.747 70.6267H127.417C127.302 70.6269 127.188 70.6043 127.082 70.5604C126.976 70.5165 126.879 70.452 126.798 70.3708C126.717 70.2895 126.652 70.1931 126.608 70.0869C126.564 69.9807 126.541 69.867 126.541 69.7521V66.3307C126.541 66.0983 126.634 65.8755 126.798 65.7111C126.962 65.5467 127.185 65.4542 127.417 65.4539H131.747C134.288 65.4539 135.57 66.3108 135.57 68.0225C135.57 69.756 134.288 70.6267 131.747 70.6267ZM132.894 75.2738H127.417C127.027 75.2742 126.654 75.4291 126.378 75.7047C126.103 75.9802 125.948 76.3539 125.947 76.7435V80.4288C125.948 80.8187 126.102 81.1925 126.378 81.4684C126.653 81.7443 127.027 81.8996 127.417 81.9004H132.894C136.669 81.9004 137.462 80.0975 137.462 78.5862C137.462 77.0748 136.669 75.2738 132.894 75.2738ZM132.894 81.3055H127.417C127.185 81.3053 126.962 81.2128 126.798 81.0484C126.634 80.884 126.541 80.6611 126.541 80.4288V76.7437C126.541 76.6287 126.564 76.5149 126.608 76.4087C126.652 76.3025 126.717 76.2061 126.798 76.1249C126.879 76.0436 126.976 75.9792 127.082 75.9353C127.188 75.8914 127.302 75.8689 127.417 75.869H132.894C135.54 75.869 136.865 76.7747 136.867 78.5863C136.867 80.403 135.54 81.3055 132.894 81.3055ZM127.417 71.2218H131.747C135.398 71.2218 136.164 69.4823 136.164 68.0225C136.164 66.5786 135.398 64.8589 131.747 64.8589H127.417C127.027 64.8597 126.653 65.0151 126.378 65.291C126.102 65.5669 125.948 65.9408 125.947 66.3307V69.7521C125.948 70.1418 126.103 70.5153 126.378 70.7909C126.654 71.0664 127.027 71.2214 127.417 71.2218ZM126.541 66.3307C126.541 66.0983 126.634 65.8755 126.798 65.7111C126.962 65.5467 127.185 65.4542 127.417 65.4539H131.747C134.288 65.4539 135.57 66.3108 135.57 68.0225C135.57 69.756 134.288 70.6267 131.747 70.6267H127.417C127.302 70.6269 127.188 70.6043 127.082 70.5604C126.976 70.5165 126.879 70.452 126.798 70.3708C126.717 70.2895 126.652 70.1931 126.608 70.0869C126.564 69.9807 126.541 69.867 126.541 69.7521V66.3307Z" fill="#F2A700"/>
<path d="M116.318 61.9394V61.2522C116.318 61.2026 116.328 61.1535 116.347 61.1077C116.365 61.0618 116.393 61.0201 116.428 60.985C116.463 60.9499 116.505 60.9219 116.551 60.9029C116.597 60.8838 116.646 60.8741 116.696 60.874C116.696 60.874 122.058 60.7482 122.058 60.874C122.058 60.9998 117.161 61.1711 117.161 61.1711C117.039 61.1769 116.921 61.2189 116.822 61.2917C116.723 61.3645 116.649 61.4648 116.607 61.5801L116.468 61.9656C116.462 61.9827 116.45 61.9972 116.434 62.0063C116.418 62.0154 116.4 62.0187 116.382 62.0155C116.364 62.0124 116.348 62.003 116.336 61.989C116.324 61.9751 116.318 61.9576 116.318 61.9394Z" fill="white"/>
<path d="M124.499 59.2236V57.7015C124.499 57.689 124.501 57.6766 124.506 57.6651C124.51 57.6536 124.517 57.6431 124.526 57.6343C124.535 57.6255 124.545 57.6185 124.557 57.6137C124.569 57.6089 124.581 57.6065 124.593 57.6064H126.257C126.28 57.6065 126.302 57.6148 126.319 57.6297C126.336 57.6445 126.348 57.6651 126.351 57.6876C126.354 57.7101 126.35 57.7331 126.337 57.7523C126.325 57.7716 126.306 57.7858 126.285 57.7924L124.981 58.1857C124.965 58.1905 124.951 58.1994 124.939 58.2116C124.928 58.2237 124.92 58.2387 124.916 58.255L124.686 59.245C124.68 59.2677 124.667 59.2877 124.648 59.3011C124.629 59.3145 124.606 59.3205 124.582 59.3178C124.559 59.3152 124.538 59.3041 124.523 59.2867C124.507 59.2693 124.499 59.2469 124.499 59.2236Z" fill="white"/>
<path d="M131.015 58.9576V57.6086C131.015 57.5734 131.021 57.5386 131.035 57.5061C131.048 57.4736 131.068 57.444 131.093 57.4191C131.118 57.3942 131.147 57.3746 131.18 57.3611C131.212 57.3476 131.247 57.3406 131.282 57.3406H132.773C132.796 57.3406 132.818 57.3489 132.835 57.3638C132.853 57.3787 132.864 57.3992 132.867 57.4217C132.871 57.4442 132.866 57.4672 132.853 57.4865C132.841 57.5057 132.823 57.5199 132.801 57.5265L131.497 57.9198C131.481 57.9246 131.467 57.9335 131.455 57.9457C131.444 57.9579 131.436 57.9728 131.432 57.9891L131.202 58.9791C131.196 59.0017 131.183 59.0217 131.164 59.0351C131.145 59.0486 131.122 59.0545 131.099 59.0518C131.075 59.0492 131.054 59.0381 131.039 59.0207C131.023 59.0033 131.015 58.9809 131.015 58.9576Z" fill="white"/>
<g style="mix-blend-mode:screen" opacity="0.65">
<path d="M127.119 97.9648C131.411 98.3321 135.721 97.5059 139.572 95.5774C151.699 89.1386 154.256 73.6641 154.256 73.6641C154.256 73.6641 158.374 90.3259 141.256 100.132C135.758 103.261 129.689 105.254 123.408 105.994C122.204 106.115 120.123 106.126 120.123 106.126L127.119 97.9648Z" fill="#FFDC66"/>
</g>
<path d="M163.659 73.0968V73.8698C163.659 74.0538 163.641 74.2197 163.641 74.4037V74.5324C163.644 74.5762 163.637 74.6202 163.622 74.6614C163.604 75.0847 163.586 75.5079 163.549 75.9128C163.527 76.0776 163.515 76.2434 163.512 76.4096C163.457 76.8698 163.401 77.3115 163.346 77.7532C163.273 78.2502 163.199 78.7656 163.107 79.2625C163.033 79.7042 162.941 80.1458 162.849 80.5875L162.842 80.6134C160.937 89.509 155.591 97.2897 147.97 102.257C140.348 107.224 131.071 108.975 122.164 107.126C122.093 107.113 122.027 107.099 121.955 107.09C121.915 107.081 121.876 107.068 121.836 107.059C120.91 106.861 119.998 106.625 119.102 106.353C118.963 106.311 118.817 106.286 118.679 106.243C118.531 106.206 118.384 106.151 118.219 106.096C117.777 105.949 117.298 105.783 116.838 105.618H116.82C110.387 103.182 104.827 98.8824 100.85 93.2697C96.8732 87.657 94.6607 80.9858 94.4953 74.1091C94.4799 74.2496 94.4738 74.3911 94.4768 74.5324C94.4768 74.3116 94.4585 74.0907 94.4585 73.8698C94.4585 73.6674 94.4585 73.4466 94.4768 73.2442C94.4768 72.8209 94.4953 72.4161 94.4953 71.9926C94.7851 64.0425 97.8064 56.4352 103.05 50.4526C108.294 44.47 115.44 40.4777 123.283 39.1484C131.127 37.8192 139.189 39.2343 146.111 43.1551C153.033 47.076 158.392 53.2631 161.285 60.6738C161.25 60.5659 161.226 60.4551 161.211 60.3427C161.396 60.8212 162.113 62.8088 162.389 63.8027C162.826 65.3777 163.15 66.9819 163.358 68.6031L163.358 68.6101C163.479 69.5304 163.576 70.4587 163.622 71.4036C163.641 71.956 163.659 72.5264 163.659 73.0968Z" stroke="#573811" stroke-width="2.31023" stroke-linecap="round" stroke-linejoin="round"/>
<path d="M153.476 73.1388V73.6844C153.476 73.8143 153.463 73.9313 153.463 74.0612V74.152C153.465 74.1829 153.461 74.2139 153.45 74.243C153.437 74.5417 153.424 74.8404 153.398 75.1261C153.383 75.2425 153.374 75.3595 153.372 75.4768C153.333 75.8015 153.294 76.1132 153.255 76.4249C153.203 76.7756 153.151 77.1392 153.086 77.4899C153.034 77.8016 152.97 78.1133 152.905 78.425L152.9 78.4432C151.555 84.7207 147.782 90.2114 142.404 93.7168C137.026 97.2221 130.479 98.4574 124.194 97.1528C124.144 97.1433 124.097 97.1336 124.046 97.1271C124.018 97.1211 123.991 97.1119 123.963 97.1058C123.309 96.9655 122.665 96.7992 122.033 96.607C121.935 96.578 121.831 96.5601 121.734 96.5298C121.63 96.5038 121.526 96.465 121.409 96.426C121.098 96.3222 120.76 96.2052 120.435 96.0884H120.422C115.883 94.3693 111.959 91.3355 109.153 87.3747C106.346 83.4139 104.785 78.7062 104.669 73.8534C104.658 73.9526 104.653 74.0524 104.655 74.1521C104.655 73.9963 104.643 73.8405 104.643 73.6846C104.643 73.5418 104.643 73.3859 104.655 73.2431C104.655 72.9444 104.669 72.6587 104.669 72.3598C104.873 66.7496 107.005 61.3813 110.705 57.1595C114.406 52.9377 119.448 50.1203 124.984 49.1823C130.519 48.2443 136.208 49.2429 141.093 52.0098C145.977 54.7767 149.759 59.1427 151.801 64.3723C151.776 64.2962 151.759 64.218 151.749 64.1387C151.879 64.4763 152.385 65.879 152.58 66.5805C152.888 67.6919 153.117 68.8239 153.263 69.968L153.264 69.973C153.349 70.6224 153.417 71.2775 153.45 71.9443C153.463 72.3337 153.476 72.7363 153.476 73.1388Z" stroke="#573811" stroke-width="2.31023" stroke-linecap="round" stroke-linejoin="round"/>
</svg>
